<svg width="218" height="112" viewBox="0 0 218 112" fill="none" xmlns="http://www.w3.org/2000/svg">
<path d="M94.961 22.8863C88.9579 22.8863 84.0879 27.7559 84.0879 33.7585C84.0879 39.764 88.9579 44.6308 94.961 44.6308C100.967 44.6308 105.834 39.764 105.834 33.7585C105.834 27.7559 100.967 22.8863 94.961 22.8863Z" fill="#4BC5F1"/>
<path d="M80.9415 87.2614C74.9384 87.2614 70.0684 92.131 70.0684 98.1336C70.0684 104.139 74.9384 109.006 80.9415 109.006C86.9475 109.006 91.8146 104.139 91.8146 98.1336C91.8146 92.131 86.9475 87.2614 80.9415 87.2614Z" fill="#4BC5F1"/>
<path d="M48.2069 15.2271C48.4358 15.8279 48.5502 16.4288 48.4644 16.486C48.3786 16.5718 45.4028 17.8879 41.8547 19.4329C41.4255 19.616 39.268 20.5316 35.388 22.1796C34.3236 21.3899 33.7342 20.9493 33.614 20.8635C31.2391 19.061 29.0931 18.4316 25.917 18.6032C23.914 18.7177 23.1415 18.8893 21.6249 19.6332C18.363 21.264 16.0453 24.4113 15.3872 28.2166C14.6432 32.3938 17.0182 37.4293 20.7665 39.6324C21.4533 40.033 21.9969 40.4049 21.9969 40.4621C21.9969 40.548 15.4158 52.6791 15.0152 53.3657C14.9866 53.3944 14.0996 53.2799 13.0409 53.0796C7.66155 52.1641 2.36805 55.4257 0.565403 60.8332C-1.3517 66.5269 1.76717 72.9644 7.48987 75.0816C9.49282 75.8255 13.2984 75.8255 15.2155 75.0816C15.9881 74.7955 16.6462 74.5952 16.6748 74.6524C17.1326 75.196 27.7196 90.7319 27.7196 90.8463C27.7196 90.9322 27.176 91.5902 26.5465 92.3055C24.2288 94.9091 23.1128 98.5713 23.6851 101.661C24.6294 106.697 28.1774 110.302 33.1848 111.246C37.1907 112.047 41.9119 110.016 44.3441 106.497C45.3169 105.037 46.3184 102.262 46.3184 100.917C46.3184 100.86 46.3184 100.586 46.3184 100.088C53.3573 100.088 57.2688 100.088 58.0499 100.088C67.2063 100.088 69.8101 100.174 69.8959 100.431C71.4697 105.953 75.6759 109.243 81.0838 109.243C91.0699 109.243 96.1059 97.4555 89.2959 90.0166C88.8381 89.5016 88.695 89.1297 88.8381 88.8722C88.9811 88.6433 91.2702 85.8108 93.9313 82.5777C94.2517 82.1857 95.8541 80.2316 98.7383 76.7124C99.6311 77.1759 100.129 77.4334 100.226 77.4849C106.006 80.5749 113.016 78.286 115.906 72.3921C116.793 70.6183 116.851 70.3035 116.851 67.471C116.851 64.6385 116.793 64.3238 115.906 62.5499C113.932 58.5157 109.497 55.8263 105.148 56.0552C105.056 56.0609 104.587 56.0895 103.746 56.141C102.407 52.7077 101.663 50.7993 101.514 50.4188C100.255 47.3002 99.2534 44.5821 99.2534 44.4391C99.2534 44.2674 99.654 43.9813 100.112 43.781C101.743 43.0371 104.06 40.6338 105.033 38.631C105.92 36.8285 105.978 36.5138 105.978 33.7099C105.978 30.8774 105.92 30.5627 105.033 28.7888C103.86 26.3854 101.371 24.0107 99.0531 23.0952C97.7655 22.5802 96.8212 22.4371 94.8183 22.4371C91.6708 22.4371 89.6679 23.1238 87.3216 25.0407C87.2185 25.1237 86.7035 25.5443 85.7764 26.2996L77.6788 20.9493L69.5812 15.599C69.8044 14.8265 69.9303 14.3974 69.9532 14.3115C70.8116 11.5363 70.2393 7.93126 68.5797 5.32764C65.9759 1.17903 60.6538 -0.909579 56.047 0.377922C49.5803 2.20903 46.0036 8.96126 48.2069 15.2271ZM67.6927 17.3157C63.8299 22.9235 55.9611 23.4957 51.3544 18.5174C49.3228 16.3429 48.5216 14.2829 48.5216 11.3932C48.5216 6.64376 51.6405 2.55237 56.2759 1.20764C57.9069 0.749865 60.8254 0.892922 62.6281 1.52237C68.9231 3.72542 71.4697 11.7652 67.6927 17.3157ZM85.2042 27.0149C85.2328 27.0435 84.9466 27.816 84.546 28.6743C84.1455 29.5327 83.659 31.1921 83.4587 32.3366C83.4387 32.4768 83.3328 33.1834 83.144 34.4538C80.2941 34.1448 78.7117 33.9731 78.3941 33.9388C75.7903 33.6813 73.6157 33.4524 73.5871 33.4524C73.3582 33.3666 64.3449 21.9507 64.3449 21.7218C64.3449 21.5502 64.631 21.2927 64.9458 21.0924C65.9186 20.5774 68.0074 18.5746 68.6655 17.516C69.0089 16.9152 69.3809 16.629 69.5812 16.7435C69.7815 16.8579 73.3295 19.1754 77.5071 21.9221C81.6847 24.6688 85.1469 26.9577 85.2042 27.0149ZM50.6963 20.6918C50.4101 21.0352 48.5789 23.3527 46.6045 25.8132C46.367 26.1108 45.1739 27.61 43.0278 30.3052C41.6544 30.185 40.8933 30.1163 40.7388 30.1049C39.4798 30.0191 38.3638 29.876 38.278 29.8188C38.1922 29.7616 38.0205 29.0463 37.9346 28.2452C37.8202 27.4441 37.3624 25.9277 36.8759 24.8977C36.3895 23.8677 36.0461 22.9807 36.132 22.9235C36.3323 22.6946 48.7505 17.4302 49.0367 17.4302C49.2084 17.4302 49.752 18.031 50.2671 18.7177C51.1827 19.9765 51.1827 20.0338 50.6963 20.6918ZM35.5883 24.2682C38.0777 28.2452 37.5913 33.3952 34.3866 36.8571C28.4063 43.3518 18.0769 40.3477 16.2742 31.6213C15.9022 29.7902 16.0739 28.2738 16.8751 26.1566C17.9624 23.2668 19.8509 21.3213 22.7981 20.0624C24.2002 19.4902 24.7724 19.4043 27.0043 19.4902C28.8069 19.576 29.9801 19.7763 30.9243 20.2054C32.4695 20.8921 34.6727 22.8091 35.5883 24.2682ZM55.3603 22.8377C55.2744 23.0666 54.7308 25.0693 54.1585 27.2724C53.5576 29.4754 53.0712 31.3066 53.0426 31.3352C53.0426 31.3638 50.9824 31.1635 48.5216 30.906C48.2212 30.8717 46.7133 30.7114 44.0007 30.4196C46.3699 27.4669 47.6861 25.8247 47.9494 25.4985C50.124 22.7804 51.9553 20.606 52.0411 20.6346C52.1269 20.6632 52.9281 21.0924 53.8438 21.5502C54.9597 22.1224 55.4461 22.5229 55.3603 22.8377ZM72.0705 33.1949C72.0705 33.338 62.342 32.3652 62.1989 32.2221C62.0272 32.0504 59.7095 23.0666 59.824 22.9807C59.8812 22.9235 60.6251 22.6946 61.4836 22.4657C62.342 22.2368 63.0859 22.0366 63.1145 22.0079C63.1718 22.0079 65.2033 24.4685 67.6355 27.5299C70.0676 30.5627 72.0705 33.1091 72.0705 33.1949ZM61.1116 32.1649C60.9685 32.2507 54.3016 31.4782 54.1585 31.3352C54.044 31.2207 55.4175 25.7274 56.2187 23.0379C56.3331 22.6374 56.5906 22.5802 57.5635 22.7232C58.2216 22.8377 58.7653 22.9235 58.7939 22.9521C58.8797 23.0665 61.1402 32.1363 61.1116 32.1649ZM103.345 27.7874C107.208 33.4524 104.833 41.0057 98.4522 43.4663C91.6708 46.0699 84.3744 41.0057 84.3744 33.7099C84.3744 28.9891 87.6077 24.7546 92.1 23.5816C94.0457 23.0666 94.8183 23.0379 96.7354 23.4385C99.6254 24.0679 101.8 25.4985 103.345 27.7874ZM42.2553 31.2207L40.5385 33.3093L38.8217 35.3979C38.3066 35.1404 38.0205 34.9974 37.9633 34.9688C37.3624 34.6541 37.1621 34.3966 37.3051 34.0532C37.391 33.7957 37.6199 32.966 37.7916 32.1935C38.1635 30.7057 38.1349 30.7057 40.796 31.0204C40.9906 31.0462 41.477 31.112 42.2553 31.2207ZM52.5561 32.4224C52.7278 32.5941 50.639 40.6052 50.3243 40.9771C50.1526 41.1488 40.5671 36.4852 39.7945 35.8271C39.7373 35.7985 40.4812 34.7971 41.4827 33.5954C43.5143 31.0777 43.0278 31.2207 48.7219 31.8502C50.7535 32.0791 52.4703 32.3366 52.5561 32.4224ZM61.3977 33.2235C61.5122 33.3666 64.3735 44.3532 64.2877 44.4391C64.2305 44.4963 63.2004 44.8968 61.9986 45.3832C61.8555 45.4376 61.1287 45.7151 59.824 46.213C57.2144 44.8568 55.7666 44.1015 55.4747 43.9527C52.1269 42.1788 51.1827 41.578 51.2971 41.206C51.383 40.9485 51.898 38.9743 52.4703 36.8571C53.0426 34.7399 53.5576 32.8229 53.6148 32.6513C53.7007 32.4224 54.044 32.3366 54.5305 32.4224C54.9597 32.4796 56.6765 32.6799 58.3361 32.8802C59.9956 33.0518 61.3691 33.1949 61.3977 33.2235ZM75.0177 36.7141C76.0764 38.0302 76.9348 39.2318 76.9348 39.3463C76.9348 39.6324 65.4608 44.0957 65.2892 43.8955C65.1747 43.8096 62.5136 34.0818 62.342 33.2521C62.342 33.2521 64.488 33.481 67.149 33.7385C69.7815 34.0246 72.185 34.2821 72.4998 34.2821C72.8717 34.2821 73.7588 35.1691 75.0177 36.7141ZM83.4301 35.5124C83.4587 35.5696 83.5446 35.8843 83.5732 36.2277C83.659 36.7999 83.3157 37.0002 80.8549 37.9729C80.6718 38.0473 79.7447 38.4193 78.0794 39.0888C77.0493 37.8356 76.477 37.1375 76.3626 37.0002C75.4183 35.8557 74.6458 34.8257 74.6458 34.7399C74.6458 34.4824 75.218 34.5396 79.4814 34.9974C81.5988 35.2263 83.3729 35.4838 83.4301 35.5124ZM36.8759 37.8585C35.4453 39.6324 34.9874 39.8899 34.501 39.1174C34.3007 38.7741 34.5296 38.2877 35.4739 37.0574C36.1606 36.1705 36.7901 35.4266 36.8759 35.4266C36.9618 35.4552 37.3051 35.5982 37.6485 35.7985C38.2494 36.1418 38.2494 36.1704 36.8759 37.8585ZM49.9809 42.1788C50.124 42.2646 48.0352 50.0182 47.7205 50.6191C47.606 50.8766 46.8048 51.3344 45.975 51.6491C45.8777 51.6863 45.3799 51.878 44.4871 52.2213C42.1866 49.2 40.9104 47.5205 40.6529 47.1857C38.5355 44.4105 36.5898 41.8355 36.3037 41.4349C36.2693 41.3834 36.0862 41.1373 35.76 40.691C36.7386 39.455 37.2823 38.7683 37.391 38.631C38.278 37.4866 39.0506 36.571 39.0792 36.571C39.1364 36.571 41.5686 37.8013 44.5157 39.3463C47.4915 40.8627 49.9237 42.1216 49.9809 42.1788ZM85.4331 40.4621C84.4373 41.5608 83.8851 42.1702 83.7735 42.2932C82.8578 43.3232 82.0567 44.0671 81.9994 44.0099C81.9136 43.9241 81.141 42.9513 80.254 41.8641C78.8806 40.1474 78.7375 39.8327 79.1667 39.6324C80.9694 38.8599 83.6876 37.7441 83.8307 37.7441C83.9165 37.7155 84.3171 38.3449 84.7177 39.0888C84.815 39.2719 85.0525 39.7297 85.4331 40.4621ZM33.5854 41.9499C33.5224 42.03 33.2077 42.442 32.6411 43.1802C32.5038 42.2017 32.4294 41.6581 32.4122 41.5493C32.2406 40.1474 32.2978 39.8613 32.727 39.5466C33.2992 39.1174 33.8143 39.3749 34.3007 40.2905C34.4724 40.6338 34.3007 41.0916 33.5854 41.9499ZM31.6111 43.1516C31.7827 44.2388 31.2391 45.0113 23.2273 54.7963C23.0699 54.988 22.2773 55.9522 20.8524 57.686C19.9253 56.7933 19.4103 56.2955 19.3072 56.1982C18.4775 55.3685 17.3901 54.5388 16.8751 54.3385C16.3887 54.1096 15.9881 53.7949 15.9881 53.6232C15.9881 53.4516 17.5904 50.476 19.5075 46.9855C19.7422 46.562 20.9039 44.4562 22.9984 40.6624C23.5134 40.8169 23.7996 40.9027 23.8568 40.9199C25.2016 41.3205 28.6066 41.2346 29.8656 40.7768C31.468 40.2046 31.4394 40.176 31.4394 41.206C31.4394 41.721 31.5252 42.608 31.6111 43.1516ZM81.1697 44.8396C81.1124 44.9827 79.367 46.9282 77.2782 49.1313C77.0264 49.4002 75.756 50.745 73.4726 53.1655L70.0962 51.4488L66.6912 49.7607C66.3135 48.3359 66.1046 47.5434 66.0617 47.386C65.7184 46.0985 65.5467 44.9827 65.6611 44.9255C73.816 41.6352 77.1638 40.3477 77.5071 40.3191C77.736 40.3191 78.6803 41.2632 79.5959 42.4363C80.5115 43.6093 81.2269 44.6966 81.1697 44.8396ZM91.0699 45.2688C90.3832 48.0727 89.0384 52.2499 88.8667 52.2785C88.7522 52.3071 87.2643 50.6477 85.6047 48.5591C85.4045 48.3073 84.403 47.0598 82.6003 44.811L84.3457 43.0371L86.1198 41.2346C86.755 41.8183 87.1098 42.1416 87.1785 42.2074C87.7508 42.751 88.9239 43.4949 89.7251 43.9241C90.9841 44.5249 91.213 44.7538 91.0699 45.2688ZM43.2568 52.6219C43.0851 52.7935 39.9948 54.0238 33.5568 56.513C33.3279 56.5988 33.1848 55.2541 33.0417 52.2499C32.9273 49.8466 32.7842 47.1571 32.6984 46.2988C32.5267 44.7824 32.5839 44.668 33.7285 43.2088C34.3866 42.4077 35.0161 41.721 35.1305 41.721C35.2736 41.721 37.1907 44.1243 39.4225 47.0713C41.6544 49.9896 43.3712 52.5074 43.2568 52.6219ZM58.7367 46.6421C55.8352 47.7923 54.2243 48.4303 53.901 48.5591C51.2113 49.6177 49.0081 50.3902 48.9508 50.2471C48.865 50.0755 49.2656 48.4446 50.5246 44.0671C50.5532 43.9641 50.6963 43.4606 50.9538 42.5507C52.001 43.1344 52.5848 43.4577 52.6992 43.5235C53.6721 44.0671 55.4461 45.0113 56.6193 45.5835C56.9025 45.7237 57.6093 46.0756 58.7367 46.6421ZM102.687 56.1982C102.687 56.3699 102.172 56.656 101.571 56.8563C100.198 57.2569 97.8799 58.9735 96.7354 60.3755C96.681 60.4441 96.4035 60.7989 95.9056 61.4341C94.0686 59.1509 93.05 57.8806 92.844 57.6288C91.1844 55.5116 89.8109 53.566 89.8109 53.3085C89.8109 53.0224 90.0684 51.9352 90.3546 50.9052C90.6693 49.8752 91.1844 48.1013 91.5277 46.9568C91.5678 46.8195 91.7681 46.1328 92.1286 44.8968C93.193 44.9827 93.7853 45.0285 93.9027 45.0399C94.8755 45.1257 96.1917 45.0685 96.8212 44.9255C97.4507 44.7538 98.023 44.6393 98.1088 44.6107C98.1947 44.5821 99.2534 47.1285 100.484 50.2471C101.686 53.3371 102.687 56.0266 102.687 56.1982ZM65.4894 48.8166C65.4894 48.9596 64.488 48.5591 63.2862 47.9296C63.1374 47.8495 62.3935 47.4604 61.0543 46.7566C61.9128 46.3789 62.3906 46.1672 62.485 46.1271C63.2862 45.7552 64.0588 45.4691 64.2591 45.4691C64.4307 45.4405 64.8027 46.1271 65.0316 46.9855C65.2891 47.8438 65.4894 48.6449 65.4894 48.8166ZM88.5233 54.2813C88.4089 54.5388 88.0083 55.9407 87.5791 57.3999C87.1785 58.8591 86.7779 60.0035 86.6921 59.9749C86.5776 59.9177 83.7735 58.4871 80.4257 56.7991C74.9033 53.9666 74.3883 53.6519 74.703 53.1941C75.5614 51.9924 81.9708 45.5263 82.1425 45.698C82.2284 45.7838 83.7449 47.6721 85.5189 49.8466C87.6363 52.5074 88.6378 53.9952 88.5233 54.2813ZM32.355 57.028C29.4708 58.1438 27.8684 58.7618 27.5479 58.8877C24.9155 59.9177 22.655 60.776 22.5406 60.8332C22.2831 60.9477 21.3674 58.9163 21.4819 58.5444C21.5391 58.4299 23.8282 55.5116 26.5751 52.0782C26.9099 51.6605 28.578 49.5833 31.5824 45.841C31.6854 46.5277 31.7427 46.9082 31.7541 46.9855C31.8686 47.6435 32.0403 50.1613 32.1547 52.5932C32.1833 53.1826 32.2491 54.6618 32.355 57.028ZM65.9473 50.4188L67.006 54.5102L68.0933 58.6302C67.0632 59.7804 66.4909 60.4184 66.3765 60.5471C65.4322 61.6057 64.0015 63.1221 63.1431 63.9519C63.043 64.0491 62.5365 64.5355 61.6266 65.411L57.9069 65.2394L54.2157 65.0391L50.7535 60.4899L47.2913 55.9121L47.8635 53.7663L48.4644 51.6491C51.8122 50.3101 53.6721 49.5662 54.044 49.4174C57.1057 48.1871 59.6809 47.1857 59.7381 47.1857C59.7954 47.1571 61.1974 47.901 62.8856 48.788C63.2948 49.0054 64.3163 49.549 65.9473 50.4188ZM68.8372 57.7146C68.78 57.6574 68.3222 56.0838 67.8358 54.2527C67.7785 54.0295 67.4924 52.9137 66.9773 50.9052L69.8101 52.3357L72.6714 53.7663L72.0992 54.5388C70.0218 56.7705 68.9345 57.8291 68.8372 57.7146ZM45.8892 54.1669C45.5172 53.6805 45.2025 53.2227 45.1739 53.1368C45.1739 52.9938 46.6618 52.2499 47.3771 52.0496C47.4057 52.021 47.2913 52.5074 47.1482 53.0796C46.6331 55.0824 46.6331 55.0538 45.8892 54.1669ZM46.2326 56.4271C46.1753 56.5988 45.6031 58.6302 45.0022 60.9477C44.9278 61.2281 44.5558 62.6415 43.8862 65.1821H38.8503H33.8143C33.6941 63.6028 33.6283 62.7244 33.614 62.5499C33.5282 61.1194 33.4423 59.4027 33.4423 58.716C33.4423 58.6359 33.4423 58.2354 33.4423 57.5144C36.4982 56.3127 38.1979 55.6432 38.5355 55.5116C41.311 54.3957 43.7432 53.4802 43.9435 53.4802C44.1438 53.4516 44.7447 54.0524 45.3169 54.7963C45.8892 55.5402 46.2898 56.2841 46.2326 56.4271ZM21.7108 66.3552C21.1957 68.5869 20.2229 70.2749 18.6491 71.8199C13.0123 77.3133 3.7415 74.9958 1.39519 67.4996C0.365107 64.2952 0.822924 61.2052 2.74003 58.4013C3.82734 56.7991 4.85743 55.8835 6.74592 54.9107C9.60727 53.4516 12.9837 53.4516 15.8736 54.8821C20.1657 56.9994 22.7409 62.0349 21.7108 66.3552ZM85.3186 65.3252L78.0508 65.411L70.7829 65.4682C70.3022 63.6314 70.0361 62.61 69.9818 62.4069C69.5526 60.6902 69.2092 59.2024 69.2092 59.0594C69.2092 58.9449 70.1821 57.8005 71.4124 56.5702C71.5584 56.4185 72.2823 55.6661 73.5871 54.3099L80.0823 57.6288L86.5776 60.9477L85.9481 63.1507L85.3186 65.3252ZM95.2475 62.4641C95.2475 62.7216 95.1044 63.1794 94.9614 63.4941C94.6752 64.0091 94.4749 63.9232 91.213 62.2924C90.9841 62.178 89.8281 61.6057 87.7508 60.5757C87.8538 60.0436 87.911 59.746 87.9224 59.6888C88.18 58.3441 89.2387 54.8821 89.3817 54.8821C89.439 54.8821 90.7838 56.4844 92.3861 58.4585C93.9599 60.4041 95.2475 62.2066 95.2475 62.4641ZM114.333 61.5771C117.28 65.8688 116.507 71.9344 112.616 75.3391C110.498 77.1702 108.581 77.8855 105.548 77.9141C103.345 77.9141 102.916 77.8283 101.199 76.9699C98.7956 75.7969 96.6782 73.5366 95.7911 71.2477C94.9327 69.016 94.9327 65.926 95.7911 63.6944C96.4779 61.9205 98.4236 59.5744 99.9973 58.573C102.716 56.9135 106.235 56.5416 109.268 57.6002C111.014 58.201 113.16 59.8891 114.333 61.5771ZM53.2143 65.1821H49.0367H44.8305C44.9335 64.7015 44.9907 64.4325 45.0022 64.381C45.1166 63.9519 45.6031 62.1494 46.0895 60.3755C46.8048 57.8005 47.0337 57.1996 47.3199 57.5144C47.5202 57.7146 48.9222 59.5171 50.4387 61.5199C50.8107 62.0063 51.7349 63.228 53.2143 65.1821ZM32.7556 63.4369C32.7699 63.5513 32.8357 64.135 32.9559 65.1821H27.8913H22.8553C22.8553 64.6843 22.8553 64.4068 22.8553 64.3524C22.8553 63.8946 22.7695 63.1508 22.6836 62.6644C22.6722 62.6071 22.615 62.321 22.512 61.806C25.3104 60.6902 26.8669 60.0693 27.176 59.9463C29.7512 58.9163 32.0403 58.058 32.2406 58.058C32.4695 58.0294 32.5839 58.573 32.5839 59.8605C32.5839 60.8332 32.6698 62.4641 32.7556 63.4369ZM69.6956 65.3538C69.6384 65.4396 68.0933 65.4396 66.3192 65.411C66.1018 65.4053 65.0145 65.3767 63.0573 65.3252C64.5853 63.7287 65.4351 62.8418 65.6039 62.6644C67.006 61.2052 68.265 60.118 68.3794 60.2324C68.4939 60.3469 68.8658 61.5485 69.2092 62.8646C69.5239 64.1807 69.7529 65.2966 69.6956 65.3538ZM94.3891 65.2108C94.3891 65.3538 92.6437 65.4682 90.3832 65.4682C87.8652 65.4682 86.3773 65.3538 86.3773 65.1821C86.3773 64.7244 87.3216 61.4627 87.436 61.4627C87.5218 61.4627 89.0956 62.2352 90.9841 63.208C92.844 64.1521 94.3891 65.0677 94.3891 65.2108ZM33.1562 73.7655C32.87 73.7655 22.4833 68.9302 22.2258 68.6727C22.1114 68.5583 22.1686 67.9288 22.3689 67.2421C22.3918 67.162 22.4948 66.7615 22.6836 66.0405H27.7482H32.8128L32.9845 67.8144C33.2334 71.7799 33.2907 73.7655 33.1562 73.7655ZM40.5099 77.0844C40.4526 77.1702 39.022 76.5694 37.3624 75.7969C37.1621 75.7024 36.1606 75.2361 34.3579 74.3949C34.2549 72.6954 34.1977 71.7512 34.1863 71.5624C34.0718 70.0174 33.9574 68.1577 33.9001 67.3852C33.8944 67.2936 33.8658 66.8473 33.8143 66.0405C36.6985 66.0405 38.3009 66.0405 38.6214 66.0405C42.3125 66.0405 43.457 66.1263 43.457 66.3838C43.457 66.8416 40.6815 76.9127 40.5099 77.0844ZM54.0727 66.4124C54.9139 67.4939 55.3832 68.0948 55.4747 68.2149C56.2759 69.2163 56.9054 70.1319 56.9054 70.2749C56.9054 70.5324 47.8635 80.1458 47.4916 80.2888C47.1768 80.4033 41.4541 77.7424 41.4541 77.5135C41.4541 77.3133 44.2582 66.9846 44.4585 66.3838C44.6016 65.9833 46.8334 65.926 51.2685 66.2408C51.6434 66.2636 52.579 66.3209 54.0727 66.4124ZM57.7352 69.4738C57.6207 69.4738 57.0198 68.7585 56.3617 67.9002C56.2816 67.7943 55.881 67.2708 55.16 66.3266C56.8081 66.3266 57.7237 66.3266 57.9069 66.3266C59.3948 66.3266 60.6251 66.4124 60.6251 66.5269C60.6251 66.7844 57.9927 69.4738 57.7352 69.4738ZM73.1579 78.4577C72.6142 78.801 66.9773 81.2044 66.7771 81.2044C66.6054 81.2044 64.631 78.7438 62.342 75.7683C62.0673 75.402 60.6938 73.5824 58.2216 70.3035L60.1959 68.3294L62.1703 66.3266H66.0903H70.0104L70.3251 67.2421C72.2708 74.681 73.2151 78.4177 73.1579 78.4577ZM83.8593 70.4466C83.7906 70.6926 83.4358 71.9229 82.8006 74.1374C80.2254 75.2876 78.7947 75.9256 78.5086 76.0544C75.7045 77.3133 74.1593 77.8569 74.0449 77.6566C73.9304 77.4849 73.3295 75.2819 72.6714 72.7641C72.0419 70.2463 71.3838 67.7571 71.2408 67.2421C71.2236 67.1792 71.1263 66.8759 70.9546 66.3266C75.1608 66.3266 77.4985 66.3266 77.9649 66.3266C81.7991 66.3266 84.9466 66.4124 84.9466 66.5269C84.9466 66.6699 84.4602 68.4152 83.8593 70.4466ZM94.1602 67.843C94.1659 67.9145 94.1945 68.2779 94.246 68.9302C91.2588 70.2864 89.5992 71.0388 89.2673 71.1905C86.5204 72.4494 84.2027 73.4221 84.1455 73.3363C84.0024 73.2219 85.3186 68.358 85.8623 66.9274C85.8794 66.8816 85.9653 66.6528 86.1198 66.2408C88.4718 66.3781 89.7795 66.4525 90.0398 66.4696C92.1859 66.5841 93.9885 66.6985 94.0171 66.6985C94.0171 66.7271 94.103 67.2421 94.1602 67.843ZM33.3279 74.9958C33.3851 75.0244 33.5568 77.5708 33.6998 80.6321C33.8715 83.6935 34.0718 86.7263 34.1577 87.3844C34.1662 87.4588 34.2034 87.8421 34.2721 88.5288C33.2935 88.7348 32.7499 88.8493 32.6411 88.8722C31.7255 89.0724 30.4951 89.473 29.8656 89.7877C29.2075 90.131 28.6352 90.2455 28.4922 90.1024C28.3491 89.9594 25.8025 86.3258 22.8553 82.0341C22.4977 81.5134 20.7036 78.9212 17.476 74.2519C18.5576 73.1875 19.1585 72.5953 19.2786 72.478C20.2515 71.5052 21.1671 70.418 21.2816 70.0746C21.3674 69.7599 21.4819 69.4738 21.5391 69.4738C21.5677 69.4738 24.2288 70.7041 27.4335 72.1919C30.6382 73.7083 33.2993 74.9671 33.3279 74.9958ZM96.6782 74.4808C96.7669 74.5952 97.2047 75.1789 97.9944 76.226L92.9298 82.406L87.8366 88.5574C86.8924 88.0768 86.3687 87.8078 86.2629 87.7563C85.3758 87.3272 83.6876 86.8122 82.5145 86.6119C81.3413 86.4402 80.3685 86.1541 80.3685 86.011C80.3685 85.4388 83.5446 74.7669 83.7449 74.681C83.8593 74.6524 86.2056 73.5938 88.9525 72.3349C91.6994 71.076 94.103 70.046 94.246 70.046C94.4177 70.046 94.7324 70.6469 94.9327 71.3908C95.1616 72.106 95.9342 73.508 96.6782 74.4808ZM65.8042 81.7766C64.8084 82.2229 64.2562 82.469 64.1446 82.5205C58.7653 84.9238 57.9927 85.2385 57.5063 85.0669C56.6479 84.8094 48.5789 80.9755 48.5216 80.8324C48.493 80.7466 50.5246 78.5435 53.014 75.9113C57.3632 71.3621 57.5921 71.1619 58.0499 71.6769C58.3075 71.963 60.1673 74.3377 62.1703 76.9699C62.6567 77.6108 63.8671 79.213 65.8042 81.7766ZM40.2237 78.1716C40.2523 78.2002 39.6514 80.6035 38.8789 83.4933C38.0777 86.4116 37.4482 88.7863 37.4482 88.7863C37.4482 88.7863 36.9332 88.7577 36.3323 88.7005C36.2579 88.6919 35.8859 88.6547 35.2164 88.586C35.1133 87.5389 35.0561 86.9552 35.0447 86.8408C34.9588 85.868 34.8158 83.4647 34.7299 81.4905C34.6441 79.5163 34.501 77.3705 34.4152 76.6838C34.3293 76.0258 34.3293 75.4821 34.3866 75.4821C34.4724 75.4821 35.7886 76.083 37.3338 76.7983C38.9075 77.5135 40.1951 78.143 40.2237 78.1716ZM81.2269 79.6308C79.0809 87.2127 79.3956 86.526 77.9363 86.9266C77.221 87.1269 76.5915 87.2413 76.5343 87.1841C76.2767 86.898 74.3596 79.1158 74.5027 78.9441C74.7888 78.658 81.6275 75.5394 82.0281 75.5107C82.257 75.4821 82.3428 75.6824 82.257 75.9685C82.1711 76.2546 81.7133 77.8855 81.2269 79.6308ZM46.5473 81.2616C46.347 81.8052 39.0792 89.2155 38.7072 89.2155C38.4783 89.2155 38.3066 89.1583 38.3066 89.0724C38.3066 88.9294 40.8246 79.5735 41.0535 78.9727C41.1107 78.7438 41.2824 78.6294 41.3969 78.6866C41.5399 78.7438 42.7703 79.2874 44.1152 79.9169C45.4886 80.5177 46.5759 81.1472 46.5473 81.2616ZM75.6759 87.7277L74.331 88.7291L72.9576 89.7305L70.0962 85.9824L67.2063 82.2058C68.8887 81.3989 69.8244 80.9497 70.0104 80.861C71.5269 80.1171 72.9576 79.5449 73.1865 79.5735C73.444 79.6021 73.959 81.0327 74.6458 83.6649C74.7831 84.2057 75.1265 85.559 75.6759 87.7277ZM56.5906 85.8966C56.5334 85.9252 53.529 87.2985 49.9237 88.9294C43.8862 91.6474 43.314 91.8477 42.7417 91.4758C42.3983 91.2469 41.6544 90.7605 41.0821 90.4172C41.0134 90.3714 40.6586 90.1425 40.0234 89.7305C40.3496 89.3185 40.5327 89.0896 40.5671 89.0438C40.8818 88.6433 42.5986 86.8121 44.3727 84.9524C44.5901 84.7293 45.666 83.6134 47.606 81.6049C48.4644 81.9826 48.9423 82.1914 49.0367 82.2344C49.8379 82.5777 51.8694 83.5219 53.5862 84.323C55.303 85.1241 56.6479 85.8394 56.5906 85.8966ZM71.9847 90.9608C71.7844 91.2755 71.4983 91.4758 71.298 91.4472C70.2965 91.2183 59.2517 85.8966 59.4234 85.7249C59.7095 85.4388 65.8614 82.6635 66.2048 82.6635C66.3765 82.6635 67.8071 84.4088 69.4095 86.526C71.9847 89.9594 72.2995 90.4744 71.9847 90.9608ZM70.6971 92.3341C70.8116 92.4486 70.6685 93.2211 70.3251 94.0508C70.0104 94.9091 69.7242 96.3969 69.6956 97.3983C69.6928 97.5184 69.6727 98.1307 69.6384 99.2294H58.0499H46.4329C46.2268 98.2337 46.1124 97.6787 46.0895 97.5699C45.8892 96.6544 45.3169 95.1666 44.7733 94.2797C44.7075 94.1709 44.3727 93.6273 43.7718 92.6488C44.5787 92.3055 45.0279 92.1138 45.1166 92.0766C45.8606 91.7333 48.9795 90.3313 52.0411 88.9294C55.1027 87.5274 57.7066 86.383 57.7924 86.383C57.8783 86.3544 60.7682 87.6419 64.2305 89.2441C67.6641 90.8177 70.5827 92.2197 70.6971 92.3341ZM90.6407 93.7647C91.2702 95.138 91.3847 95.7674 91.3847 97.9419C91.3847 100.288 91.2988 100.717 90.469 102.405C89.3531 104.665 87.5505 106.411 85.29 107.469C83.8879 108.127 83.287 108.242 81.0838 108.242C78.852 108.242 78.2797 108.127 76.7918 107.441C73.959 106.125 72.0705 103.979 71.0691 100.975C70.411 99.0005 70.5827 95.653 71.4411 93.736C72.0706 92.3341 73.8732 90.1597 75.2753 89.1869C77.5071 87.5847 81.513 87.041 84.2599 87.9852C87.1213 88.958 89.2959 90.9036 90.6407 93.7647ZM44.4013 95.4813C45.2311 97.198 45.3169 97.5986 45.3169 100.088C45.3169 102.462 45.2311 103.006 44.5444 104.408C42.427 108.671 37.6485 111.246 33.3565 110.388C30.8671 109.901 29.2075 109.043 27.5765 107.384C22.0541 101.862 24.1143 92.7919 31.4966 90.0452C33.6712 89.2441 36.9904 89.4158 39.2222 90.4172C41.4827 91.4472 43.2854 93.2211 44.4013 95.4813Z" fill="black"/>
<path d="M55.7607 14.5404C56.1899 14.5404 56.4303 14.5404 56.4761 14.5404C57.1628 14.5404 57.1914 14.4832 57.1914 12.509C57.1914 12.3745 57.1914 11.7079 57.1914 10.5062C58.2558 11.7079 58.8481 12.3745 58.9655 12.509C60.5392 14.2829 60.8826 14.5404 61.741 14.5404C61.8096 14.5404 62.1416 14.5404 62.7424 14.5404C62.2446 13.9739 61.9699 13.6592 61.9126 13.5962C61.4262 13.1099 60.5392 12.1371 59.9383 11.4504C59.8639 11.3703 59.4805 10.9697 58.7938 10.2487L60.625 8.38901L62.4563 6.52929C61.8554 6.52929 61.5235 6.52929 61.4548 6.52929C60.5678 6.52929 60.1958 6.78679 58.8224 8.21734C58.7137 8.33179 58.17 8.90401 57.1914 9.93401C57.1914 8.90401 57.1914 8.33179 57.1914 8.21734C57.1914 6.61512 57.1628 6.52929 56.4761 6.52929C56.4303 6.52929 56.1899 6.52929 55.7607 6.52929V10.5348V14.5404Z" fill="black"/>
<path d="M22.8555 33.7099H23.5708H24.2861V30.6199V27.5585C25.4879 29.3953 26.1575 30.4139 26.2891 30.6199C28.0917 33.4238 28.3493 33.7099 29.1504 33.7099C29.2077 33.7099 29.4938 33.7099 30.0088 33.7099V29.7043V25.6987H29.2935H28.5782V28.6171V31.564C27.4107 29.813 26.7641 28.8402 26.6325 28.6457C24.8584 25.9276 24.6581 25.6987 23.7997 25.6987C23.7368 25.6987 23.422 25.6987 22.8555 25.6987V29.7043V33.7099Z" fill="black"/>
<path d="M90.7553 36.4566C90.6409 36.7427 90.8412 36.8572 91.442 36.8572C92.1288 36.8572 92.3863 36.6569 92.7583 35.8558C93.2161 34.883 93.3019 34.8544 94.8184 34.8544C96.3922 34.8544 96.4208 34.883 96.85 35.8558C97.1934 36.6855 97.3937 36.8572 98.1376 36.8572C98.7385 36.8572 98.9674 36.7427 98.8816 36.4852C98.7957 36.3136 97.9945 34.4252 97.0789 32.3366C94.8757 27.2724 94.7612 27.2438 92.558 32.308C91.6423 34.368 90.8412 36.2277 90.7553 36.4566ZM94.704 33.7099C94.6296 33.7099 94.2576 33.7099 93.5881 33.7099L94.1889 32.1077L94.7612 30.5341C95.0874 31.3581 95.2705 31.8159 95.3049 31.9074C95.591 32.6513 95.8199 33.3666 95.8199 33.481C95.8199 33.6241 95.3335 33.7099 94.704 33.7099Z" fill="black"/>
<path d="M7.51846 64.9533C7.45551 65.102 7.14077 65.8459 6.57422 67.1849C7.05493 67.1849 7.32389 67.1849 7.3754 67.1849C8.03351 67.1849 8.26241 67.0133 8.51994 66.3266C8.80607 65.4969 8.8633 65.4683 10.5229 65.4683C12.1539 65.4683 12.2683 65.5255 12.6975 66.3266C13.0123 66.9274 13.3556 67.1849 13.842 67.1849C14.2426 67.1849 14.5574 67.0991 14.5288 66.956C14.5288 66.8416 13.7848 65.0677 12.8978 63.0363C10.8949 58.4585 10.4657 58.201 9.26389 60.9477C8.83468 61.9491 8.06212 63.7516 7.51846 64.9533ZM10.5229 64.3238C9.23527 64.3238 9.23527 64.2952 10.1795 62.0349C10.2081 61.9663 10.3512 61.6344 10.6087 61.0335C10.9349 61.8919 11.118 62.3668 11.1524 62.4641C11.4385 63.2366 11.696 63.9805 11.696 64.0949C11.696 64.238 11.181 64.3238 10.5229 64.3238Z" fill="black"/>
<path d="M104.117 71.1905C105.491 71.1905 106.255 71.1905 106.406 71.1905C108.495 71.1905 108.695 71.1332 108.695 70.6182C108.695 70.1605 108.466 70.0746 107.064 69.9888C106.956 69.9831 106.401 69.9545 105.405 69.903C105.353 67.8773 105.325 66.75 105.319 66.5268C105.262 63.4082 105.205 63.1793 104.689 63.1793C104.146 63.1793 104.117 63.3796 104.117 67.1849C104.117 67.7171 104.117 69.0532 104.117 71.1905Z" fill="black"/>
<path d="M79.7969 101.804H80.5122H81.2276V97.7988V93.7932H80.5122H79.7969V97.7988V101.804Z" fill="black"/>
<path d="M31.7256 103.235C32.1548 103.235 32.3951 103.235 32.4409 103.235C33.1276 103.235 33.1563 103.149 33.1563 101.518C33.1563 101.404 33.1563 100.832 33.1563 99.8016H35.0161H36.876C36.876 100.832 36.876 101.404 36.876 101.518C36.876 103.149 36.9046 103.235 37.5914 103.235C37.64 103.235 37.8775 103.235 38.3067 103.235V99.2294V95.2238C37.8775 95.2238 37.64 95.2238 37.5914 95.2238C36.9046 95.2238 36.876 95.3096 36.876 96.7974C36.876 96.9004 36.876 97.4269 36.876 98.371H35.0161H33.1563C33.1563 97.4269 33.1563 96.9004 33.1563 96.7974C33.1563 95.3096 33.1276 95.2238 32.4409 95.2238C32.3951 95.2238 32.1548 95.2238 31.7256 95.2238V99.2294V103.235Z" fill="black"/>
<path d="M218.001 40.9113C218.001 53.7863 218.001 60.9391 218.001 62.3697C166.668 62.3697 138.152 62.3697 132.446 62.3697C132.446 49.4946 132.446 42.3419 132.446 40.9113C183.779 40.9113 212.298 40.9113 218.001 40.9113Z" fill="#4BC5F1"/>
<path d="M181.168 67.2679C181.168 79.6279 181.168 86.4946 181.168 87.8679C151.811 87.8679 135.501 87.8679 132.239 87.8679C132.239 75.5079 132.239 68.6413 132.239 67.2679C161.597 67.2679 177.906 67.2679 181.168 67.2679Z" fill="#4BC5F1"/>
<path d="M131.91 87.6876H156.375H180.839V76.9585V66.2293H156.375H131.91V76.9585V87.6876ZM176.347 72.2663C175.861 72.7526 175.66 72.8099 175.174 72.5524C174.23 72.0374 172.684 72.1804 172.141 72.7813C171.197 73.8113 172.055 74.784 174.544 75.5279C177.205 76.329 177.921 79.1043 175.975 80.964C174.859 82.0226 172.484 82.2801 170.796 81.5363C169.537 80.964 169.422 80.5635 170.224 79.8482C170.739 79.3618 170.853 79.3618 171.454 79.791C172.999 80.8782 175.403 79.9627 175.002 78.4177C174.859 77.874 174.401 77.5593 172.827 76.9585C170.51 76.0715 169.823 75.299 169.852 73.611C169.909 72.4093 170.252 71.8371 171.54 71.036C172.656 70.3207 175.717 70.4351 176.461 71.179C176.919 71.6368 176.919 71.694 176.347 72.2663ZM137.633 79.9626H139.922H142.211V80.821V81.6793H138.92H135.63V76.2432V70.8071H136.631H137.633V75.3849V79.9626ZM155.001 80.7351C155.027 80.7981 155.15 81.1128 155.373 81.6793C154.721 81.6793 154.357 81.6793 154.286 81.6793C153.284 81.6793 153.17 81.5935 152.769 80.449C152.738 80.3689 152.586 79.9684 152.312 79.2474H149.794H147.276C147.001 79.9684 146.849 80.3689 146.818 80.449C146.417 81.5935 146.303 81.6793 145.33 81.6793C145.258 81.6793 144.906 81.6793 144.271 81.6793C145.61 78.5893 146.354 76.8726 146.503 76.5293C147.733 73.6968 148.849 71.2363 148.935 71.0932C149.021 70.9215 149.479 70.8071 149.908 70.8071C150.681 70.8071 150.824 71.0074 152.655 75.299C153.742 77.7882 154.772 80.2488 155.001 80.7351ZM165.96 73.4107C165.96 74.5265 165.216 75.671 164.472 75.671C164.272 75.671 164.501 75.9285 165.016 76.2432C166.761 77.3018 167.048 79.0757 165.703 80.5921C165.648 80.655 165.371 80.9698 164.873 81.5363L161.554 81.6221L158.235 81.7365V76.2718V70.8071C160.02 70.8071 161.013 70.8071 161.21 70.8071C164.015 70.8071 164.243 70.8643 165.073 71.551C165.789 72.1518 165.96 72.4951 165.96 73.4107Z" fill="black"/>
<path d="M148.22 77.3304C148.22 77.5593 148.735 77.6737 149.793 77.6737C150.852 77.6737 151.367 77.5593 151.367 77.3304C151.367 76.9299 149.937 73.0959 149.793 73.0959C149.736 73.0959 149.364 73.9543 148.964 75.0415C148.563 76.1001 148.22 77.1301 148.22 77.3304Z" fill="black"/>
<path d="M159.909 74.7697C160.819 74.7697 161.326 74.7697 161.426 74.7697C162.599 74.7697 163.085 74.6267 163.457 74.2261C164.516 73.053 163.343 71.9086 161.025 71.9086C160.951 71.9086 160.579 71.9086 159.909 71.9086V73.3392V74.7697Z" fill="black"/>
<path d="M159.909 79.977C160.922 79.9084 161.486 79.8712 161.597 79.8626C163.629 79.7195 164.201 79.319 164.201 78.0315C164.201 76.8584 163.514 76.4865 161.311 76.4865C161.22 76.4865 160.75 76.4865 159.909 76.4865V78.2317V79.977Z" fill="black"/>
<path d="M136.737 58.3155H137.739H138.712L138.797 55.7977L138.883 53.3085L141.373 53.2227L143.862 53.1368L143.948 55.6546L144.034 58.1724H145.035H146.037V52.5932V47.0141H145.035H144.034L143.948 49.2171L143.862 51.4488H141.315H138.74V49.1599V46.871H137.739H136.737V52.5932V58.3155Z" fill="black"/>
<path d="M149.041 58.0866C149.041 58.2296 149.499 58.3155 150.042 58.3155C150.987 58.3155 151.101 58.201 151.616 57.028C151.653 56.9421 151.834 56.513 152.16 55.7405H154.592H156.996C157.305 56.513 157.476 56.9421 157.511 57.028C157.968 58.2582 158.054 58.3155 159.084 58.3155C159.714 58.3155 160.2 58.2296 160.2 58.1152C160.2 57.9721 159.142 55.3971 157.854 52.3929C155.536 46.9568 155.479 46.871 154.621 46.871C153.762 46.871 153.705 46.9568 151.387 52.3643C150.1 55.3971 149.041 57.9721 149.041 58.0866ZM153.161 53.6518C153.076 53.5946 153.276 52.9079 153.562 52.1354C153.848 51.3629 154.191 50.476 154.306 50.1613C154.478 49.7035 154.678 49.961 155.336 51.5918C155.39 51.7235 155.656 52.393 156.137 53.5946L154.706 53.6804C153.716 53.6976 153.201 53.689 153.161 53.6518Z" fill="black"/>
<path d="M163.062 58.3155H164.063H165.064V53.9666V49.6463L167.869 53.9666L170.644 58.3155H171.874H173.076V52.5932V46.871H172.075H171.102L171.016 50.9052L170.93 54.9393L168.298 50.9052L165.665 46.871H164.349H163.062V52.5932V58.3155Z" fill="black"/>
<path d="M177.139 52.8793C177.145 53.2313 177.173 54.9966 177.225 58.1724H178.226H179.228L179.371 55.5688L179.514 52.9652C180.939 54.5617 181.732 55.4486 181.889 55.626C184.235 58.2582 184.293 58.3155 185.552 58.3155C186.238 58.3155 186.811 58.2296 186.811 58.1438C186.811 58.0293 185.666 56.6846 184.235 55.1396C182.833 53.6232 181.66 52.2213 181.66 52.0782C181.66 51.9066 182.747 50.7621 184.092 49.5604C185.437 48.3302 186.524 47.2143 186.524 47.0999C186.524 46.9854 185.981 46.871 185.294 46.871C184.149 46.871 183.949 47.0141 181.803 49.1599C181.652 49.3144 180.888 50.0869 179.514 51.4774L179.371 49.2457L179.228 47.0141C178.661 46.9626 178.347 46.934 178.284 46.9282C177.711 46.871 177.311 46.9855 177.225 47.2143C177.139 47.4432 177.111 49.9896 177.139 52.8793Z" fill="black"/>
<path d="M188.527 58.0866C188.527 58.2296 188.985 58.3155 189.528 58.3155C190.473 58.3155 190.587 58.201 191.102 57.028C191.139 56.9421 191.32 56.513 191.646 55.7405H194.078H196.481C196.79 56.513 196.962 56.9421 196.996 57.028C197.454 58.2582 197.54 58.3155 198.57 58.3155C199.2 58.3155 199.686 58.2296 199.686 58.1152C199.686 57.9721 198.627 55.3971 197.34 52.3929C195.022 46.9568 194.965 46.871 194.106 46.871C193.248 46.871 193.191 46.9568 190.873 52.3643C189.586 55.3971 188.527 57.9721 188.527 58.0866ZM192.647 53.6518C192.561 53.5946 192.762 52.9079 193.048 52.1354C193.334 51.3629 193.677 50.476 193.792 50.1613C193.963 49.7035 194.164 49.961 194.822 51.5918C194.876 51.7235 195.142 52.393 195.623 53.5946L194.192 53.6804C193.202 53.6976 192.687 53.689 192.647 53.6518Z" fill="black"/>
<path d="M202.548 58.3441L205.925 58.2582L209.273 58.1724L209.358 57.2282L209.444 56.3127H207.012H204.551V51.5918V46.871H203.55H202.548V52.5932V58.3441Z" fill="black"/>
<path d="M212.277 58.3155H213.278H214.28V52.5932V46.871H213.278H212.277V52.5932V58.3155Z" fill="black"/>
</svg>
