<?xml version="1.0" encoding="UTF-8" standalone="no"?>
<!DOCTYPE svg PUBLIC "-//W3C//DTD SVG 1.1//EN" "http://www.w3.org/Graphics/SVG/1.1/DTD/svg11.dtd">
<svg version="1.1" xmlns="http://www.w3.org/2000/svg" xmlns:xlink="http://www.w3.org/1999/xlink" preserveAspectRatio="xMidYMid meet" viewBox="0 0 900 900" width="900" height="900"><defs><path d="M-95.64 -369.65C-95.64 -369.65 -95.64 -369.65 -95.64 -369.65C-95.64 218.35 -95.64 545.02 -95.64 610.35C-95.64 610.35 -95.64 610.35 -95.64 610.35C-461.64 610.35 -664.97 610.35 -705.64 610.35C-705.64 610.35 -705.64 610.35 -705.64 610.35C-705.64 22.35 -705.64 -304.32 -705.64 -369.65C-705.64 -369.65 -705.64 -369.65 -705.64 -369.65C-339.64 -369.65 -136.31 -369.65 -95.64 -369.65Z" id="a1uwZ2AojT"></path><path d="M416.34 341.11C395.36 341.11 378.34 358.13 378.34 379.11C378.34 400.1 395.36 417.11 416.34 417.11C437.33 417.11 454.34 400.1 454.34 379.11C454.34 358.13 437.33 341.11 416.34 341.11Z" id="fDvNu8Oon"></path><path d="M367.34 566.11C346.36 566.11 329.34 583.13 329.34 604.11C329.34 625.1 346.36 642.11 367.34 642.11C388.33 642.11 405.34 625.1 405.34 604.11C405.34 583.13 388.33 566.11 367.34 566.11Z" id="f8A5pWAVVQ"></path><path d="M252.94 314.34C253.74 316.44 254.14 318.54 253.84 318.74C253.54 319.04 243.14 323.64 230.74 329.04C229.24 329.68 221.7 332.88 208.14 338.64C204.42 335.88 202.36 334.34 201.94 334.04C193.64 327.74 186.14 325.54 175.04 326.14C168.04 326.54 165.34 327.14 160.04 329.74C148.64 335.44 140.54 346.44 138.24 359.74C135.64 374.34 143.94 391.94 157.04 399.64C159.44 401.04 161.34 402.34 161.34 402.54C161.34 402.84 138.34 445.24 136.94 447.64C136.84 447.74 133.74 447.34 130.04 446.64C111.24 443.44 92.74 454.84 86.44 473.74C79.74 493.64 90.64 516.14 110.64 523.54C117.64 526.14 130.94 526.14 137.64 523.54C140.34 522.54 142.64 521.84 142.74 522.04C144.34 523.94 181.34 578.24 181.34 578.64C181.34 578.94 179.44 581.24 177.24 583.74C169.14 592.84 165.24 605.64 167.24 616.44C170.54 634.04 182.94 646.64 200.44 649.94C214.44 652.74 230.94 645.64 239.44 633.34C242.84 628.24 246.34 618.54 246.34 613.84C246.34 613.64 246.34 612.68 246.34 610.94C270.94 610.94 284.61 610.94 287.34 610.94C319.34 610.94 328.44 611.24 328.74 612.14C334.24 631.44 348.94 642.94 367.84 642.94C402.74 642.94 420.34 601.74 396.54 575.74C394.94 573.94 394.44 572.64 394.94 571.74C395.44 570.94 403.44 561.04 412.74 549.74C413.86 548.37 419.46 541.54 429.54 529.24C432.66 530.86 434.4 531.76 434.74 531.94C454.94 542.74 479.44 534.74 489.54 514.14C492.64 507.94 492.84 506.84 492.84 496.94C492.84 487.04 492.64 485.94 489.54 479.74C482.64 465.64 467.14 456.24 451.94 457.04C451.62 457.06 449.98 457.16 447.04 457.34C442.36 445.34 439.76 438.67 439.24 437.34C434.84 426.44 431.34 416.94 431.34 416.44C431.34 415.84 432.74 414.84 434.34 414.14C440.04 411.54 448.14 403.14 451.54 396.14C454.64 389.84 454.84 388.74 454.84 378.94C454.84 369.04 454.64 367.94 451.54 361.74C447.44 353.34 438.74 345.04 430.64 341.84C426.14 340.04 422.84 339.54 415.84 339.54C404.84 339.54 397.84 341.94 389.64 348.64C389.28 348.93 387.48 350.4 384.24 353.04L355.94 334.34L327.64 315.64C328.42 312.94 328.86 311.44 328.94 311.14C331.94 301.44 329.94 288.84 324.14 279.74C315.04 265.24 296.44 257.94 280.34 262.44C257.74 268.84 245.24 292.44 252.94 314.34ZM321.04 321.64C307.54 341.24 280.04 343.24 263.94 325.84C256.84 318.24 254.04 311.04 254.04 300.94C254.04 284.34 264.94 270.04 281.14 265.34C286.84 263.74 297.04 264.24 303.34 266.44C325.34 274.14 334.24 302.24 321.04 321.64ZM382.24 355.54C382.34 355.64 381.34 358.34 379.94 361.34C378.54 364.34 376.84 370.14 376.14 374.14C376.07 374.63 375.7 377.1 375.04 381.54C365.08 380.46 359.55 379.86 358.44 379.74C349.34 378.84 341.74 378.04 341.64 378.04C340.84 377.74 309.34 337.84 309.34 337.04C309.34 336.44 310.34 335.54 311.44 334.84C314.84 333.04 322.14 326.04 324.44 322.34C325.64 320.24 326.94 319.24 327.64 319.64C328.34 320.04 340.74 328.14 355.34 337.74C369.94 347.34 382.04 355.34 382.24 355.54ZM261.64 333.44C260.64 334.64 254.24 342.74 247.34 351.34C246.51 352.38 242.34 357.62 234.84 367.04C230.04 366.62 227.38 366.38 226.84 366.34C222.44 366.04 218.54 365.54 218.24 365.34C217.94 365.14 217.34 362.64 217.04 359.84C216.64 357.04 215.04 351.74 213.34 348.14C211.64 344.54 210.44 341.44 210.74 341.24C211.44 340.44 254.84 322.04 255.84 322.04C256.44 322.04 258.34 324.14 260.14 326.54C263.34 330.94 263.34 331.14 261.64 333.44ZM208.84 345.94C217.54 359.84 215.84 377.84 204.64 389.94C183.74 412.64 147.64 402.14 141.34 371.64C140.04 365.24 140.64 359.94 143.44 352.54C147.24 342.44 153.84 335.64 164.14 331.24C169.04 329.24 171.04 328.94 178.84 329.24C185.14 329.54 189.24 330.24 192.54 331.74C197.94 334.14 205.64 340.84 208.84 345.94ZM277.94 340.94C277.64 341.74 275.74 348.74 273.74 356.44C271.64 364.14 269.94 370.54 269.84 370.64C269.84 370.74 262.64 370.04 254.04 369.14C252.99 369.02 247.72 368.46 238.24 367.44C246.52 357.12 251.12 351.38 252.04 350.24C259.64 340.74 266.04 333.14 266.34 333.24C266.64 333.34 269.44 334.84 272.64 336.44C276.54 338.44 278.24 339.84 277.94 340.94ZM336.34 377.14C336.34 377.64 302.34 374.24 301.84 373.74C301.24 373.14 293.14 341.74 293.54 341.44C293.74 341.24 296.34 340.44 299.34 339.64C302.34 338.84 304.94 338.14 305.04 338.04C305.24 338.04 312.34 346.64 320.84 357.34C329.34 367.94 336.34 376.84 336.34 377.14ZM298.04 373.54C297.54 373.84 274.24 371.14 273.74 370.64C273.34 370.24 278.14 351.04 280.94 341.64C281.34 340.24 282.24 340.04 285.64 340.54C287.94 340.94 289.84 341.24 289.94 341.34C290.24 341.74 298.14 373.44 298.04 373.54ZM445.64 358.24C459.14 378.04 450.84 404.44 428.54 413.04C404.84 422.14 379.34 404.44 379.34 378.94C379.34 362.44 390.64 347.64 406.34 343.54C413.14 341.74 415.84 341.64 422.54 343.04C432.64 345.24 440.24 350.24 445.64 358.24ZM232.14 370.24L226.14 377.54L220.14 384.84C218.34 383.94 217.34 383.44 217.14 383.34C215.04 382.24 214.34 381.34 214.84 380.14C215.14 379.24 215.94 376.34 216.54 373.64C217.84 368.44 217.74 368.44 227.04 369.54C227.72 369.63 229.42 369.86 232.14 370.24ZM268.14 374.44C268.74 375.04 261.44 403.04 260.34 404.34C259.74 404.94 226.24 388.64 223.54 386.34C223.34 386.24 225.94 382.74 229.44 378.54C236.54 369.74 234.84 370.24 254.74 372.44C261.84 373.24 267.84 374.14 268.14 374.44ZM299.04 377.24C299.44 377.74 309.44 416.14 309.14 416.44C308.94 416.64 305.34 418.04 301.14 419.74C300.64 419.93 298.1 420.9 293.54 422.64C284.42 417.9 279.36 415.26 278.34 414.74C266.64 408.54 263.34 406.44 263.74 405.14C264.04 404.24 265.84 397.34 267.84 389.94C269.84 382.54 271.64 375.84 271.84 375.24C272.14 374.44 273.34 374.14 275.04 374.44C276.54 374.64 282.54 375.34 288.34 376.04C294.14 376.64 298.94 377.14 299.04 377.24ZM346.64 389.44C350.34 394.04 353.34 398.24 353.34 398.64C353.34 399.64 313.24 415.24 312.64 414.54C312.24 414.24 302.94 380.24 302.34 377.34C302.34 377.34 309.84 378.14 319.14 379.04C328.34 380.04 336.74 380.94 337.84 380.94C339.14 380.94 342.24 384.04 346.64 389.44ZM376.04 385.24C376.14 385.44 376.44 386.54 376.54 387.74C376.84 389.74 375.64 390.44 367.04 393.84C366.4 394.1 363.16 395.4 357.34 397.74C353.74 393.36 351.74 390.92 351.34 390.44C348.04 386.44 345.34 382.84 345.34 382.54C345.34 381.64 347.34 381.84 362.24 383.44C369.64 384.24 375.84 385.14 376.04 385.24ZM213.34 393.44C208.34 399.64 206.74 400.54 205.04 397.84C204.34 396.64 205.14 394.94 208.44 390.64C210.84 387.54 213.04 384.94 213.34 384.94C213.64 385.04 214.84 385.54 216.04 386.24C218.14 387.44 218.14 387.54 213.34 393.44ZM259.14 408.54C259.64 408.84 252.34 435.94 251.24 438.04C250.84 438.94 248.04 440.54 245.14 441.64C244.8 441.77 243.06 442.44 239.94 443.64C231.9 433.08 227.44 427.21 226.54 426.04C219.14 416.34 212.34 407.34 211.34 405.94C211.22 405.76 210.58 404.9 209.44 403.34C212.86 399.02 214.76 396.62 215.14 396.14C218.24 392.14 220.94 388.94 221.04 388.94C221.24 388.94 229.74 393.24 240.04 398.64C250.44 403.94 258.94 408.34 259.14 408.54ZM383.04 402.54C379.56 406.38 377.63 408.51 377.24 408.94C374.04 412.54 371.24 415.14 371.04 414.94C370.74 414.64 368.04 411.24 364.94 407.44C360.14 401.44 359.64 400.34 361.14 399.64C367.44 396.94 376.94 393.04 377.44 393.04C377.74 392.94 379.14 395.14 380.54 397.74C380.88 398.38 381.71 399.98 383.04 402.54ZM201.84 407.74C201.62 408.02 200.52 409.46 198.54 412.04C198.06 408.62 197.8 406.72 197.74 406.34C197.14 401.44 197.34 400.44 198.84 399.34C200.84 397.84 202.64 398.74 204.34 401.94C204.94 403.14 204.34 404.74 201.84 407.74ZM194.94 411.94C195.54 415.74 193.64 418.44 165.64 452.64C165.09 453.31 162.32 456.68 157.34 462.74C154.1 459.62 152.3 457.88 151.94 457.54C149.04 454.64 145.24 451.74 143.44 451.04C141.74 450.24 140.34 449.14 140.34 448.54C140.34 447.94 145.94 437.54 152.64 425.34C153.46 423.86 157.52 416.5 164.84 403.24C166.64 403.78 167.64 404.08 167.84 404.14C172.54 405.54 184.44 405.24 188.84 403.64C194.44 401.64 194.34 401.54 194.34 405.14C194.34 406.94 194.64 410.04 194.94 411.94ZM368.14 417.84C367.94 418.34 361.84 425.14 354.54 432.84C353.66 433.78 349.22 438.48 341.24 446.94L329.44 440.94L317.54 435.04C316.22 430.06 315.49 427.29 315.34 426.74C314.14 422.24 313.54 418.34 313.94 418.14C342.44 406.64 354.14 402.14 355.34 402.04C356.14 402.04 359.44 405.34 362.64 409.44C365.84 413.54 368.34 417.34 368.14 417.84ZM402.74 419.34C400.34 429.14 395.64 443.74 395.04 443.84C394.64 443.94 389.44 438.14 383.64 430.84C382.94 429.96 379.44 425.6 373.14 417.74L379.24 411.54L385.44 405.24C387.66 407.28 388.9 408.41 389.14 408.64C391.14 410.54 395.24 413.14 398.04 414.64C402.44 416.74 403.24 417.54 402.74 419.34ZM235.64 445.04C235.04 445.64 224.24 449.94 201.74 458.64C200.94 458.94 200.44 454.24 199.94 443.74C199.54 435.34 199.04 425.94 198.74 422.94C198.14 417.64 198.34 417.24 202.34 412.14C204.64 409.34 206.84 406.94 207.24 406.94C207.74 406.94 214.44 415.34 222.24 425.64C230.04 435.84 236.04 444.64 235.64 445.04ZM289.74 424.14C279.6 428.16 273.97 430.39 272.84 430.84C263.44 434.54 255.74 437.24 255.54 436.74C255.24 436.14 256.64 430.44 261.04 415.14C261.14 414.78 261.64 413.02 262.54 409.84C266.2 411.88 268.24 413.01 268.64 413.24C272.04 415.14 278.24 418.44 282.34 420.44C283.33 420.93 285.8 422.16 289.74 424.14ZM443.34 457.54C443.34 458.14 441.54 459.14 439.44 459.84C434.64 461.24 426.54 467.24 422.54 472.14C422.35 472.38 421.38 473.62 419.64 475.84C413.22 467.86 409.66 463.42 408.94 462.54C403.14 455.14 398.34 448.34 398.34 447.44C398.34 446.44 399.24 442.64 400.24 439.04C401.34 435.44 403.14 429.24 404.34 425.24C404.48 424.76 405.18 422.36 406.44 418.04C410.16 418.34 412.23 418.5 412.64 418.54C416.04 418.84 420.64 418.64 422.84 418.14C425.04 417.54 427.04 417.14 427.34 417.04C427.64 416.94 431.34 425.84 435.64 436.74C439.84 447.54 443.34 456.94 443.34 457.54ZM313.34 431.74C313.34 432.24 309.84 430.84 305.64 428.64C305.12 428.36 302.52 427 297.84 424.54C300.84 423.22 302.51 422.48 302.84 422.34C305.64 421.04 308.34 420.04 309.04 420.04C309.64 419.94 310.94 422.34 311.74 425.34C312.64 428.34 313.34 431.14 313.34 431.74ZM393.84 450.84C393.44 451.74 392.04 456.64 390.54 461.74C389.14 466.84 387.74 470.84 387.44 470.74C387.04 470.54 377.24 465.54 365.54 459.64C346.24 449.74 344.44 448.64 345.54 447.04C348.54 442.84 370.94 420.24 371.54 420.84C371.84 421.14 377.14 427.74 383.34 435.34C390.74 444.64 394.24 449.84 393.84 450.84ZM197.54 460.44C187.46 464.34 181.86 466.5 180.74 466.94C171.54 470.54 163.64 473.54 163.24 473.74C162.34 474.14 159.14 467.04 159.54 465.74C159.74 465.34 167.74 455.14 177.34 443.14C178.51 441.68 184.34 434.42 194.84 421.34C195.2 423.74 195.4 425.07 195.44 425.34C195.84 427.64 196.44 436.44 196.84 444.94C196.94 447 197.17 452.17 197.54 460.44ZM314.94 437.34L318.64 451.64L322.44 466.04C318.84 470.06 316.84 472.29 316.44 472.74C313.14 476.44 308.14 481.74 305.14 484.64C304.79 484.98 303.02 486.68 299.84 489.74L286.84 489.14L273.94 488.44L261.84 472.54L249.74 456.54L251.74 449.04L253.84 441.64C265.54 436.96 272.04 434.36 273.34 433.84C284.04 429.54 293.04 426.04 293.24 426.04C293.44 425.94 298.34 428.54 304.24 431.64C305.67 432.4 309.24 434.3 314.94 437.34ZM325.04 462.84C324.84 462.64 323.24 457.14 321.54 450.74C321.34 449.96 320.34 446.06 318.54 439.04L328.44 444.04L338.44 449.04L336.44 451.74C329.18 459.54 325.38 463.24 325.04 462.84ZM244.84 450.44C243.54 448.74 242.44 447.14 242.34 446.84C242.34 446.34 247.54 443.74 250.04 443.04C250.14 442.94 249.74 444.64 249.24 446.64C247.44 453.64 247.44 453.54 244.84 450.44ZM246.04 458.34C245.84 458.94 243.84 466.04 241.74 474.14C241.48 475.12 240.18 480.06 237.84 488.94L220.24 488.94L202.64 488.94C202.22 483.42 201.99 480.35 201.94 479.74C201.64 474.74 201.34 468.74 201.34 466.34C201.34 466.06 201.34 464.66 201.34 462.14C212.02 457.94 217.96 455.6 219.14 455.14C228.84 451.24 237.34 448.04 238.04 448.04C238.74 447.94 240.84 450.04 242.84 452.64C244.84 455.24 246.24 457.84 246.04 458.34ZM160.34 493.04C158.54 500.84 155.14 506.74 149.64 512.14C129.94 531.34 97.54 523.24 89.34 497.04C85.74 485.84 87.34 475.04 94.04 465.24C97.84 459.64 101.44 456.44 108.04 453.04C118.04 447.94 129.84 447.94 139.94 452.94C154.94 460.34 163.94 477.94 160.34 493.04ZM382.64 489.44L357.24 489.74L331.84 489.94C330.16 483.52 329.23 479.95 329.04 479.24C327.54 473.24 326.34 468.04 326.34 467.54C326.34 467.14 329.74 463.14 334.04 458.84C334.55 458.31 337.08 455.68 341.64 450.94L364.34 462.54L387.04 474.14L384.84 481.84L382.64 489.44ZM417.34 479.44C417.34 480.34 416.84 481.94 416.34 483.04C415.34 484.84 414.64 484.54 403.24 478.84C402.44 478.44 398.4 476.44 391.14 472.84C391.5 470.98 391.7 469.94 391.74 469.74C392.64 465.04 396.34 452.94 396.84 452.94C397.04 452.94 401.74 458.54 407.34 465.44C412.84 472.24 417.34 478.54 417.34 479.44ZM484.04 476.34C494.34 491.34 491.64 512.54 478.04 524.44C470.64 530.84 463.94 533.34 453.34 533.44C445.64 533.44 444.14 533.14 438.14 530.14C429.74 526.04 422.34 518.14 419.24 510.14C416.24 502.34 416.24 491.54 419.24 483.74C421.64 477.54 428.44 469.34 433.94 465.84C443.44 460.04 455.74 458.74 466.34 462.44C472.44 464.54 479.94 470.44 484.04 476.34ZM270.44 488.94L255.84 488.94L241.14 488.94C241.5 487.26 241.7 486.32 241.74 486.14C242.14 484.64 243.84 478.34 245.54 472.14C248.04 463.14 248.84 461.04 249.84 462.14C250.54 462.84 255.44 469.14 260.74 476.14C262.04 477.84 265.27 482.11 270.44 488.94ZM198.94 482.84C198.99 483.24 199.22 485.28 199.64 488.94L181.94 488.94L164.34 488.94C164.34 487.2 164.34 486.23 164.34 486.04C164.34 484.44 164.04 481.84 163.74 480.14C163.7 479.94 163.5 478.94 163.14 477.14C172.92 473.24 178.36 471.07 179.44 470.64C188.44 467.04 196.44 464.04 197.14 464.04C197.94 463.94 198.34 465.84 198.34 470.34C198.34 473.74 198.64 479.44 198.94 482.84ZM328.04 489.54C327.84 489.84 322.44 489.84 316.24 489.74C315.48 489.72 311.68 489.62 304.84 489.44C310.18 483.86 313.15 480.76 313.74 480.14C318.64 475.04 323.04 471.24 323.44 471.64C323.84 472.04 325.14 476.24 326.34 480.84C327.44 485.44 328.24 489.34 328.04 489.54ZM414.34 489.04C414.34 489.54 408.24 489.94 400.34 489.94C391.54 489.94 386.34 489.54 386.34 488.94C386.34 487.34 389.64 475.94 390.04 475.94C390.34 475.94 395.84 478.64 402.44 482.04C408.94 485.34 414.34 488.54 414.34 489.04ZM200.34 518.94C199.34 518.94 163.04 502.04 162.14 501.14C161.74 500.74 161.94 498.54 162.64 496.14C162.72 495.86 163.08 494.46 163.74 491.94L181.44 491.94L199.14 491.94L199.74 498.14C200.61 512 200.81 518.94 200.34 518.94ZM226.04 530.54C225.84 530.84 220.84 528.74 215.04 526.04C214.34 525.71 210.84 524.08 204.54 521.14C204.18 515.2 203.98 511.9 203.94 511.24C203.54 505.84 203.14 499.34 202.94 496.64C202.92 496.32 202.82 494.76 202.64 491.94C212.72 491.94 218.32 491.94 219.44 491.94C232.34 491.94 236.34 492.24 236.34 493.14C236.34 494.74 226.64 529.94 226.04 530.54ZM273.44 493.24C276.38 497.02 278.02 499.12 278.34 499.54C281.14 503.04 283.34 506.24 283.34 506.74C283.34 507.64 251.74 541.24 250.44 541.74C249.34 542.14 229.34 532.84 229.34 532.04C229.34 531.34 239.14 495.24 239.84 493.14C240.34 491.74 248.14 491.54 263.64 492.64C264.95 492.72 268.22 492.92 273.44 493.24ZM286.24 503.94C285.84 503.94 283.74 501.44 281.44 498.44C281.16 498.07 279.76 496.24 277.24 492.94C283 492.94 286.2 492.94 286.84 492.94C292.04 492.94 296.34 493.24 296.34 493.64C296.34 494.54 287.14 503.94 286.24 503.94ZM340.14 535.34C338.24 536.54 318.54 544.94 317.84 544.94C317.24 544.94 310.34 536.34 302.34 525.94C301.38 524.66 296.58 518.3 287.94 506.84L294.84 499.94L301.74 492.94L315.44 492.94L329.14 492.94L330.24 496.14C337.04 522.14 340.34 535.2 340.14 535.34ZM377.54 507.34C377.3 508.2 376.06 512.5 373.84 520.24C364.84 524.26 359.84 526.49 358.84 526.94C349.04 531.34 343.64 533.24 343.24 532.54C342.84 531.94 340.74 524.24 338.44 515.44C336.24 506.64 333.94 497.94 333.44 496.14C333.38 495.92 333.04 494.86 332.44 492.94C347.14 492.94 355.31 492.94 356.94 492.94C370.34 492.94 381.34 493.24 381.34 493.64C381.34 494.14 379.64 500.24 377.54 507.34ZM413.54 498.24C413.56 498.49 413.66 499.76 413.84 502.04C403.4 506.78 397.6 509.41 396.44 509.94C386.84 514.34 378.74 517.74 378.54 517.44C378.04 517.04 382.64 500.04 384.54 495.04C384.6 494.88 384.9 494.08 385.44 492.64C393.66 493.12 398.23 493.38 399.14 493.44C406.64 493.84 412.94 494.24 413.04 494.24C413.04 494.34 413.34 496.14 413.54 498.24ZM200.94 523.24C201.14 523.34 201.74 532.24 202.24 542.94C202.84 553.64 203.54 564.24 203.84 566.54C203.87 566.8 204 568.14 204.24 570.54C200.82 571.26 198.92 571.66 198.54 571.74C195.34 572.44 191.04 573.84 188.84 574.94C186.54 576.14 184.54 576.54 184.04 576.04C183.54 575.54 174.64 562.84 164.34 547.84C163.09 546.02 156.82 536.96 145.54 520.64C149.32 516.92 151.42 514.85 151.84 514.44C155.24 511.04 158.44 507.24 158.84 506.04C159.14 504.94 159.54 503.94 159.74 503.94C159.84 503.94 169.14 508.24 180.34 513.44C191.54 518.74 200.84 523.14 200.94 523.24ZM422.34 521.44C422.65 521.84 424.18 523.88 426.94 527.54L409.24 549.14L391.44 570.64C388.14 568.96 386.31 568.02 385.94 567.84C382.84 566.34 376.94 564.54 372.84 563.84C368.74 563.24 365.34 562.24 365.34 561.74C365.34 559.74 376.44 522.44 377.14 522.14C377.54 522.04 385.74 518.34 395.34 513.94C404.94 509.54 413.34 505.94 413.84 505.94C414.44 505.94 415.54 508.04 416.24 510.64C417.04 513.14 419.74 518.04 422.34 521.44ZM314.44 546.94C310.96 548.5 309.03 549.36 308.64 549.54C289.84 557.94 287.14 559.04 285.44 558.44C282.44 557.54 254.24 544.14 254.04 543.64C253.94 543.34 261.04 535.64 269.74 526.44C284.94 510.54 285.74 509.84 287.34 511.64C288.24 512.64 294.74 520.94 301.74 530.14C303.44 532.38 307.67 537.98 314.44 546.94ZM225.04 534.34C225.14 534.44 223.04 542.84 220.34 552.94C217.54 563.14 215.34 571.44 215.34 571.44C215.34 571.44 213.54 571.34 211.44 571.14C211.18 571.11 209.88 570.98 207.54 570.74C207.18 567.08 206.98 565.04 206.94 564.64C206.64 561.24 206.14 552.84 205.84 545.94C205.54 539.04 205.04 531.54 204.74 529.14C204.44 526.84 204.44 524.94 204.64 524.94C204.94 524.94 209.54 527.04 214.94 529.54C220.44 532.04 224.94 534.24 225.04 534.34ZM368.34 539.44C360.84 565.94 361.94 563.54 356.84 564.94C354.34 565.64 352.14 566.04 351.94 565.84C351.04 564.84 344.34 537.64 344.84 537.04C345.84 536.04 369.74 525.14 371.14 525.04C371.94 524.94 372.24 525.64 371.94 526.64C371.64 527.64 370.04 533.34 368.34 539.44ZM247.14 545.14C246.44 547.04 221.04 572.94 219.74 572.94C218.94 572.94 218.34 572.74 218.34 572.44C218.34 571.94 227.14 539.24 227.94 537.14C228.14 536.34 228.74 535.94 229.14 536.14C229.64 536.34 233.94 538.24 238.64 540.44C243.44 542.54 247.24 544.74 247.14 545.14ZM348.94 567.74L344.24 571.24L339.44 574.74L329.44 561.64L319.34 548.44C325.22 545.62 328.49 544.05 329.14 543.74C334.44 541.14 339.44 539.14 340.24 539.24C341.14 539.34 342.94 544.34 345.34 553.54C345.82 555.43 347.02 560.16 348.94 567.74ZM282.24 561.34C282.04 561.44 271.54 566.24 258.94 571.94C237.84 581.44 235.84 582.14 233.84 580.84C232.64 580.04 230.04 578.34 228.04 577.14C227.8 576.98 226.56 576.18 224.34 574.74C225.48 573.3 226.12 572.5 226.24 572.34C227.34 570.94 233.34 564.54 239.54 558.04C240.3 557.26 244.06 553.36 250.84 546.34C253.84 547.66 255.51 548.39 255.84 548.54C258.64 549.74 265.74 553.04 271.74 555.84C277.74 558.64 282.44 561.14 282.24 561.34ZM336.04 579.04C335.34 580.14 334.34 580.84 333.64 580.74C330.14 579.94 291.54 561.34 292.14 560.74C293.14 559.74 314.64 550.04 315.84 550.04C316.44 550.04 321.44 556.14 327.04 563.54C336.04 575.54 337.14 577.34 336.04 579.04ZM331.54 583.84C331.94 584.24 331.44 586.94 330.24 589.84C329.14 592.84 328.14 598.04 328.04 601.54C328.03 601.96 327.96 604.1 327.84 607.94L287.34 607.94L246.74 607.94C246.02 604.46 245.62 602.52 245.54 602.14C244.84 598.94 242.84 593.74 240.94 590.64C240.71 590.26 239.54 588.36 237.44 584.94C240.26 583.74 241.83 583.07 242.14 582.94C244.74 581.74 255.64 576.84 266.34 571.94C277.04 567.04 286.14 563.04 286.44 563.04C286.74 562.94 296.84 567.44 308.94 573.04C320.94 578.54 331.14 583.44 331.54 583.84ZM401.24 588.84C403.44 593.64 403.84 595.84 403.84 603.44C403.84 611.64 403.54 613.14 400.64 619.04C396.74 626.94 390.44 633.04 382.54 636.74C377.64 639.04 375.54 639.44 367.84 639.44C360.04 639.44 358.04 639.04 352.84 636.64C342.94 632.04 336.34 624.54 332.84 614.04C330.54 607.14 331.14 595.44 334.14 588.74C336.34 583.84 342.64 576.24 347.54 572.84C355.34 567.24 369.34 565.34 378.94 568.64C388.94 572.04 396.54 578.84 401.24 588.84ZM239.64 594.84C242.54 600.84 242.84 602.24 242.84 610.94C242.84 619.24 242.54 621.14 240.14 626.04C232.74 640.94 216.04 649.94 201.04 646.94C192.34 645.24 186.54 642.24 180.84 636.44C161.54 617.14 168.74 585.44 194.54 575.84C202.14 573.04 213.74 573.64 221.54 577.14C229.44 580.74 235.74 586.94 239.64 594.84Z" id="b2I7H1reob"></path><path d="M279.34 311.94C280.84 311.94 281.68 311.94 281.84 311.94C284.24 311.94 284.34 311.74 284.34 304.84C284.34 304.37 284.34 302.04 284.34 297.84C288.06 302.04 290.13 304.37 290.54 304.84C296.04 311.04 297.24 311.94 300.24 311.94C300.48 311.94 301.64 311.94 303.74 311.94C302 309.96 301.04 308.86 300.84 308.64C299.14 306.94 296.04 303.54 293.94 301.14C293.68 300.86 292.34 299.46 289.94 296.94L296.34 290.44L302.74 283.94C300.64 283.94 299.48 283.94 299.24 283.94C296.14 283.94 294.84 284.84 290.04 289.84C289.66 290.24 287.76 292.24 284.34 295.84C284.34 292.24 284.34 290.24 284.34 289.84C284.34 284.24 284.24 283.94 281.84 283.94C281.68 283.94 280.84 283.94 279.34 283.94L279.34 297.94L279.34 311.94Z" id="c1frDYgiEO"></path><path d="M164.34 378.94L166.84 378.94L169.34 378.94L169.34 368.14L169.34 357.44C173.54 363.86 175.88 367.42 176.34 368.14C182.64 377.94 183.54 378.94 186.34 378.94C186.54 378.94 187.54 378.94 189.34 378.94L189.34 364.94L189.34 350.94L186.84 350.94L184.34 350.94L184.34 361.14L184.34 371.44C180.26 365.32 178 361.92 177.54 361.24C171.34 351.74 170.64 350.94 167.64 350.94C167.42 350.94 166.32 350.94 164.34 350.94L164.34 364.94L164.34 378.94Z" id="c1cLcRgXGk"></path><path d="M401.64 388.54C401.24 389.54 401.94 389.94 404.04 389.94C406.44 389.94 407.34 389.24 408.64 386.44C410.24 383.04 410.54 382.94 415.84 382.94C421.34 382.94 421.44 383.04 422.94 386.44C424.14 389.34 424.84 389.94 427.44 389.94C429.54 389.94 430.34 389.54 430.04 388.64C429.74 388.04 426.94 381.44 423.74 374.14C416.04 356.44 415.64 356.34 407.94 374.04C404.74 381.24 401.94 387.74 401.64 388.54ZM415.44 378.94C415.18 378.94 413.88 378.94 411.54 378.94L413.64 373.34L415.64 367.84C416.78 370.72 417.42 372.32 417.54 372.64C418.54 375.24 419.34 377.74 419.34 378.14C419.34 378.64 417.64 378.94 415.44 378.94Z" id="bsDNE1m0W"></path><path d="M110.74 488.14C110.52 488.66 109.42 491.26 107.44 495.94C109.12 495.94 110.06 495.94 110.24 495.94C112.54 495.94 113.34 495.34 114.24 492.94C115.24 490.04 115.44 489.94 121.24 489.94C126.94 489.94 127.34 490.14 128.84 492.94C129.94 495.04 131.14 495.94 132.84 495.94C134.24 495.94 135.34 495.64 135.24 495.14C135.24 494.74 132.64 488.54 129.54 481.44C122.54 465.44 121.04 464.54 116.84 474.14C115.34 477.64 112.64 483.94 110.74 488.14ZM121.24 485.94C116.74 485.94 116.74 485.84 120.04 477.94C120.14 477.7 120.64 476.54 121.54 474.44C122.68 477.44 123.32 479.1 123.44 479.44C124.44 482.14 125.34 484.74 125.34 485.14C125.34 485.64 123.54 485.94 121.24 485.94Z" id="fUDTAmHg"></path><path d="M448.34 509.94C453.14 509.94 455.81 509.94 456.34 509.94C463.64 509.94 464.34 509.74 464.34 507.94C464.34 506.34 463.54 506.04 458.64 505.74C458.26 505.72 456.32 505.62 452.84 505.44C452.66 498.36 452.56 494.42 452.54 493.64C452.34 482.74 452.14 481.94 450.34 481.94C448.44 481.94 448.34 482.64 448.34 495.94C448.34 497.8 448.34 502.47 448.34 509.94Z" id="a2Awt7OIO"></path><path d="M363.34 616.94L365.84 616.94L368.34 616.94L368.34 602.94L368.34 588.94L365.84 588.94L363.34 588.94L363.34 602.94L363.34 616.94Z" id="ajD9Cx500"></path><path d="M195.34 621.94C196.84 621.94 197.68 621.94 197.84 621.94C200.24 621.94 200.34 621.64 200.34 615.94C200.34 615.54 200.34 613.54 200.34 609.94L206.84 609.94L213.34 609.94C213.34 613.54 213.34 615.54 213.34 615.94C213.34 621.64 213.44 621.94 215.84 621.94C216.01 621.94 216.84 621.94 218.34 621.94L218.34 607.94L218.34 593.94C216.84 593.94 216.01 593.94 215.84 593.94C213.44 593.94 213.34 594.24 213.34 599.44C213.34 599.8 213.34 601.64 213.34 604.94L206.84 604.94L200.34 604.94C200.34 601.64 200.34 599.8 200.34 599.44C200.34 594.24 200.24 593.94 197.84 593.94C197.68 593.94 196.84 593.94 195.34 593.94L195.34 607.94L195.34 621.94Z" id="b6TVa1Rq5f"></path><path d="M846.34 404.11C846.34 404.11 846.34 404.11 846.34 404.11C846.34 449.11 846.34 474.11 846.34 479.11C846.34 479.11 846.34 479.11 846.34 479.11C666.94 479.11 567.28 479.11 547.34 479.11C547.34 479.11 547.34 479.11 547.34 479.11C547.34 434.11 547.34 409.11 547.34 404.11C547.34 404.11 547.34 404.11 547.34 404.11C726.74 404.11 826.41 404.11 846.34 404.11Z" id="ofQH9LBsW"></path><path d="M717.62 496.23C717.62 496.23 717.62 496.23 717.62 496.23C717.62 539.43 717.62 563.43 717.62 568.23C717.62 568.23 717.62 568.23 717.62 568.23C615.02 568.23 558.02 568.23 546.62 568.23C546.62 568.23 546.62 568.23 546.62 568.23C546.62 525.03 546.62 501.03 546.62 496.23C546.62 496.23 546.62 496.23 546.62 496.23C649.22 496.23 706.22 496.23 717.62 496.23Z" id="a16TH1byQD"></path><path d="M545.47 567.6L630.97 567.6L716.47 567.6L716.47 530.1L716.47 492.6L630.97 492.6L545.47 492.6L545.47 530.1L545.47 567.6ZM700.77 513.7C699.07 515.4 698.37 515.6 696.67 514.7C693.37 512.9 687.97 513.4 686.07 515.5C682.77 519.1 685.77 522.5 694.47 525.1C703.77 527.9 706.27 537.6 699.47 544.1C695.57 547.8 687.27 548.7 681.37 546.1C676.97 544.1 676.57 542.7 679.37 540.2C681.17 538.5 681.57 538.5 683.67 540C689.07 543.8 697.47 540.6 696.07 535.2C695.57 533.3 693.97 532.2 688.47 530.1C680.37 527 677.97 524.3 678.07 518.4C678.27 514.2 679.47 512.2 683.97 509.4C687.87 506.9 698.57 507.3 701.17 509.9C702.77 511.5 702.77 511.7 700.77 513.7ZM565.47 540.6L573.47 540.6L581.47 540.6L581.47 543.6L581.47 546.6L569.97 546.6L558.47 546.6L558.47 527.6L558.47 508.6L561.97 508.6L565.47 508.6L565.47 524.6L565.47 540.6ZM626.17 543.3C626.26 543.52 626.69 544.62 627.47 546.6C625.19 546.6 623.92 546.6 623.67 546.6C620.17 546.6 619.77 546.3 618.37 542.3C618.26 542.02 617.73 540.62 616.77 538.1L607.97 538.1L599.17 538.1C598.21 540.62 597.68 542.02 597.57 542.3C596.17 546.3 595.77 546.6 592.37 546.6C592.12 546.6 590.89 546.6 588.67 546.6C593.35 535.8 595.95 529.8 596.47 528.6C600.77 518.7 604.67 510.1 604.97 509.6C605.27 509 606.87 508.6 608.37 508.6C611.07 508.6 611.57 509.3 617.97 524.3C621.77 533 625.37 541.6 626.17 543.3ZM664.47 517.7C664.47 521.6 661.87 525.6 659.27 525.6C658.57 525.6 659.37 526.5 661.17 527.6C667.27 531.3 668.27 537.5 663.57 542.8C663.38 543.02 662.41 544.12 660.67 546.1L649.07 546.4L637.47 546.8L637.47 527.7L637.47 508.6C643.71 508.6 647.18 508.6 647.87 508.6C657.67 508.6 658.47 508.8 661.37 511.2C663.87 513.3 664.47 514.5 664.47 517.7Z" id="aCfugunmg"></path><path d="M602.47 531.4C602.47 532.2 604.27 532.6 607.97 532.6C611.67 532.6 613.47 532.2 613.47 531.4C613.47 530 608.47 516.6 607.97 516.6C607.77 516.6 606.47 519.6 605.07 523.4C603.67 527.1 602.47 530.7 602.47 531.4Z" id="aGjVpYhGF"></path><path d="M643.32 522.45C646.5 522.45 648.27 522.45 648.62 522.45C652.72 522.45 654.42 521.95 655.72 520.55C659.42 516.45 655.32 512.45 647.22 512.45C646.96 512.45 645.66 512.45 643.32 512.45L643.32 517.45L643.32 522.45Z" id="b3hGW6NHd"></path><path d="M643.32 540.65C646.86 540.41 648.83 540.28 649.22 540.25C656.32 539.75 658.32 538.35 658.32 533.85C658.32 529.75 655.92 528.45 648.22 528.45C647.9 528.45 646.26 528.45 643.32 528.45L643.32 534.55L643.32 540.65Z" id="bvtOjYeEI"></path><path d="M562.34 464.94L565.84 464.94L569.24 464.94L569.54 456.14L569.84 447.44L578.54 447.14L587.24 446.84L587.54 455.64L587.84 464.44L591.34 464.44L594.84 464.44L594.84 444.94L594.84 425.44L591.34 425.44L587.84 425.44L587.54 433.14L587.24 440.94L578.34 440.94L569.34 440.94L569.34 432.94L569.34 424.94L565.84 424.94L562.34 424.94L562.34 444.94L562.34 464.94Z" id="m1a2jYov6U"></path><path d="M605.34 464.14C605.34 464.64 606.94 464.94 608.84 464.94C612.14 464.94 612.54 464.54 614.34 460.44C614.47 460.14 615.1 458.64 616.24 455.94L624.74 455.94L633.14 455.94C634.22 458.64 634.82 460.14 634.94 460.44C636.54 464.74 636.84 464.94 640.44 464.94C642.64 464.94 644.34 464.64 644.34 464.24C644.34 463.74 640.64 454.74 636.14 444.24C628.04 425.24 627.84 424.94 624.84 424.94C621.84 424.94 621.64 425.24 613.54 444.14C609.04 454.74 605.34 463.74 605.34 464.14ZM619.74 448.64C619.44 448.44 620.14 446.04 621.14 443.34C622.14 440.64 623.34 437.54 623.74 436.44C624.34 434.84 625.04 435.74 627.34 441.44C627.53 441.9 628.46 444.24 630.14 448.44L625.14 448.74C621.68 448.8 619.88 448.77 619.74 448.64Z" id="a257Z8PB"></path><path d="M654.34 464.94L657.84 464.94L661.34 464.94L661.34 449.74L661.34 434.64L671.14 449.74L680.84 464.94L685.14 464.94L689.34 464.94L689.34 444.94L689.34 424.94L685.84 424.94L682.44 424.94L682.14 439.04L681.84 453.14L672.64 439.04L663.44 424.94L658.84 424.94L654.34 424.94L654.34 444.94L654.34 464.94Z" id="d1nFOzmKNp"></path><path d="M703.54 445.94C703.56 447.17 703.66 453.34 703.84 464.44L707.34 464.44L710.84 464.44L711.34 455.34L711.84 446.24C716.82 451.82 719.59 454.92 720.14 455.54C728.34 464.74 728.54 464.94 732.94 464.94C735.34 464.94 737.34 464.64 737.34 464.34C737.34 463.94 733.34 459.24 728.34 453.84C723.44 448.54 719.34 443.64 719.34 443.14C719.34 442.54 723.14 438.54 727.84 434.34C732.54 430.04 736.34 426.14 736.34 425.74C736.34 425.34 734.44 424.94 732.04 424.94C728.04 424.94 727.34 425.44 719.84 432.94C719.31 433.48 716.64 436.18 711.84 441.04L711.34 433.24L710.84 425.44C708.86 425.26 707.76 425.16 707.54 425.14C705.54 424.94 704.14 425.34 703.84 426.14C703.54 426.94 703.44 435.84 703.54 445.94Z" id="a1t6Ar8OTE"></path><path d="M743.34 464.14C743.34 464.64 744.94 464.94 746.84 464.94C750.14 464.94 750.54 464.54 752.34 460.44C752.47 460.14 753.1 458.64 754.24 455.94L762.74 455.94L771.14 455.94C772.22 458.64 772.82 460.14 772.94 460.44C774.54 464.74 774.84 464.94 778.44 464.94C780.64 464.94 782.34 464.64 782.34 464.24C782.34 463.74 778.64 454.74 774.14 444.24C766.04 425.24 765.84 424.94 762.84 424.94C759.84 424.94 759.64 425.24 751.54 444.14C747.04 454.74 743.34 463.74 743.34 464.14ZM757.74 448.64C757.44 448.44 758.14 446.04 759.14 443.34C760.14 440.64 761.34 437.54 761.74 436.44C762.34 434.84 763.04 435.74 765.34 441.44C765.53 441.9 766.46 444.24 768.14 448.44L763.14 448.74C759.68 448.8 757.88 448.77 757.74 448.64Z" id="b29VJCmiei"></path><path d="M792.34 465.04L804.14 464.74L815.84 464.44L816.14 461.14L816.44 457.94L807.94 457.94L799.34 457.94L799.34 441.44L799.34 424.94L795.84 424.94L792.34 424.94L792.34 444.94L792.34 465.04Z" id="ciJEg5DJ"></path><path d="M826.34 464.94L829.84 464.94L833.34 464.94L833.34 444.94L833.34 424.94L829.84 424.94L826.34 424.94L826.34 444.94L826.34 464.94Z" id="dbdS5YxxT"></path></defs><g><g><g><use xlink:href="#a1uwZ2AojT" opacity="1" fill="#ffffff" fill-opacity="1"></use><g><use xlink:href="#a1uwZ2AojT" opacity="1" fill-opacity="0" stroke="#000000" stroke-width="1" stroke-opacity="0"></use></g></g><g><g><use xlink:href="#fDvNu8Oon" opacity="1" fill="#4bc5f1" fill-opacity="1"></use><g><use xlink:href="#fDvNu8Oon" opacity="1" fill-opacity="0" stroke="#000000" stroke-width="1" stroke-opacity="0"></use></g></g><g><use xlink:href="#f8A5pWAVVQ" opacity="1" fill="#4bc5f1" fill-opacity="1"></use><g><use xlink:href="#f8A5pWAVVQ" opacity="1" fill-opacity="0" stroke="#000000" stroke-width="1" stroke-opacity="0"></use></g></g><g><use xlink:href="#b2I7H1reob" opacity="1" fill="#000000" fill-opacity="1"></use><g><use xlink:href="#b2I7H1reob" opacity="1" fill-opacity="0" stroke="#000000" stroke-width="1" stroke-opacity="0"></use></g></g><g><use xlink:href="#c1frDYgiEO" opacity="1" fill="#000000" fill-opacity="1"></use><g><use xlink:href="#c1frDYgiEO" opacity="1" fill-opacity="0" stroke="#000000" stroke-width="1" stroke-opacity="0"></use></g></g><g><use xlink:href="#c1cLcRgXGk" opacity="1" fill="#000000" fill-opacity="1"></use><g><use xlink:href="#c1cLcRgXGk" opacity="1" fill-opacity="0" stroke="#000000" stroke-width="1" stroke-opacity="0"></use></g></g><g><use xlink:href="#bsDNE1m0W" opacity="1" fill="#000000" fill-opacity="1"></use><g><use xlink:href="#bsDNE1m0W" opacity="1" fill-opacity="0" stroke="#000000" stroke-width="1" stroke-opacity="0"></use></g></g><g><use xlink:href="#fUDTAmHg" opacity="1" fill="#000000" fill-opacity="1"></use><g><use xlink:href="#fUDTAmHg" opacity="1" fill-opacity="0" stroke="#000000" stroke-width="1" stroke-opacity="0"></use></g></g><g><use xlink:href="#a2Awt7OIO" opacity="1" fill="#000000" fill-opacity="1"></use><g><use xlink:href="#a2Awt7OIO" opacity="1" fill-opacity="0" stroke="#000000" stroke-width="1" stroke-opacity="0"></use></g></g><g><use xlink:href="#ajD9Cx500" opacity="1" fill="#000000" fill-opacity="1"></use><g><use xlink:href="#ajD9Cx500" opacity="1" fill-opacity="0" stroke="#000000" stroke-width="1" stroke-opacity="0"></use></g></g><g><use xlink:href="#b6TVa1Rq5f" opacity="1" fill="#000000" fill-opacity="1"></use><g><use xlink:href="#b6TVa1Rq5f" opacity="1" fill-opacity="0" stroke="#000000" stroke-width="1" stroke-opacity="0"></use></g></g><g><g><use xlink:href="#ofQH9LBsW" opacity="1" fill="#4bc5f1" fill-opacity="1"></use><g><use xlink:href="#ofQH9LBsW" opacity="1" fill-opacity="0" stroke="#000000" stroke-width="1" stroke-opacity="0"></use></g></g><g><use xlink:href="#a16TH1byQD" opacity="1" fill="#4bc5f1" fill-opacity="1"></use><g><use xlink:href="#a16TH1byQD" opacity="1" fill-opacity="0" stroke="#000000" stroke-width="1" stroke-opacity="0"></use></g></g><g><use xlink:href="#aCfugunmg" opacity="1" fill="#000000" fill-opacity="1"></use><g><use xlink:href="#aCfugunmg" opacity="1" fill-opacity="0" stroke="#000000" stroke-width="1" stroke-opacity="0"></use></g></g><g><use xlink:href="#aGjVpYhGF" opacity="1" fill="#000000" fill-opacity="1"></use><g><use xlink:href="#aGjVpYhGF" opacity="1" fill-opacity="0" stroke="#000000" stroke-width="1" stroke-opacity="0"></use></g></g><g><use xlink:href="#b3hGW6NHd" opacity="1" fill="#000000" fill-opacity="1"></use><g><use xlink:href="#b3hGW6NHd" opacity="1" fill-opacity="0" stroke="#000000" stroke-width="1" stroke-opacity="0"></use></g></g><g><use xlink:href="#bvtOjYeEI" opacity="1" fill="#000000" fill-opacity="1"></use><g><use xlink:href="#bvtOjYeEI" opacity="1" fill-opacity="0" stroke="#000000" stroke-width="1" stroke-opacity="0"></use></g></g><g><g><use xlink:href="#m1a2jYov6U" opacity="1" fill="#000000" fill-opacity="1"></use><g><use xlink:href="#m1a2jYov6U" opacity="1" fill-opacity="0" stroke="#000000" stroke-width="1" stroke-opacity="0"></use></g></g><g><use xlink:href="#a257Z8PB" opacity="1" fill="#000000" fill-opacity="1"></use><g><use xlink:href="#a257Z8PB" opacity="1" fill-opacity="0" stroke="#000000" stroke-width="1" stroke-opacity="0"></use></g></g><g><use xlink:href="#d1nFOzmKNp" opacity="1" fill="#000000" fill-opacity="1"></use><g><use xlink:href="#d1nFOzmKNp" opacity="1" fill-opacity="0" stroke="#000000" stroke-width="1" stroke-opacity="0"></use></g></g><g><use xlink:href="#a1t6Ar8OTE" opacity="1" fill="#000000" fill-opacity="1"></use><g><use xlink:href="#a1t6Ar8OTE" opacity="1" fill-opacity="0" stroke="#000000" stroke-width="1" stroke-opacity="0"></use></g></g><g><use xlink:href="#b29VJCmiei" opacity="1" fill="#000000" fill-opacity="1"></use><g><use xlink:href="#b29VJCmiei" opacity="1" fill-opacity="0" stroke="#000000" stroke-width="1" stroke-opacity="0"></use></g></g><g><use xlink:href="#ciJEg5DJ" opacity="1" fill="#000000" fill-opacity="1"></use><g><use xlink:href="#ciJEg5DJ" opacity="1" fill-opacity="0" stroke="#000000" stroke-width="1" stroke-opacity="0"></use></g></g><g><use xlink:href="#dbdS5YxxT" opacity="1" fill="#000000" fill-opacity="1"></use><g><use xlink:href="#dbdS5YxxT" opacity="1" fill-opacity="0" stroke="#000000" stroke-width="1" stroke-opacity="0"></use></g></g></g></g></g></g></g></svg>