<?xml version="1.0" standalone="no"?>
<!DOCTYPE svg PUBLIC "-//W3C//DTD SVG 20010904//EN"
 "http://www.w3.org/TR/2001/REC-SVG-20010904/DTD/svg10.dtd">
<svg version="1.0" xmlns="http://www.w3.org/2000/svg"
 width="100.000000pt" height="1000.000000pt" viewBox="0 0 1000.000000 1000.000000"
 preserveAspectRatio="xMidYMid meet">

<g transform="translate(0.000000,1000.000000) scale(0.100000,-0.100000)"
fill="#000000" stroke="none">
<path d="M4805 7975 c-27 -8 -53 -14 -56 -15 -4 0 -34 -18 -67 -41 -139 -92
-204 -258 -165 -422 10 -39 18 -76 18 -80 0 -5 -103 -53 -229 -106 l-228 -98
-62 46 c-83 63 -158 85 -269 79 -98 -5 -166 -33 -241 -99 -195 -172 -163 -504
61 -636 24 -14 43 -27 43 -29 0 -3 -239 -444 -244 -451 -1 -1 -30 3 -64 9
-121 22 -268 -27 -353 -119 -92 -100 -131 -254 -95 -378 51 -174 208 -294 386
-295 38 0 68 6 170 36 10 3 56 -56 145 -187 72 -104 159 -231 194 -281 43 -61
61 -95 55 -103 -5 -7 -28 -35 -51 -64 -125 -154 -115 -373 24 -522 77 -83 173
-122 293 -121 131 1 249 63 322 172 37 55 68 143 68 193 l0 27 411 -2 411 -3
18 -53 c88 -249 395 -342 612 -185 188 136 212 419 50 595 -16 18 -21 31 -16
41 5 8 85 106 177 219 l169 205 51 -27 c203 -108 448 -28 549 178 31 62 33 73
33 172 0 98 -2 109 -33 172 -69 142 -226 235 -381 226 l-44 -2 -78 198 c-44
109 -79 203 -79 210 0 6 20 22 46 35 62 34 138 119 165 189 19 46 23 77 24
157 0 94 -2 105 -33 167 -41 85 -128 167 -209 199 -45 18 -78 23 -148 23 -110
0 -179 -24 -261 -91 l-55 -45 -172 114 c-95 63 -222 147 -283 187 l-112 72 14
46 c30 98 10 224 -48 315 -92 145 -273 217 -433 173z m173 -25 c163 -38 277
-169 289 -334 26 -344 -397 -528 -631 -275 -71 76 -99 147 -99 249 1 96 29
172 90 240 94 105 224 149 351 120z m572 -728 c146 -96 267 -176 269 -177 1
-2 -9 -28 -23 -58 -14 -30 -28 -72 -31 -93 -4 -22 -8 -48 -10 -59 -2 -11 -4
-27 -4 -35 -1 -14 -16 -15 -138 -3 -76 7 -153 15 -171 18 -28 5 -56 35 -197
212 l-166 206 33 19 c46 28 96 76 124 121 16 24 29 35 37 30 7 -4 131 -85 277
-181z m-952 112 l34 -45 -39 -49 c-21 -26 -85 -107 -143 -179 l-105 -132 -80
7 c-44 3 -83 8 -86 10 -3 2 -9 27 -12 55 -4 28 -20 81 -37 117 -17 36 -29 67
-27 69 9 9 434 191 447 192 8 0 30 -20 48 -45z m-663 -61 c58 -30 125 -91 158
-144 8 -14 23 -52 33 -84 48 -168 -38 -356 -201 -436 -43 -21 -64 -24 -150
-24 -87 0 -107 3 -157 27 -104 48 -185 153 -205 264 -27 145 37 297 156 374
76 48 124 60 221 57 72 -3 94 -8 145 -34z m783 -35 c31 -17 58 -32 60 -33 1
-1 -17 -72 -40 -158 l-43 -156 -60 6 c-33 3 -104 11 -157 17 l-98 11 138 172
c75 95 138 173 140 173 1 0 28 -14 60 -32z m488 -213 c86 -108 155 -197 153
-198 -6 -5 -339 29 -344 34 -6 7 -87 320 -83 324 2 2 28 10 58 18 30 8 56 15
57 16 2 0 73 -87 159 -194z m-310 161 c3 -4 83 -320 81 -322 -5 -4 -237 22
-242 28 -6 6 16 98 61 256 l15 52 42 -6 c23 -4 42 -7 43 -8z m1326 -17 c120
-26 209 -96 261 -207 28 -59 32 -77 32 -152 0 -75 -4 -93 -32 -152 -71 -150
-231 -236 -387 -207 -124 22 -221 96 -275 209 -23 48 -26 68 -26 155 0 95 2
103 34 163 53 98 149 171 253 191 62 12 80 12 140 0z m-1940 -265 l37 -7 -60
-73 -61 -73 -30 15 c-21 11 -28 20 -23 32 3 9 11 38 17 65 11 45 13 47 47 47
20 0 53 -3 73 -6z m261 -28 c70 -7 131 -16 134 -20 7 -7 -65 -286 -77 -300 -6
-6 -345 159 -368 179 -2 2 24 37 59 79 71 87 53 83 252 62z m341 -36 c55 -6
101 -12 102 -13 6 -5 105 -389 102 -392 -2 -2 -38 -17 -79 -33 l-76 -29 -144
73 c-79 41 -147 78 -151 82 -6 6 51 244 77 320 3 9 16 11 37 8 18 -3 78 -10
132 -16z m351 -36 c88 -9 163 -19 166 -22 37 -42 129 -162 129 -169 -1 -12
-402 -165 -410 -156 -4 4 -26 85 -50 178 -24 94 -45 176 -48 182 -3 9 4 11 24
8 16 -3 101 -12 189 -21z m383 -38 c74 -8 136 -16 138 -18 2 -2 5 -14 6 -27 3
-20 -8 -27 -95 -61 l-97 -38 -60 73 c-33 40 -60 76 -60 79 0 8 19 8 168 -8z
m-1461 -29 c21 -12 21 -13 -27 -72 -50 -62 -66 -71 -83 -44 -7 12 1 29 34 72
24 31 46 57 49 57 3 -1 15 -6 27 -13z m241 -124 c103 -53 188 -97 190 -98 6
-5 -72 -286 -82 -300 -6 -8 -33 -23 -61 -33 l-50 -20 -140 185 c-77 101 -145
192 -152 201 -10 15 -4 28 45 90 31 39 58 72 60 72 2 0 87 -43 190 -97z m1405
9 l24 -48 -58 -64 c-32 -36 -60 -62 -62 -60 -3 3 -30 37 -61 75 -48 60 -53 71
-38 78 69 29 158 66 164 66 4 1 18 -21 31 -47z m-1763 -42 c6 -12 0 -28 -25
-58 -31 -39 -33 -41 -39 -19 -3 12 -6 39 -6 59 0 59 42 70 70 18z m-100 -17
c0 -10 3 -41 6 -69 l6 -51 -177 -219 c-97 -121 -183 -227 -190 -238 -12 -17
-17 -15 -67 36 -30 30 -69 60 -86 67 -18 8 -32 18 -32 23 0 5 55 110 122 232
l121 224 31 -10 c47 -13 167 -11 212 5 53 20 54 20 54 0z m1683 -57 c31 -41
57 -78 57 -82 0 -5 -62 -73 -138 -152 l-137 -142 -116 60 -117 60 -22 82 c-12
45 -18 84 -14 86 285 115 402 160 414 161 8 0 41 -33 73 -73z m354 -52 c44
-22 52 -30 47 -48 -24 -98 -71 -244 -77 -245 -4 -1 -56 57 -114 130 l-105 131
62 63 62 62 36 -34 c21 -18 61 -45 89 -59z m-1758 -111 c78 -102 138 -190 134
-194 -10 -9 -345 -141 -348 -137 -2 2 -5 62 -9 133 -4 72 -9 164 -12 205 l-6
75 42 53 c23 28 45 52 49 52 5 0 72 -84 150 -187z m641 32 l34 -18 -169 -66
c-94 -37 -171 -64 -173 -60 -3 7 11 64 55 217 l14 52 102 -54 c56 -29 118 -61
137 -71z m1493 -143 c42 -108 77 -202 77 -208 0 -6 -18 -16 -39 -23 -48 -14
-129 -74 -169 -123 l-29 -37 -110 137 -110 138 24 84 c13 47 33 115 44 152
l20 68 57 -6 c31 -3 77 -1 102 4 25 6 47 10 50 11 3 0 40 -88 83 -197z m-1239
114 c9 -30 16 -58 16 -64 0 -5 -35 9 -77 31 l-78 41 50 22 c28 13 55 23 62 23
6 1 19 -23 27 -53z m716 -100 c61 -77 109 -144 107 -150 -2 -6 -17 -54 -32
-106 -15 -52 -28 -96 -30 -97 -2 -4 -417 207 -428 217 -5 4 51 71 125 148 73
77 136 137 140 134 3 -4 56 -70 118 -146z m-1865 -91 l7 -160 -167 -65 c-93
-36 -172 -66 -176 -68 -9 -4 -41 67 -37 80 2 4 82 106 178 226 l175 218 6 -35
c4 -20 10 -108 14 -196z m1074 128 l107 -57 38 -144 37 -145 -28 -31 c-15 -17
-65 -70 -111 -117 l-83 -85 -124 2 c-68 1 -128 5 -134 8 -7 5 -187 236 -237
306 -9 11 -6 33 10 90 l21 74 195 77 c107 43 197 78 199 78 2 1 51 -25 110
-56z m322 -201 c-25 -35 -109 -117 -114 -111 -2 2 -18 57 -35 121 l-30 117 99
-50 100 -50 -20 -27z m-872 51 c-18 -70 -18 -69 -44 -38 -13 17 -24 33 -25 36
0 5 52 31 77 38 1 1 -3 -16 -8 -36z m-64 -60 c20 -26 34 -52 32 -57 -2 -6 -21
-77 -43 -158 l-39 -148 -176 0 -176 0 -7 77 c-3 42 -6 102 -6 133 l0 58 178
70 c97 39 182 71 189 71 7 1 28 -20 48 -46z m-1028 -3 c128 -63 206 -188 206
-330 0 -103 -29 -177 -100 -251 -195 -204 -528 -128 -613 140 -26 81 -25 146
1 224 34 102 90 167 187 216 99 50 217 51 319 1z m2075 -8 c29 -16 130 -68
224 -117 l172 -87 -19 -67 c-10 -36 -21 -72 -24 -78 -3 -10 -64 -13 -257 -13
l-253 0 -30 115 -29 115 79 80 c44 44 81 80 82 80 1 0 26 -13 55 -28z m698
-257 c0 -9 -5 -25 -10 -36 -10 -18 -17 -15 -130 41 -66 33 -120 66 -120 72 0
7 12 54 26 105 l26 92 104 -129 c57 -71 104 -137 104 -145z m490 169 c66 -24
136 -78 177 -138 130 -190 48 -463 -167 -548 -83 -33 -206 -31 -282 4 -232
107 -295 393 -128 581 100 113 256 153 400 101z m-2066 -123 c58 -77 106 -141
106 -143 0 -4 -284 3 -288 7 -2 2 8 45 21 97 14 51 31 112 37 136 6 23 12 42
14 42 2 0 51 -63 110 -139z m-614 57 c0 -29 3 -86 7 -125 l6 -73 -175 0 -175
0 -7 56 c-4 31 -5 59 -2 61 7 8 320 132 334 132 8 1 12 -16 12 -51z m1278
-109 c12 -51 21 -94 19 -96 -3 -2 -56 -2 -118 -1 l-114 3 89 93 c49 50 92 92
96 92 3 0 16 -41 28 -91z m763 -19 c68 -35 119 -66 117 -72 -3 -9 -43 -11
-138 -10 -74 2 -136 5 -138 7 -5 5 29 135 35 135 2 0 58 -27 124 -60z m-2027
-152 c11 -113 15 -218 7 -218 -9 0 -89 36 -265 119 -59 28 -113 51 -118 51 -6
0 -8 10 -4 23 4 12 9 34 12 50 l7 27 178 0 178 0 5 -52z m366 40 c-1 -18 -96
-368 -103 -374 -3 -3 -52 17 -110 44 l-105 50 -6 88 c-4 49 -9 115 -12 147
l-5 57 171 0 c129 0 170 -3 170 -12z m415 -58 c30 -37 55 -71 55 -77 0 -10
-315 -346 -329 -351 -11 -4 -211 89 -211 97 0 7 98 368 105 389 3 9 45 12 165
11 l161 -1 54 -68z m183 55 c6 -6 -88 -105 -99 -105 -6 0 -89 105 -89 113 0 5
182 -2 188 -8z m388 -205 c30 -113 54 -207 54 -210 0 -6 -212 -100 -226 -100
-6 0 -75 86 -154 190 l-143 191 69 70 69 70 139 -3 139 -3 53 -205z m464 203
c0 -5 -17 -66 -38 -136 l-37 -129 -120 -55 c-66 -30 -135 -61 -152 -68 l-33
-14 -11 42 c-6 23 -31 115 -54 205 l-43 162 244 0 c134 0 244 -3 244 -7z m321
3 c0 -1 2 -20 5 -44 l6 -42 -49 -21 c-26 -12 -106 -48 -177 -80 -71 -33 -131
-57 -134 -54 -3 3 10 59 29 126 l34 120 143 -2 c78 -2 142 -3 143 -3z m-2332
-200 c112 -52 204 -96 206 -98 5 -5 14 -127 20 -273 3 -77 8 -154 10 -170 5
-30 4 -31 -52 -43 -32 -7 -76 -22 -98 -32 -31 -16 -41 -18 -51 -8 -7 7 -95
134 -197 282 l-185 269 63 62 c34 34 66 72 70 84 3 11 7 21 8 21 1 0 94 -42
206 -94z m2360 27 c8 -25 35 -74 61 -108 l46 -61 -178 -216 -178 -217 -42 24
c-51 28 -110 44 -168 47 -23 1 -44 7 -46 13 -6 15 103 399 114 403 4 1 86 38
182 82 96 44 180 80 185 80 6 0 17 -21 24 -47z m-1145 -196 l128 -167 -54 -24
c-29 -13 -88 -40 -132 -60 -43 -20 -84 -36 -90 -36 -14 0 -327 145 -329 152
-1 4 70 81 157 173 152 159 160 166 176 148 9 -10 74 -93 144 -186z m671 -74
c-81 -286 -69 -259 -120 -273 -25 -7 -47 -11 -49 -9 -10 10 -76 282 -71 288 9
9 269 128 273 125 2 -1 -13 -60 -33 -131z m-1538 82 c53 -25 98 -47 100 -49 2
-2 -14 -68 -36 -147 -21 -79 -44 -162 -50 -184 -10 -40 -11 -40 -50 -37 l-40
4 -5 51 c-3 29 -8 99 -11 157 -3 58 -8 138 -11 178 -4 39 -3 72 0 72 3 0 50
-20 103 -45z m237 -109 c47 -22 85 -43 84 -47 -7 -20 -261 -279 -274 -279 -8
0 -14 2 -14 4 0 6 89 337 95 354 3 8 9 12 13 10 5 -2 48 -21 96 -42z m1066
-132 l36 -142 -47 -35 -48 -35 -96 126 c-53 70 -96 131 -96 136 0 11 181 95
200 93 9 -1 27 -50 51 -143z m-761 -9 c72 -33 131 -62 131 -65 0 -3 -104 -52
-232 -109 -213 -96 -233 -103 -253 -90 -12 8 -38 25 -58 37 l-37 24 19 24 c11
14 71 78 133 143 108 113 114 118 140 107 14 -6 85 -38 157 -71z m496 19 c9
-14 55 -75 101 -135 75 -97 83 -111 72 -129 -7 -11 -16 -20 -19 -20 -6 0 -184
80 -349 158 l-85 40 95 44 c52 24 106 49 120 55 37 17 46 16 65 -13z m-98
-205 c120 -55 221 -104 225 -108 4 -4 -1 -31 -12 -60 -12 -29 -21 -81 -22
-117 l-2 -64 -406 0 -406 0 -12 58 c-7 32 -28 84 -47 116 l-34 57 42 18 c81
36 313 140 377 170 36 16 68 30 72 31 5 0 106 -45 225 -101z m693 45 c100 -30
181 -102 229 -204 22 -46 26 -69 26 -145 0 -82 -3 -97 -32 -156 -39 -79 -102
-140 -181 -177 -49 -23 -70 -27 -147 -27 -76 0 -99 4 -145 26 -148 69 -228
204 -218 363 7 93 43 169 113 235 51 49 65 57 145 87 48 18 146 17 210 -2z
m-1568 -86 c79 -36 142 -98 181 -177 29 -60 32 -73 32 -161 -1 -84 -4 -101
-29 -152 -148 -295 -559 -277 -679 30 -11 28 -18 74 -19 121 -2 127 55 237
157 305 78 52 128 67 220 63 60 -2 94 -10 137 -29z"/>
<path d="M4790 7620 l0 -140 25 0 c24 0 25 2 25 71 l0 70 62 -70 c55 -62 67
-71 97 -71 l35 0 -29 33 c-17 17 -48 51 -69 75 l-40 42 64 65 64 65 -35 0
c-31 0 -44 -9 -92 -59 l-57 -60 0 60 c0 56 -1 59 -25 59 l-25 0 0 -140z"/>
<path d="M3640 6950 l0 -140 25 0 25 0 0 107 0 107 70 -107 c63 -97 72 -107
100 -107 l30 0 0 140 0 140 -25 0 -25 0 0 -102 0 -103 -68 102 c-62 95 -69
103 -99 103 l-33 0 0 -140z"/>
<path d="M6076 6859 c-32 -72 -60 -137 -63 -145 -4 -10 3 -14 24 -14 24 0 33
7 46 35 14 30 21 35 49 34 69 -2 86 -9 97 -40 8 -24 16 -29 42 -29 21 0 30 4
26 13 -3 6 -31 72 -63 145 -77 177 -81 178 -158 1z m113 -36 c1 -9 -13 -13
-39 -13 -44 0 -43 -6 -9 78 l11 27 18 -40 c10 -22 19 -46 19 -52z"/>
<path d="M3183 5903 c-3 -10 -17 -43 -31 -73 -26 -60 -82 -192 -82 -195 0 -1
13 0 29 3 22 3 32 12 40 33 10 28 13 29 71 29 56 0 61 -2 72 -27 7 -16 13 -29
14 -31 6 -10 54 -8 54 2 0 6 -26 70 -58 141 -47 105 -62 131 -80 133 -14 2
-24 -3 -29 -15z m67 -155 c0 -5 -18 -8 -41 -8 -45 0 -45 1 -12 80 l15 35 19
-50 c10 -27 19 -53 19 -57z"/>
<path d="M6480 5776 c-1 -3 -1 -66 -1 -138 l0 -133 77 -3 c75 -3 109 7 89 27
-6 5 -34 11 -64 13 l-54 4 -1 115 c-1 110 -2 114 -23 117 -13 2 -23 1 -23 -2z"/>
<path d="M5632 4568 c3 -137 4 -143 23 -140 11 2 21 5 22 6 1 0 3 62 4 136 l3
135 -27 3 -28 3 3 -143z"/>
<path d="M3950 4520 l0 -140 25 0 c24 0 25 3 25 60 l0 60 65 0 65 0 0 -60 c0
-57 1 -60 25 -60 l25 0 0 140 0 140 -25 0 c-24 0 -25 -3 -25 -55 l0 -55 -65 0
-65 0 0 55 c0 52 -1 55 -25 55 l-25 0 0 -140z"/>
<path d="M5500 3265 l0 -375 855 0 855 0 0 375 0 375 -855 0 -855 0 0 -375z
m1540 210 c36 -18 36 -19 10 -45 -16 -16 -25 -18 -40 -10 -32 17 -85 12 -105
-10 -26 -29 -8 -64 42 -80 78 -26 111 -48 123 -85 15 -47 5 -86 -31 -121 -40
-38 -137 -46 -186 -15 -38 24 -40 32 -14 55 18 17 22 17 43 2 54 -38 138 -6
124 48 -5 19 -21 30 -76 51 -79 30 -104 57 -104 111 0 38 29 83 65 101 33 17
114 16 149 -2z m-1340 -155 l0 -160 80 0 80 0 0 -30 0 -30 -115 0 -115 0 0
190 0 190 35 0 35 0 0 -160z m525 3 c37 -87 74 -173 82 -190 l13 -33 -38 0
c-35 0 -39 3 -53 43 l-16 42 -88 0 -88 0 -16 -42 c-14 -39 -18 -43 -48 -43
-18 0 -33 4 -33 9 0 9 144 343 156 363 3 4 18 8 33 8 27 0 32 -8 96 -157z
m436 128 c40 -41 40 -90 -1 -124 -28 -24 -29 -26 -10 -32 54 -17 77 -100 40
-147 -30 -39 -67 -49 -171 -46 l-94 3 -3 175 c-1 96 0 180 2 187 4 9 33 13
106 13 99 0 102 -1 131 -29z"/>
<path d="M6096 3332 c-14 -37 -26 -73 -26 -80 0 -8 18 -12 55 -12 37 0 55 4
55 12 0 14 -50 148 -55 148 -2 0 -15 -30 -29 -68z"/>
<path d="M6490 3383 c0 -27 2 -52 5 -54 10 -11 117 8 126 22 25 40 -4 71 -75
77 l-56 4 0 -49z"/>
<path d="M6490 3209 l0 -61 59 4 c71 5 91 19 91 64 0 42 -21 54 -94 54 l-56 0
0 -61z"/>
<path d="M2560 3290 l0 -201 36 3 36 3 2 85 1 85 85 0 85 0 5 -85 5 -85 35 0
35 0 0 195 0 195 -35 0 -35 0 -3 -78 -3 -78 -87 3 -87 3 -1 75 -1 75 -37 3
-36 3 0 -201z"/>
<path d="M3142 3463 c-6 -16 -42 -101 -81 -190 -39 -90 -71 -167 -71 -173 0
-5 16 -10 35 -10 33 0 37 4 55 45 l19 45 84 0 84 0 17 -45 c17 -43 20 -45 57
-45 21 0 39 3 39 7 0 4 -37 94 -82 200 l-82 193 -32 0 c-26 0 -34 -5 -42 -27z
m45 -211 c-27 -2 -51 -1 -53 1 -3 2 4 26 14 53 10 27 22 58 26 69 7 16 13 6
35 -50 l27 -70 -49 -3z"/>
<path d="M3480 3290 l0 -200 35 0 34 0 3 148 3 147 95 -148 94 -148 44 3 43 3
0 195 0 195 -35 3 -36 3 0 -143 0 -143 -95 143 -95 142 -45 0 -45 0 0 -200z"/>
<path d="M3975 3478 c-3 -8 -4 -97 -3 -198 l3 -185 35 0 35 0 3 92 3 92 38
-42 c20 -23 53 -60 72 -81 19 -21 40 -45 47 -52 13 -14 102 -20 102 -8 0 4
-40 51 -90 105 -49 53 -90 102 -90 107 0 6 38 46 85 88 47 43 85 82 85 86 0 4
-19 8 -43 8 -40 0 -47 -5 -122 -80 l-80 -81 -5 78 -5 78 -33 3 c-20 2 -34 -2
-37 -10z"/>
<path d="M4452 3300 c-45 -105 -82 -195 -82 -200 0 -6 16 -10 35 -10 33 0 37
4 55 45 l19 45 85 0 84 0 18 -45 c16 -43 19 -45 55 -45 22 0 39 3 39 7 0 4
-37 94 -82 200 -82 192 -82 193 -113 193 -31 0 -32 -2 -113 -190z m142 18 l25
-68 -54 0 c-30 0 -55 2 -55 5 0 2 8 26 18 52 11 26 22 57 26 67 9 25 10 23 40
-56z"/>
<path d="M4860 3290 l0 -201 118 3 117 3 3 33 3 32 -85 0 -86 0 0 165 0 165
-35 0 -35 0 0 -200z"/>
<path d="M5200 3290 l0 -201 36 3 35 3 0 195 0 195 -35 3 -36 3 0 -201z"/>
</g>
</svg>
