<svg width="130" height="1080" viewBox="0 4280 1080 1080" fill="none" xmlns="http://www.w3.org/2000/svg">
<rect width="108" height="108" fill="white"/>
<!--<rect x="296" y="700" width="299" height="75" fill="#4BC5F1"/>-->
<rect x="602" y="700" width="171" height="72" fill="#4BC5F1"/>
<circle cx="668" cy="383" r="38" fill="#4BC5F1"/>
<circle cx="619" cy="608" r="38" fill="#4BC5F1"/>
<path d="M532 266.321C509.4 272.721 496.9 296.321 504.6 318.221C505.4 320.321 505.8 322.421 505.5 322.621C505.2 322.921 494.8 327.521 482.4 332.921L459.8 342.521L453.6 337.921C445.3 331.621 437.8 329.421 426.7 330.021C419.7 330.421 417 331.021 411.7 333.621C400.3 339.321 392.2 350.321 389.9 363.621C387.3 378.221 395.6 395.821 408.7 403.521C411.1 404.921 413 406.221 413 406.421C413 406.721 390 449.121 388.6 451.521C388.5 451.621 385.4 451.221 381.7 450.521C362.9 447.321 344.4 458.721 338.1 477.621C331.4 497.521 342.3 520.021 362.3 527.421C369.3 530.021 382.6 530.021 389.3 527.421C392 526.421 394.3 525.721 394.4 525.921C396 527.821 433 582.121 433 582.521C433 582.821 431.1 585.121 428.9 587.621C420.8 596.721 416.9 609.521 418.9 620.321C422.2 637.921 434.6 650.521 452.1 653.821C466.1 656.621 482.6 649.521 491.1 637.221C494.5 632.121 498 622.421 498 617.721V614.821H539C571 614.821 580.1 615.121 580.4 616.021C585.9 635.321 600.6 646.821 619.5 646.821C654.4 646.821 672 605.621 648.2 579.621C646.6 577.821 646.1 576.521 646.6 575.621C647.1 574.821 655.1 564.921 664.4 553.621L681.2 533.121L686.4 535.821C706.6 546.621 731.1 538.621 741.2 518.021C744.3 511.821 744.5 510.721 744.5 500.821C744.5 490.921 744.3 489.821 741.2 483.621C734.3 469.521 718.8 460.121 703.6 460.921L698.7 461.221L690.9 441.221C686.5 430.321 683 420.821 683 420.321C683 419.721 684.4 418.721 686 418.021C691.7 415.421 699.8 407.021 703.2 400.021C706.3 393.721 706.5 392.621 706.5 382.821C706.5 372.921 706.3 371.821 703.2 365.621C699.1 357.221 690.4 348.921 682.3 345.721C677.8 343.921 674.5 343.421 667.5 343.421C656.5 343.421 649.5 345.821 641.3 352.521L635.9 356.921L607.6 338.221L579.3 319.521L580.6 315.021C583.6 305.321 581.6 292.721 575.8 283.621C566.7 269.121 548.1 261.821 532 266.321ZM555 270.321C577 278.021 585.9 306.121 572.7 325.521C559.2 345.121 531.7 347.121 515.6 329.721C508.5 322.121 505.7 314.921 505.7 304.821C505.7 288.221 516.6 273.921 532.8 269.221C538.5 267.621 548.7 268.121 555 270.321ZM607 341.621C621.6 351.221 633.7 359.221 633.9 359.421C634 359.521 633 362.221 631.6 365.221C630.2 368.221 628.5 374.021 627.8 378.021L626.7 385.421L610.1 383.621C601 382.721 593.4 381.921 593.3 381.921C592.5 381.621 561 341.721 561 340.921C561 340.321 562 339.421 563.1 338.721C566.5 336.921 573.8 329.921 576.1 326.221C577.3 324.121 578.6 323.121 579.3 323.521C580 323.921 592.4 332.021 607 341.621ZM511.8 330.421C515 334.821 515 335.021 513.3 337.321C512.3 338.521 505.9 346.621 499 355.221L486.5 370.921L478.5 370.221C474.1 369.921 470.2 369.421 469.9 369.221C469.6 369.021 469 366.521 468.7 363.721C468.3 360.921 466.7 355.621 465 352.021C463.3 348.421 462.1 345.321 462.4 345.121C463.1 344.321 506.5 325.921 507.5 325.921C508.1 325.921 510 328.021 511.8 330.421ZM444.2 335.621C449.6 338.021 457.3 344.721 460.5 349.821C469.2 363.721 467.5 381.721 456.3 393.821C435.4 416.521 399.3 406.021 393 375.521C391.7 369.121 392.3 363.821 395.1 356.421C398.9 346.321 405.5 339.521 415.8 335.121C420.7 333.121 422.7 332.821 430.5 333.121C436.8 333.421 440.9 334.121 444.2 335.621ZM524.3 340.321C528.2 342.321 529.9 343.721 529.6 344.821C529.3 345.621 527.4 352.621 525.4 360.321C523.3 368.021 521.6 374.421 521.5 374.521C521.5 374.621 514.3 373.921 505.7 373.021L489.9 371.321L503.7 354.121C511.3 344.621 517.7 337.021 518 337.121C518.3 337.221 521.1 338.721 524.3 340.321ZM572.5 361.221C581 371.821 588 380.721 588 381.021C588 381.521 554 378.121 553.5 377.621C552.9 377.021 544.8 345.621 545.2 345.321C545.4 345.121 548 344.321 551 343.521C554 342.721 556.6 342.021 556.7 341.921C556.9 341.921 564 350.521 572.5 361.221ZM541.6 345.221C541.9 345.621 549.8 377.321 549.7 377.421C549.2 377.721 525.9 375.021 525.4 374.521C525 374.121 529.8 354.921 532.6 345.521C533 344.121 533.9 343.921 537.3 344.421C539.6 344.821 541.5 345.121 541.6 345.221ZM674.2 346.921C684.3 349.121 691.9 354.121 697.3 362.121C710.8 381.921 702.5 408.321 680.2 416.921C656.5 426.021 631 408.321 631 382.821C631 366.321 642.3 351.521 658 347.421C664.8 345.621 667.5 345.521 674.2 346.921ZM478.7 373.421L483.8 374.121L477.8 381.421L471.8 388.721L468.8 387.221C466.7 386.121 466 385.221 466.5 384.021C466.8 383.121 467.6 380.221 468.2 377.521C469.5 372.321 469.4 372.321 478.7 373.421ZM506.4 376.321C513.5 377.121 519.5 378.021 519.8 378.321C520.4 378.921 513.1 406.921 512 408.221C511.4 408.821 477.9 392.521 475.2 390.221C475 390.121 477.6 386.621 481.1 382.421C488.2 373.621 486.5 374.121 506.4 376.321ZM540 379.921C545.8 380.521 550.6 381.021 550.7 381.121C551.1 381.621 561.1 420.021 560.8 420.321C560.6 420.521 557 421.921 552.8 423.621L545.2 426.521L530 418.621C518.3 412.421 515 410.321 515.4 409.021C515.7 408.121 517.5 401.221 519.5 393.821C521.5 386.421 523.3 379.721 523.5 379.121C523.8 378.321 525 378.021 526.7 378.321C528.2 378.521 534.2 379.221 540 379.921ZM589.5 384.821C590.8 384.821 593.9 387.921 598.3 393.321C602 397.921 605 402.121 605 402.521C605 403.521 564.9 419.121 564.3 418.421C563.9 418.121 554.6 384.121 554 381.221C554 381.221 561.5 382.021 570.8 382.921C580 383.921 588.4 384.821 589.5 384.821ZM613.9 387.321C621.3 388.121 627.5 389.021 627.7 389.121C627.8 389.321 628.1 390.421 628.2 391.621C628.5 393.621 627.3 394.321 618.7 397.721L609 401.621L603 394.321C599.7 390.321 597 386.721 597 386.421C597 385.521 599 385.721 613.9 387.321ZM467.7 390.121C469.8 391.321 469.8 391.421 465 397.321C460 403.521 458.4 404.421 456.7 401.721C456 400.521 456.8 398.821 460.1 394.521C462.5 391.421 464.7 388.821 465 388.821C465.3 388.921 466.5 389.421 467.7 390.121ZM491.7 402.521C502.1 407.821 510.6 412.221 510.8 412.421C511.3 412.721 504 439.821 502.9 441.921C502.5 442.821 499.7 444.421 496.8 445.521L491.6 447.521L478.2 429.921C470.8 420.221 464 411.221 463 409.821L461.1 407.221L466.8 400.021C469.9 396.021 472.6 392.821 472.7 392.821C472.9 392.821 481.4 397.121 491.7 402.521ZM632.2 401.621L634.7 406.421L628.9 412.821C625.7 416.421 622.9 419.021 622.7 418.821C622.4 418.521 619.7 415.121 616.6 411.321C611.8 405.321 611.3 404.221 612.8 403.521C619.1 400.821 628.6 396.921 629.1 396.921C629.4 396.821 630.8 399.021 632.2 401.621ZM456 405.821C456.6 407.021 456 408.621 453.5 411.621L450.2 415.921L449.4 410.221C448.8 405.321 449 404.321 450.5 403.221C452.5 401.721 454.3 402.621 456 405.821ZM446 409.021C446 410.821 446.3 413.921 446.6 415.821C447.2 419.621 445.3 422.321 417.3 456.521L409 466.621L403.6 461.421C400.7 458.521 396.9 455.621 395.1 454.921C393.4 454.121 392 453.021 392 452.421C392 451.821 397.6 441.421 404.3 429.221L416.5 407.121L419.5 408.021C424.2 409.421 436.1 409.121 440.5 407.521C446.1 405.521 446 405.421 446 409.021ZM614.3 413.321C617.5 417.421 620 421.221 619.8 421.721C619.6 422.221 613.5 429.021 606.2 436.721L592.9 450.821L581.1 444.821L569.2 438.921L567 430.621C565.8 426.121 565.2 422.221 565.6 422.021C594.1 410.521 605.8 406.021 607 405.921C607.8 405.921 611.1 409.221 614.3 413.321ZM649.7 418.521C654.1 420.621 654.9 421.421 654.4 423.221C652 433.021 647.3 447.621 646.7 447.721C646.3 447.821 641.1 442.021 635.3 434.721L624.8 421.621L630.9 415.421L637.1 409.121L640.8 412.521C642.8 414.421 646.9 417.021 649.7 418.521ZM473.9 429.521C481.7 439.721 487.7 448.521 487.3 448.921C486.7 449.521 475.9 453.821 453.4 462.521C452.6 462.821 452.1 458.121 451.6 447.621C451.2 439.221 450.7 429.821 450.4 426.821C449.8 421.521 450 421.121 454 416.021C456.3 413.221 458.5 410.821 458.9 410.821C459.4 410.821 466.1 419.221 473.9 429.521ZM534 424.321L541.4 428.021L524.5 434.721C515.1 438.421 507.4 441.121 507.2 440.621C506.9 440.021 508.3 434.321 512.7 419.021L514.2 413.721L520.3 417.121C523.7 419.021 529.9 422.321 534 424.321ZM687.3 440.621C691.5 451.421 695 460.821 695 461.421C695 462.021 693.2 463.021 691.1 463.721C686.3 465.121 678.2 471.121 674.2 476.021L671.3 479.721L660.6 466.421C654.8 459.021 650 452.221 650 451.321C650 450.321 650.9 446.521 651.9 442.921C653 439.321 654.8 433.121 656 429.121L658.1 421.921L664.3 422.421C667.7 422.721 672.3 422.521 674.5 422.021C676.7 421.421 678.7 421.021 679 420.921C679.3 420.821 683 429.721 687.3 440.621ZM563.4 429.221C564.3 432.221 565 435.021 565 435.621C565 436.121 561.5 434.721 557.3 432.521L549.5 428.421L554.5 426.221C557.3 424.921 560 423.921 560.7 423.921C561.3 423.821 562.6 426.221 563.4 429.221ZM635 439.221C642.4 448.521 645.9 453.721 645.5 454.721C645.1 455.621 643.7 460.521 642.2 465.621C640.8 470.721 639.4 474.721 639.1 474.621C638.7 474.421 628.9 469.421 617.2 463.521C597.9 453.621 596.1 452.521 597.2 450.921C600.2 446.721 622.6 424.121 623.2 424.721C623.5 425.021 628.8 431.621 635 439.221ZM448.5 448.821L449.2 464.321L432.4 470.821C423.2 474.421 415.3 477.421 414.9 477.621C414 478.021 410.8 470.921 411.2 469.621C411.4 469.221 419.4 459.021 429 447.021L446.5 425.221L447.1 429.221C447.5 431.521 448.1 440.321 448.5 448.821ZM555.9 435.521L566.6 441.221L570.3 455.521L574.1 469.921L568.1 476.621C564.8 480.321 559.8 485.621 556.8 488.521L551.5 493.621L538.5 493.021L525.6 492.321L513.5 476.421L501.4 460.421L503.4 452.921L505.5 445.521L525 437.721C535.7 433.421 544.7 429.921 544.9 429.921C545.1 429.821 550 432.421 555.9 435.521ZM588.1 455.621C585.6 459.121 577.2 467.321 576.7 466.721C576.5 466.521 574.9 461.021 573.2 454.621L570.2 442.921L580.1 447.921L590.1 452.921L588.1 455.621ZM500.9 450.521C499.1 457.521 499.1 457.421 496.5 454.321C495.2 452.621 494.1 451.021 494 450.721C494 450.221 499.2 447.621 501.7 446.921C501.8 446.821 501.4 448.521 500.9 450.521ZM494.5 456.521C496.5 459.121 497.9 461.721 497.7 462.221C497.5 462.821 495.5 469.921 493.4 478.021L489.5 492.821H471.9H454.3L453.6 483.621C453.3 478.621 453 472.621 453 470.221V466.021L470.8 459.021C480.5 455.121 489 451.921 489.7 451.921C490.4 451.821 492.5 453.921 494.5 456.521ZM391.6 456.821C406.6 464.221 415.6 481.821 412 496.921C410.2 504.721 406.8 510.621 401.3 516.021C381.6 535.221 349.2 527.121 341 500.921C337.4 489.721 339 478.921 345.7 469.121C349.5 463.521 353.1 460.321 359.7 456.921C369.7 451.821 381.5 451.821 391.6 456.821ZM636.5 485.721L634.3 493.321L608.9 493.621L583.5 493.821L580.7 483.121C579.2 477.121 578 471.921 578 471.421C578 471.021 581.4 467.021 585.7 462.721L593.3 454.821L616 466.421L638.7 478.021L636.5 485.721ZM659 469.321C664.5 476.121 669 482.421 669 483.321C669 484.221 668.5 485.821 668 486.921C667 488.721 666.3 488.421 654.9 482.721L642.8 476.721L643.4 473.621C644.3 468.921 648 456.821 648.5 456.821C648.7 456.821 653.4 462.421 659 469.321ZM718 466.321C724.1 468.421 731.6 474.321 735.7 480.221C746 495.221 743.3 516.421 729.7 528.321C722.3 534.721 715.6 537.221 705 537.321C697.3 537.321 695.8 537.021 689.8 534.021C681.4 529.921 674 522.021 670.9 514.021C667.9 506.221 667.9 495.421 670.9 487.621C673.3 481.421 680.1 473.221 685.6 469.721C695.1 463.921 707.4 462.621 718 466.321ZM512.4 480.021L522.1 492.821H507.5H492.8L493.4 490.021C493.8 488.521 495.5 482.221 497.2 476.021C499.7 467.021 500.5 464.921 501.5 466.021C502.2 466.721 507.1 473.021 512.4 480.021ZM450 474.221C450 477.621 450.3 483.321 450.6 486.721L451.3 492.821H433.6H416V489.921C416 488.321 415.7 485.721 415.4 484.021L414.8 481.021L431.1 474.521C440.1 470.921 448.1 467.921 448.8 467.921C449.6 467.821 450 469.721 450 474.221ZM578 484.721C579.1 489.321 579.9 493.221 579.7 493.421C579.5 493.721 574.1 493.721 567.9 493.621L556.5 493.321L565.4 484.021C570.3 478.921 574.7 475.121 575.1 475.521C575.5 475.921 576.8 480.121 578 484.721ZM654.1 485.921C660.6 489.221 666 492.421 666 492.921C666 493.421 659.9 493.821 652 493.821C643.2 493.821 638 493.421 638 492.821C638 491.221 641.3 479.821 641.7 479.821C642 479.821 647.5 482.521 654.1 485.921ZM451.4 502.021C452.5 514.521 452.7 522.821 452 522.821C451 522.821 414.7 505.921 413.8 505.021C413.4 504.621 413.6 502.421 414.3 500.021L415.4 495.821H433.1H450.8L451.4 502.021ZM488 497.021C488 498.621 478.3 533.821 477.7 534.421C477.5 534.721 472.5 532.621 466.7 529.921L456.2 525.021L455.6 515.121C455.2 509.721 454.8 503.221 454.6 500.521L454.3 495.821H471.1C484 495.821 488 496.121 488 497.021ZM515.3 496.521L525.1 497.121L530 503.421C532.8 506.921 535 510.121 535 510.621C535 511.521 503.4 545.121 502.1 545.621C501 546.021 481 536.721 481 535.921C481 535.221 490.8 499.121 491.5 497.021C492 495.621 499.8 495.421 515.3 496.521ZM548 497.521C548 498.421 538.8 507.821 537.9 507.821C537.5 507.821 535.4 505.321 533.1 502.321L528.9 496.821H538.5C543.7 496.821 548 497.121 548 497.521ZM581.9 500.021C583.8 506.121 592.1 539.021 591.8 539.221C589.9 540.421 570.2 548.821 569.5 548.821C568.9 548.821 562 540.221 554 529.821L539.6 510.721L546.5 503.821L553.4 496.821H567.1H580.8L581.9 500.021ZM633 497.521C633 498.021 631.3 504.121 629.2 511.221L625.5 524.121L610.5 530.821C600.7 535.221 595.3 537.121 594.9 536.421C594.5 535.821 592.4 528.121 590.1 519.321C587.9 510.521 585.6 501.821 585.1 500.021L584.1 496.821H608.6C622 496.821 633 497.121 633 497.521ZM664.7 498.121C664.7 498.221 665 500.021 665.2 502.121L665.5 505.921L648.1 513.821C638.5 518.221 630.4 521.621 630.2 521.321C629.7 520.921 634.3 503.921 636.2 498.921L637.1 496.521L650.8 497.321C658.3 497.721 664.6 498.121 664.7 498.121ZM432 517.321C443.2 522.621 452.5 527.021 452.6 527.121C452.8 527.221 453.4 536.121 453.9 546.821C454.5 557.521 455.2 568.121 455.5 570.421L455.9 574.421L450.2 575.621C447 576.321 442.7 577.721 440.5 578.821C438.2 580.021 436.2 580.421 435.7 579.921C435.2 579.421 426.3 566.721 416 551.721L397.2 524.521L403.5 518.321C406.9 514.921 410.1 511.121 410.5 509.921C410.8 508.821 411.2 507.821 411.4 507.821C411.5 507.821 420.8 512.121 432 517.321ZM667.9 514.521C668.7 517.021 671.4 521.921 674 525.321L678.6 531.421L660.9 553.021L643.1 574.521L637.6 571.721C634.5 570.221 628.6 568.421 624.5 567.721C620.4 567.121 617 566.121 617 565.621C617 563.621 628.1 526.321 628.8 526.021C629.2 525.921 637.4 522.221 647 517.821C656.6 513.421 665 509.821 665.5 509.821C666.1 509.821 667.2 511.921 667.9 514.521ZM553.4 534.021L566.1 550.821L560.3 553.421C541.5 561.821 538.8 562.921 537.1 562.321C534.1 561.421 505.9 548.021 505.7 547.521C505.6 547.221 512.7 539.521 521.4 530.321C536.6 514.421 537.4 513.721 539 515.521C539.9 516.521 546.4 524.821 553.4 534.021ZM466.6 533.421C472.1 535.921 476.6 538.121 476.7 538.221C476.8 538.321 474.7 546.721 472 556.821C469.2 567.021 467 575.321 467 575.321C467 575.321 465.2 575.221 463.1 575.021L459.2 574.621L458.6 568.521C458.3 565.121 457.8 556.721 457.5 549.821C457.2 542.921 456.7 535.421 456.4 533.021C456.1 530.721 456.1 528.821 456.3 528.821C456.6 528.821 461.2 530.921 466.6 533.421ZM623.6 530.521C623.3 531.521 621.7 537.221 620 543.321C612.5 569.821 613.6 567.421 608.5 568.821C606 569.521 603.8 569.921 603.6 569.721C602.7 568.721 596 541.521 596.5 540.921C597.5 539.921 621.4 529.021 622.8 528.921C623.6 528.821 623.9 529.521 623.6 530.521ZM490.3 544.321C495.1 546.421 498.9 548.621 498.8 549.021C498.1 550.921 472.7 576.821 471.4 576.821C470.6 576.821 470 576.621 470 576.321C470 575.821 478.8 543.121 479.6 541.021C479.8 540.221 480.4 539.821 480.8 540.021C481.3 540.221 485.6 542.121 490.3 544.321ZM597 557.421L600.6 571.621L595.9 575.121L591.1 578.621L581.1 565.521L571 552.321L580.8 547.621C586.1 545.021 591.1 543.021 591.9 543.121C592.8 543.221 594.6 548.221 597 557.421ZM523.4 559.721C529.4 562.521 534.1 565.021 533.9 565.221C533.7 565.321 523.2 570.121 510.6 575.821C489.5 585.321 487.5 586.021 485.5 584.721C484.3 583.921 481.7 582.221 479.7 581.021L476 578.621L477.9 576.221C479 574.821 485 568.421 491.2 561.921L502.5 550.221L507.5 552.421C510.3 553.621 517.4 556.921 523.4 559.721ZM578.7 567.421C587.7 579.421 588.8 581.221 587.7 582.921C587 584.021 586 584.721 585.3 584.621C581.8 583.821 543.2 565.221 543.8 564.621C544.8 563.621 566.3 553.921 567.5 553.921C568.1 553.921 573.1 560.021 578.7 567.421ZM560.6 576.921C572.6 582.421 582.8 587.321 583.2 587.721C583.6 588.121 583.1 590.821 581.9 593.721C580.8 596.721 579.8 601.921 579.7 605.421L579.5 611.821H539H498.4L497.2 606.021C496.5 602.821 494.5 597.621 492.6 594.521L489.1 588.821L493.8 586.821C496.4 585.621 507.3 580.721 518 575.821C528.7 570.921 537.8 566.921 538.1 566.921C538.4 566.821 548.5 571.321 560.6 576.921ZM630.6 572.521C640.6 575.921 648.2 582.721 652.9 592.721C655.1 597.521 655.5 599.721 655.5 607.321C655.5 615.521 655.2 617.021 652.3 622.921C648.4 630.821 642.1 636.921 634.2 640.621C629.3 642.921 627.2 643.321 619.5 643.321C611.7 643.321 609.7 642.921 604.5 640.521C594.6 635.921 588 628.421 584.5 617.921C582.2 611.021 582.8 599.321 585.8 592.621C588 587.721 594.3 580.121 599.2 576.721C607 571.121 621 569.221 630.6 572.521ZM473.2 581.021C481.1 584.621 487.4 590.821 491.3 598.721C494.2 604.721 494.5 606.121 494.5 614.821C494.5 623.121 494.2 625.021 491.8 629.921C484.4 644.821 467.7 653.821 452.7 650.821C444 649.121 438.2 646.121 432.5 640.321C413.2 621.021 420.4 589.321 446.2 579.721C453.8 576.921 465.4 577.521 473.2 581.021Z" fill="black"/>
<path d="M531 301.821V315.821H533.5C535.9 315.821 536 315.621 536 308.721V301.721L542.2 308.721C547.7 314.921 548.9 315.821 551.9 315.821H555.4L552.5 312.521C550.8 310.821 547.7 307.421 545.6 305.021L541.6 300.821L548 294.321L554.4 287.821H550.9C547.8 287.821 546.5 288.721 541.7 293.721L536 299.721V293.721C536 288.121 535.9 287.821 533.5 287.821H531V301.821Z" fill="black"/>
<path d="M416 368.821V382.821H418.5H421V372.021V361.321L428 372.021C434.3 381.821 435.2 382.821 438 382.821H441V368.821V354.821H438.5H436V365.021V375.321L429.2 365.121C423 355.621 422.3 354.821 419.3 354.821H416V368.821Z" fill="black"/>
<path d="M659.6 377.921C656.4 385.121 653.6 391.621 653.3 392.421C652.9 393.421 653.6 393.821 655.7 393.821C658.1 393.821 659 393.121 660.3 390.321C661.9 386.921 662.2 386.821 667.5 386.821C673 386.821 673.1 386.921 674.6 390.321C675.8 393.221 676.5 393.821 679.1 393.821C681.2 393.821 682 393.421 681.7 392.521C681.4 391.921 678.6 385.321 675.4 378.021C667.7 360.321 667.3 360.221 659.6 377.921ZM671 382.021C671 382.521 669.3 382.821 667.1 382.821H663.2L665.3 377.221L667.3 371.721L669.2 376.521C670.2 379.121 671 381.621 671 382.021Z" fill="black"/>
<path d="M368.5 478.021C367 481.521 364.3 487.821 362.4 492.021L359.1 499.821H361.9C364.2 499.821 365 499.221 365.9 496.821C366.9 493.921 367.1 493.821 372.9 493.821C378.6 493.821 379 494.021 380.5 496.821C381.6 498.921 382.8 499.821 384.5 499.821C385.9 499.821 387 499.521 386.9 499.021C386.9 498.621 384.3 492.421 381.2 485.321C374.2 469.321 372.7 468.421 368.5 478.021ZM377 489.021C377 489.521 375.2 489.821 372.9 489.821C368.4 489.821 368.4 489.721 371.7 481.821L373.2 478.321L375.1 483.321C376.1 486.021 377 488.621 377 489.021Z" fill="black"/>
<path d="M700 499.821V513.821H708C715.3 513.821 716 513.621 716 511.821C716 510.221 715.2 509.921 710.3 509.621L704.5 509.321L704.2 497.521C704 486.621 703.8 485.821 702 485.821C700.1 485.821 700 486.521 700 499.821Z" fill="black"/>
<path d="M615 606.821V620.821H617.5H620V606.821V592.821H617.5H615V606.821Z" fill="black"/>
<path d="M447 611.821V625.821H449.5C451.9 625.821 452 625.521 452 619.821V613.821H458.5H465V619.821C465 625.521 465.1 625.821 467.5 625.821H470V611.821V597.821H467.5C465.1 597.821 465 598.121 465 603.321V608.821H458.5H452V603.321C452 598.121 451.9 597.821 449.5 597.821H447V611.821Z" fill="black"/>
<path d="M602 737.321V774.821H687.5H773V737.321V699.821H687.5H602V737.321ZM757.7 717.121C759.3 718.721 759.3 718.921 757.3 720.921C755.6 722.621 754.9 722.821 753.2 721.921C749.9 720.121 744.5 720.621 742.6 722.721C739.3 726.321 742.3 729.721 751 732.321C760.3 735.121 762.8 744.821 756 751.321C752.1 755.021 743.8 755.921 737.9 753.321C733.5 751.321 733.1 749.921 735.9 747.421C737.7 745.721 738.1 745.721 740.2 747.221C745.6 751.021 754 747.821 752.6 742.421C752.1 740.521 750.5 739.421 745 737.321C736.9 734.221 734.5 731.521 734.6 725.621C734.8 721.421 736 719.421 740.5 716.621C744.4 714.121 755.1 714.521 757.7 717.121ZM622 731.821V747.821H630H638V750.821V753.821H626.5H615V734.821V715.821H618.5H622V731.821ZM674.5 731.521C678.3 740.221 681.9 748.821 682.7 750.521L684 753.821H680.2C676.7 753.821 676.3 753.521 674.9 749.521L673.3 745.321H664.5H655.7L654.1 749.521C652.7 753.521 652.3 753.821 648.9 753.821H645.2L653 735.821C657.3 725.921 661.2 717.321 661.5 716.821C661.8 716.221 663.4 715.821 664.9 715.821C667.6 715.821 668.1 716.521 674.5 731.521ZM717.9 718.421C720.4 720.521 721 721.721 721 724.921C721 728.821 718.4 732.821 715.8 732.821C715.1 732.821 715.9 733.721 717.7 734.821C723.8 738.521 724.8 744.721 720.1 750.021L717.2 753.321L705.6 753.621L694 754.021V734.921V715.821H704.4C714.2 715.821 715 716.021 717.9 718.421Z" fill="black"/>
<path d="M661.6 730.621C660.2 734.321 659 737.921 659 738.621C659 739.421 660.8 739.821 664.5 739.821C668.2 739.821 670 739.421 670 738.621C670 737.221 665 723.821 664.5 723.821C664.3 723.821 663 726.821 661.6 730.621Z" fill="black"/>
<path d="M701 725.821V730.821H706.3C710.4 730.821 712.1 730.321 713.4 728.921C717.1 724.821 713 720.821 704.9 720.821H701V725.821Z" fill="black"/>
<path d="M701 742.921V749.021L706.9 748.621C714 748.121 716 746.721 716 742.221C716 738.121 713.6 736.821 705.9 736.821H701V742.921Z" fill="black"/>
<path d="M308 734.821V754.821H311.5H314.9L315.2 746.021L315.5 737.321L324.2 737.021L332.9 736.721L333.2 745.521L333.5 754.321H337H340.5V734.821V715.321H337H333.5L333.2 723.021L332.9 730.821H324H315V722.821V714.821H311.5H308V734.821Z" fill="black"/>
<path d="M359.2 734.021C354.7 744.621 351 753.621 351 754.021C351 754.521 352.6 754.821 354.5 754.821C357.8 754.821 358.2 754.421 360 750.321L361.9 745.821H370.4H378.8L380.6 750.321C382.2 754.621 382.5 754.821 386.1 754.821C388.3 754.821 390 754.521 390 754.121C390 753.621 386.3 744.621 381.8 734.121C373.7 715.121 373.5 714.821 370.5 714.821C367.5 714.821 367.3 715.121 359.2 734.021ZM370.8 738.621C368 738.821 365.6 738.721 365.4 738.521C365.1 738.321 365.8 735.921 366.8 733.221C367.8 730.521 369 727.421 369.4 726.321C370 724.721 370.7 725.621 373 731.321L375.8 738.321L370.8 738.621Z" fill="black"/>
<path d="M400 734.821V754.821H403.5H407V739.621V724.521L416.8 739.621L426.5 754.821H430.8H435V734.821V714.821H431.5H428.1L427.8 728.921L427.5 743.021L418.3 728.921L409.1 714.821H404.5H400V734.821Z" fill="black"/>
<path d="M449.5 716.021C449.2 716.821 449.1 725.721 449.2 735.821L449.5 754.321H453H456.5L457 745.221L457.5 736.121L465.8 745.421C474 754.621 474.2 754.821 478.6 754.821C481 754.821 483 754.521 483 754.221C483 753.821 479 749.121 474 743.721C469.1 738.421 465 733.521 465 733.021C465 732.421 468.8 728.421 473.5 724.221C478.2 719.921 482 716.021 482 715.621C482 715.221 480.1 714.821 477.7 714.821C473.7 714.821 473 715.321 465.5 722.821L457.5 730.921L457 723.121L456.5 715.321L453.2 715.021C451.2 714.821 449.8 715.221 449.5 716.021Z" fill="black"/>
<path d="M497.2 734.021C492.7 744.621 489 753.621 489 754.021C489 754.521 490.6 754.821 492.5 754.821C495.8 754.821 496.2 754.421 498 750.321L499.9 745.821H508.4H516.8L518.6 750.321C520.2 754.621 520.5 754.821 524.1 754.821C526.3 754.821 528 754.521 528 754.121C528 753.621 524.3 744.621 519.8 734.121C511.7 715.121 511.5 714.821 508.5 714.821C505.5 714.821 505.3 715.121 497.2 734.021ZM508.8 738.621C506 738.821 503.6 738.721 503.4 738.521C503.1 738.321 503.8 735.921 504.8 733.221C505.8 730.521 507 727.421 507.4 726.321C508 724.721 508.7 725.621 511 731.321L513.8 738.321L508.8 738.621Z" fill="black"/>
<path d="M538 734.821V754.921L549.8 754.621L561.5 754.321L561.8 751.021L562.1 747.821H553.6H545V731.321V714.821H541.5H538V734.821Z" fill="black"/>
<path d="M572 734.821V754.821H575.5H579V734.821V714.821H575.5H572V734.821Z" fill="black"/>
</svg>
