<?xml version="1.0" standalone="no"?>
<!DOCTYPE svg PUBLIC "-//W3C//DTD SVG 20010904//EN"
 "http://www.w3.org/TR/2001/REC-SVG-20010904/DTD/svg10.dtd">
<svg version="1.0" xmlns="http://www.w3.org/2000/svg"
 width="150.000000pt" height="80.000000pt" viewBox="0 0 150.000000 80.000000"
 preserveAspectRatio="xMidYMid meet">

<g transform="translate(0.000000,80.000000) scale(0.100000,-0.100000)"
fill="#000000" stroke="none">
<path d="M470 536 c0 -2 7 -7 16 -10 8 -3 12 -2 9 4 -6 10 -25 14 -25 6z"/>
<path d="M276 482 c-3 -5 1 -9 9 -9 8 0 12 4 9 9 -3 4 -7 8 -9 8 -2 0 -6 -4
-9 -8z"/>
<path d="M630 479 c0 -5 5 -7 10 -4 6 3 10 8 10 11 0 2 -4 4 -10 4 -5 0 -10
-5 -10 -11z"/>
<path d="M350 465 c-10 -13 -11 -18 -1 -28 10 -9 11 -8 5 6 -4 12 -2 16 7 14
8 -2 11 -2 6 0 -4 3 -5 9 -1 14 9 15 -2 10 -16 -6z"/>
<path d="M445 469 c-4 -6 -5 -12 -2 -15 2 -3 7 2 10 11 7 17 1 20 -8 4z"/>
<path d="M496 467 c3 -10 9 -15 12 -12 3 3 0 11 -7 18 -10 9 -11 8 -5 -6z"/>
<path d="M677 468 c-3 -8 5 -14 20 -14 19 -2 22 1 12 12 -14 17 -25 18 -32 2z"/>
<path d="M747 461 c-4 -17 -3 -21 5 -13 5 5 8 16 6 23 -3 8 -7 3 -11 -10z"/>
<path d="M620 456 c0 -2 7 -7 16 -10 8 -3 12 -2 9 4 -6 10 -25 14 -25 6z"/>
<path d="M321 434 c0 -11 3 -14 6 -6 3 7 2 16 -1 19 -3 4 -6 -2 -5 -13z"/>
<path d="M244 418 l-19 -23 23 19 c21 18 27 26 19 26 -2 0 -12 -10 -23 -22z"/>
<path d="M660 415 c-7 -9 -10 -18 -7 -21 3 -3 10 4 17 15 13 25 8 27 -10 6z"/>
<path d="M406 411 c-17 -6 -17 -8 -4 -14 10 -3 19 0 22 9 3 8 4 14 3 13 -1 0
-11 -4 -21 -8z"/>
<path d="M930 404 c0 -7 5 -16 10 -19 6 -3 10 -1 10 4 0 15 27 14 33 -1 3 -7
6 -4 6 7 1 16 -6 20 -29 21 -18 1 -30 -4 -30 -12z"/>
<path d="M1022 408 c-18 -18 -15 -23 18 -23 17 0 30 2 30 6 0 7 -22 29 -30 29
-3 0 -11 -5 -18 -12z"/>
<path d="M1090 397 c0 -16 3 -18 9 -8 7 10 13 11 30 2 18 -10 21 -9 21 7 0 14
-8 19 -30 20 -24 1 -30 -3 -30 -21z"/>
<path d="M1170 405 c0 -7 11 -12 23 -12 13 0 24 5 24 12 0 7 -11 13 -24 13
-12 0 -23 -6 -23 -13z"/>
<path d="M1252 408 c-18 -18 -15 -23 18 -23 17 0 30 2 30 6 0 7 -22 29 -30 29
-3 0 -11 -5 -18 -12z"/>
<path d="M1321 403 c-1 -17 5 -23 19 -23 11 0 20 5 20 10 0 6 -6 10 -14 10 -8
0 -17 6 -19 13 -3 6 -6 2 -6 -10z"/>
<path d="M1370 406 c0 -8 5 -18 10 -21 6 -3 10 3 10 14 0 12 -4 21 -10 21 -5
0 -10 -6 -10 -14z"/>
<path d="M333 365 c0 -22 2 -30 4 -17 2 12 2 30 0 40 -3 9 -5 -1 -4 -23z"/>
<path d="M530 393 c0 -5 7 -18 15 -29 13 -18 14 -18 8 4 -5 22 -23 41 -23 25z"/>
<path d="M185 371 c-3 -6 3 -9 14 -8 11 0 17 5 15 9 -7 11 -22 10 -29 -1z"/>
<path d="M395 369 c-4 -6 -5 -12 -2 -15 2 -3 7 2 10 11 7 17 1 20 -8 4z"/>
<path d="M636 363 c-6 -14 -5 -15 5 -6 7 7 10 15 7 18 -3 3 -9 -2 -12 -12z"/>
<path d="M685 371 c-3 -5 -1 -12 5 -16 5 -3 10 1 10 9 0 18 -6 21 -15 7z"/>
<path d="M910 325 l0 -36 143 3 142 3 3 33 3 32 -145 0 -146 0 0 -35z m27 3
c-3 -8 -6 -5 -6 6 -1 11 2 17 5 13 3 -3 4 -12 1 -19z m92 -1 c0 -8 -2 -8 -6 1
-4 10 -8 10 -21 0 -15 -12 -16 -11 -3 4 14 19 32 15 30 -5z"/>
<path d="M375 329 c-4 -6 -5 -12 -2 -15 2 -3 7 2 10 11 7 17 1 20 -8 4z"/>
<path d="M560 331 c0 -5 5 -13 10 -16 6 -3 10 -2 10 4 0 5 -4 13 -10 16 -5 3
-10 2 -10 -4z"/>
<path d="M553 274 c-3 -8 -2 -19 3 -24 5 -5 9 1 9 16 0 28 -3 30 -12 8z"/>
<path d="M600 266 c0 -9 5 -16 10 -16 6 0 10 4 10 9 0 6 -4 13 -10 16 -5 3
-10 -1 -10 -9z"/>
<path d="M666 253 c-6 -14 -5 -15 5 -6 7 7 10 15 7 18 -3 3 -9 -2 -12 -12z"/>
</g>
</svg>
