<svg width="109" height="56" viewBox="0 0 109 56" fill="none" xmlns="http://www.w3.org/2000/svg">
<path d="M47.4805 11.4441C44.479 11.4441 42.0439 13.8791 42.0439 16.8807C42.0439 19.8837 44.479 22.3173 47.4805 22.3173C50.4835 22.3173 52.9171 19.8837 52.9171 16.8807C52.9171 13.8791 50.4835 11.4441 47.4805 11.4441Z" fill="#4BC5F1"/>
<path d="M40.4708 43.6344C37.4692 43.6344 35.0342 46.0694 35.0342 49.0709C35.0342 52.0739 37.4692 54.5075 40.4708 54.5075C43.4737 54.5075 45.9073 52.0739 45.9073 49.0709C45.9073 46.0694 43.4737 43.6344 40.4708 43.6344Z" fill="#4BC5F1"/>
<path d="M24.1035 7.61419C24.2179 7.91463 24.2752 8.21508 24.2322 8.24369C24.1893 8.28661 22.7014 8.94472 20.9274 9.71729C20.7128 9.80885 19.634 10.2667 17.694 11.0907C17.1618 10.6959 16.8671 10.4755 16.807 10.4326C15.6196 9.5313 14.5466 9.21655 12.9585 9.30239C11.957 9.35962 11.5707 9.44546 10.8125 9.81743C9.18151 10.6329 8.02267 12.2067 7.69361 14.1095C7.32164 16.1983 8.5091 18.7163 10.3833 19.8179C10.7266 20.0182 10.9985 20.2042 10.9985 20.2328C10.9985 20.2757 7.70792 26.3418 7.50762 26.6851C7.49332 26.6994 7.04981 26.6422 6.52045 26.5421C3.83078 26.0842 1.18403 27.7152 0.282702 30.4192C-0.675852 33.2662 0.883586 36.4853 3.74494 37.544C4.74642 37.9159 6.64922 37.9159 7.60777 37.544C7.99405 37.4009 8.32311 37.3007 8.33742 37.3294C8.56633 37.6012 13.8598 45.3698 13.8598 45.427C13.8598 45.4699 13.588 45.799 13.2733 46.1566C12.1144 47.4586 11.5564 49.2898 11.8426 50.835C12.3147 53.3529 14.0887 55.1556 16.5924 55.6277C18.5954 56.0283 20.956 55.0125 22.1721 53.2528C22.6585 52.5232 23.1592 51.1354 23.1592 50.463C23.1592 50.4344 23.1592 50.297 23.1592 50.0481C26.6787 50.0481 28.6344 50.0481 29.025 50.0481C33.6032 50.0481 34.9051 50.091 34.948 50.2198C35.7349 52.981 37.838 54.6262 40.542 54.6262C45.535 54.6262 48.053 48.7319 44.648 45.0121C44.4191 44.7546 44.3476 44.5686 44.4191 44.4398C44.4906 44.3254 45.6352 42.909 46.9657 41.2923C47.1259 41.0963 47.9271 40.1192 49.3692 38.3594C49.8156 38.5912 50.0646 38.72 50.1132 38.7457C53.0032 40.2909 56.5083 39.1463 57.9533 36.1991C58.3968 35.3121 58.4254 35.1547 58.4254 33.7384C58.4254 32.322 58.3968 32.1646 57.9533 31.2776C56.9661 29.2603 54.7486 27.9155 52.574 28.03C52.5282 28.0328 52.2936 28.0471 51.8729 28.0729C51.2034 26.3561 50.8314 25.4018 50.757 25.2115C50.1275 23.6521 49.6268 22.2929 49.6268 22.2214C49.6268 22.1356 49.8271 21.9925 50.056 21.8924C50.8715 21.5204 52.0303 20.3186 52.5167 19.3171C52.9602 18.4158 52.9889 18.2584 52.9889 16.8564C52.9889 15.44 52.9602 15.2826 52.5167 14.3956C51.9302 13.1938 50.6855 12.0064 49.5266 11.5486C48.8828 11.291 48.4107 11.2195 47.4092 11.2195C45.8355 11.2195 44.834 11.5629 43.6608 12.5214C43.6093 12.5629 43.3518 12.7732 42.8883 13.1509L38.8395 10.4755L34.7906 7.80018C34.9022 7.4139 34.9652 7.1993 34.9766 7.15638C35.4058 5.76862 35.1197 3.96596 34.2899 2.66405C32.988 0.589565 30.3269 -0.454828 28.0235 0.188977C24.7902 1.10461 23.0019 4.48101 24.1035 7.61419ZM33.8464 8.65859C31.915 11.4627 27.9806 11.7488 25.6772 9.25947C24.6614 8.17216 24.2609 7.14207 24.2609 5.69708C24.2609 3.32216 25.8203 1.27629 28.138 0.603872C28.9535 0.374964 30.4128 0.446499 31.3141 0.761248C34.4616 1.86287 35.7349 5.88307 33.8464 8.65859ZM42.6021 13.5086C42.6164 13.5229 42.4734 13.9092 42.2731 14.3384C42.0728 14.7676 41.8296 15.5974 41.7294 16.1696C41.7194 16.2397 41.6665 16.5931 41.5721 17.2283C40.1471 17.0738 39.3559 16.988 39.1971 16.9708C37.8952 16.8421 36.8079 16.7276 36.7936 16.7276C36.6791 16.6847 32.1725 10.9763 32.1725 10.8618C32.1725 10.776 32.3156 10.6472 32.4729 10.5471C32.9594 10.2896 34.0038 9.28808 34.3328 8.75873C34.5045 8.45829 34.6905 8.31523 34.7906 8.37245C34.8908 8.42968 36.6648 9.58853 38.7536 10.962C40.8424 12.3354 42.5735 13.48 42.6021 13.5086ZM25.3482 10.3468C25.2051 10.5185 24.2895 11.6773 23.3023 12.9077C23.1836 13.0565 22.587 13.8062 21.514 15.1539C20.8272 15.0938 20.4467 15.0594 20.3694 15.0537C19.7399 15.0108 19.182 14.9393 19.139 14.9106C19.0961 14.882 19.0103 14.5244 18.9673 14.1238C18.9101 13.7232 18.6812 12.9649 18.438 12.4499C18.1948 11.9348 18.0231 11.4913 18.066 11.4627C18.1662 11.3483 24.3753 8.71581 24.5184 8.71581C24.6042 8.71581 24.876 9.01626 25.1336 9.35962C25.5914 9.98912 25.5914 10.0177 25.3482 10.3468ZM17.7942 12.1351C19.0389 14.1238 18.7957 16.699 17.1933 18.4301C14.2032 21.6778 9.03845 20.1755 8.13712 15.812C7.95113 14.8963 8.03697 14.1381 8.43756 13.0794C8.98122 11.6344 9.92547 10.6615 11.3991 10.032C12.1001 9.7459 12.3862 9.70298 13.5022 9.7459C14.4035 9.78882 14.9901 9.88897 15.4622 10.1036C16.2348 10.4469 17.3364 11.4055 17.7942 12.1351ZM27.6802 11.4198C27.6373 11.5342 27.3654 12.5357 27.0793 13.6373C26.7788 14.739 26.5356 15.6546 26.5213 15.6689C26.5213 15.6832 25.4912 15.5831 24.2609 15.4543C24.1106 15.4371 23.3567 15.357 22.0004 15.2111C23.185 13.7346 23.8431 12.9134 23.9747 12.7503C25.062 11.3912 25.9777 10.3039 26.0206 10.3182C26.0635 10.3325 26.4641 10.5471 26.9219 10.776C27.4799 11.0621 27.7231 11.2624 27.6802 11.4198ZM36.0353 16.5988C36.0353 16.6704 31.171 16.1839 31.0995 16.1124C31.0137 16.0266 29.8548 11.5342 29.912 11.4913C29.9406 11.4627 30.3126 11.3483 30.7418 11.2338C31.171 11.1194 31.543 11.0192 31.5573 11.0049C31.5859 11.0049 32.6017 12.2353 33.8178 13.7661C35.0339 15.2826 36.0353 16.5559 36.0353 16.5988ZM30.5558 16.0838C30.4843 16.1267 27.1508 15.7404 27.0793 15.6689C27.0221 15.6117 27.7088 12.8648 28.1094 11.5199C28.1666 11.3196 28.2954 11.291 28.7818 11.3626C29.1109 11.4198 29.3827 11.4627 29.397 11.477C29.4399 11.5342 30.5701 16.0695 30.5558 16.0838ZM51.6726 13.8949C53.6041 16.7276 52.4166 20.5046 49.2262 21.735C45.8355 23.0369 42.1872 20.5046 42.1872 16.8564C42.1872 14.4958 43.8039 12.3783 46.0501 11.7918C47.0229 11.5342 47.4092 11.5199 48.3678 11.7202C49.8128 12.035 50.9001 12.7503 51.6726 13.8949ZM21.1277 15.6117L20.2693 16.6561L19.4109 17.7005C19.1533 17.5717 19.0103 17.5002 18.9817 17.4859C18.6812 17.3285 18.5811 17.1997 18.6526 17.0281C18.6955 16.8993 18.81 16.4844 18.8958 16.0981C19.0818 15.3542 19.0675 15.3542 20.398 15.5115C20.4953 15.5244 20.7385 15.5573 21.1277 15.6117ZM26.2781 16.2126C26.364 16.2984 25.3196 20.3043 25.1622 20.4903C25.0763 20.5761 20.2836 18.2441 19.8973 17.9151C19.8687 17.9008 20.2407 17.4 20.7414 16.7991C21.7572 15.5401 21.514 15.6117 24.361 15.9264C25.3768 16.0409 26.2352 16.1696 26.2781 16.2126ZM30.6989 16.6132C30.7561 16.6847 32.1868 22.1785 32.1439 22.2214C32.1153 22.25 31.6002 22.4503 30.9993 22.6935C30.9278 22.7207 30.5644 22.8595 29.912 23.1084C28.6073 22.4303 27.8833 22.0526 27.7374 21.9782C26.0635 21.0912 25.5914 20.7907 25.6486 20.6047C25.6915 20.476 25.9491 19.4888 26.2352 18.4301C26.5213 17.3714 26.7788 16.4129 26.8075 16.327C26.8504 16.2126 27.0221 16.1696 27.2653 16.2126C27.4799 16.2412 28.3383 16.3413 29.1681 16.4415C29.9979 16.5273 30.6846 16.5988 30.6989 16.6132ZM37.5089 18.3586C38.0383 19.0167 38.4675 19.6176 38.4675 19.6748C38.4675 19.8179 32.7305 22.0497 32.6446 21.9496C32.5874 21.9067 31.2569 17.0424 31.171 16.6275C31.171 16.6275 32.244 16.7419 33.5746 16.8707C34.8908 17.0137 36.0926 17.1425 36.2499 17.1425C36.4359 17.1425 36.8794 17.586 37.5089 18.3586ZM41.7151 17.7577C41.7294 17.7863 41.7724 17.9437 41.7867 18.1154C41.8296 18.4015 41.6579 18.5016 40.4275 18.9881C40.336 19.0253 39.8724 19.2113 39.0398 19.546C38.5247 18.9194 38.2386 18.5703 38.1813 18.5016C37.7092 17.9294 37.3229 17.4143 37.3229 17.3714C37.3229 17.2427 37.6091 17.2713 39.7408 17.5002C40.7995 17.6146 41.6865 17.7434 41.7151 17.7577ZM18.438 18.9309C17.7227 19.8179 17.4938 19.9466 17.2505 19.5603C17.1504 19.3887 17.2648 19.1455 17.737 18.5303C18.0803 18.0868 18.3951 17.7148 18.438 17.7148C18.4809 17.7291 18.6526 17.8006 18.8243 17.9008C19.1247 18.0724 19.1247 18.0868 18.438 18.9309ZM24.9905 21.0912C25.062 21.1341 24.0176 25.0112 23.8603 25.3117C23.803 25.4404 23.4024 25.6693 22.9876 25.8267C22.9389 25.8453 22.69 25.9412 22.2436 26.1129C21.0933 24.6021 20.4553 23.7622 20.3265 23.5949C19.2678 22.2071 18.2949 20.9195 18.1519 20.7192C18.1347 20.6934 18.0431 20.5704 17.88 20.3472C18.3693 19.7292 18.6412 19.3858 18.6955 19.3171C19.139 18.7449 19.5253 18.287 19.5396 18.287C19.5682 18.287 20.7843 18.9022 22.2579 19.6748C23.7458 20.4331 24.9619 21.0626 24.9905 21.0912ZM42.7166 20.2328C42.2187 20.7821 41.9426 21.0869 41.8868 21.1484C41.429 21.6634 41.0284 22.0354 40.9998 22.0068C40.9569 21.9639 40.5706 21.4775 40.1271 20.9338C39.4403 20.0754 39.3688 19.918 39.5834 19.8179C40.4847 19.4316 41.8439 18.8736 41.9154 18.8736C41.9583 18.8593 42.1586 19.1741 42.3589 19.546C42.4076 19.6376 42.5263 19.8665 42.7166 20.2328ZM16.7927 20.9767C16.7612 21.0168 16.6039 21.2228 16.3206 21.5919C16.2519 21.1026 16.2147 20.8308 16.2061 20.7764C16.1203 20.0754 16.1489 19.9323 16.3635 19.7749C16.6497 19.5603 16.9072 19.6891 17.1504 20.1469C17.2362 20.3186 17.1504 20.5475 16.7927 20.9767ZM15.8056 21.5776C15.8914 22.1213 15.6196 22.5075 11.6137 27.4005C11.535 27.4963 11.1387 27.9785 10.4262 28.8454C9.96266 28.3991 9.70514 28.1501 9.65364 28.1015C9.23874 27.6866 8.69509 27.2717 8.43756 27.1716C8.19435 27.0571 7.99405 26.8997 7.99405 26.8139C7.99405 26.728 8.79523 25.2401 9.75379 23.4947C9.8711 23.283 10.452 22.23 11.4992 20.3329C11.7567 20.4102 11.8998 20.4531 11.9284 20.4617C12.6008 20.662 14.3033 20.6191 14.9328 20.3901C15.734 20.104 15.7197 20.0897 15.7197 20.6047C15.7197 20.8623 15.7626 21.3058 15.8056 21.5776ZM40.5849 22.4217C40.5563 22.4932 39.6836 23.4661 38.6392 24.5677C38.5133 24.7022 37.878 25.3746 36.7364 26.585L35.0482 25.7266L33.3457 24.8825C33.1568 24.17 33.0524 23.7737 33.0309 23.695C32.8592 23.0512 32.7734 22.4932 32.8306 22.4646C36.908 20.8193 38.5819 20.1755 38.7536 20.1612C38.8681 20.1612 39.3402 20.6334 39.798 21.2199C40.2558 21.8065 40.6135 22.3502 40.5849 22.4217ZM45.535 22.6363C45.1917 24.0384 44.5193 26.1272 44.4334 26.1415C44.3762 26.1558 43.6322 25.326 42.8024 24.2816C42.7023 24.1557 42.2016 23.5319 41.3002 22.4074L42.1729 21.5204L43.06 20.619C43.3776 20.9109 43.555 21.0726 43.5893 21.1055C43.8754 21.3773 44.462 21.7493 44.8626 21.9639C45.4921 22.2643 45.6066 22.3788 45.535 22.6363ZM21.6284 26.3131C21.5426 26.399 19.9974 27.0142 16.7784 28.2589C16.664 28.3018 16.5924 27.6294 16.5209 26.1272C16.4637 24.9254 16.3921 23.5806 16.3492 23.1513C16.2634 22.3931 16.292 22.3359 16.8643 21.6062C17.1933 21.2056 17.5081 20.8623 17.5653 20.8623C17.6368 20.8623 18.5954 22.064 19.7113 23.5376C20.8272 24.9969 21.6856 26.2559 21.6284 26.3131ZM29.3684 23.323C27.9177 23.8982 27.1122 24.2172 26.9505 24.2816C25.6057 24.8109 24.5041 25.1972 24.4755 25.1257C24.4325 25.0398 24.6328 24.2244 25.2623 22.0354C25.2766 21.9839 25.3482 21.7321 25.4769 21.2772C26.0006 21.569 26.2924 21.7307 26.3496 21.7636C26.8361 22.0354 27.7231 22.5075 28.3097 22.7937C28.4513 22.8638 28.8047 23.0398 29.3684 23.323ZM51.3436 28.1015C51.3436 28.1873 51.0861 28.3304 50.7856 28.4305C50.0989 28.6308 48.94 29.4893 48.3678 30.1903C48.3406 30.2246 48.2018 30.402 47.9529 30.7196C47.0344 29.5779 46.5251 28.9427 46.4221 28.8168C45.5923 27.7581 44.9055 26.7853 44.9055 26.6565C44.9055 26.5134 45.0343 25.9698 45.1774 25.4547C45.3347 24.9397 45.5923 24.0527 45.7639 23.4804C45.784 23.4117 45.8841 23.0684 46.0644 22.4503C46.5966 22.4932 46.8927 22.5161 46.9514 22.5219C47.4378 22.5648 48.0959 22.5362 48.4107 22.4646C48.7254 22.3788 49.0116 22.3216 49.0545 22.3072C49.0974 22.2929 49.6268 23.5662 50.242 25.1257C50.8428 26.6708 51.3436 28.0157 51.3436 28.1015ZM32.7448 24.4103C32.7448 24.4819 32.244 24.2816 31.6432 23.9668C31.5688 23.9268 31.1968 23.7322 30.5272 23.3803C30.9564 23.1914 31.1953 23.0855 31.2426 23.0655C31.6432 22.8795 32.0294 22.7365 32.1296 22.7365C32.2154 22.7221 32.4014 23.0655 32.5159 23.4947C32.6446 23.9239 32.7448 24.3245 32.7448 24.4103ZM44.2617 27.1429C44.2045 27.2717 44.0042 27.9727 43.7896 28.7024C43.5893 29.432 43.389 30.0043 43.3461 29.99C43.2889 29.9614 41.8868 29.246 40.2129 28.4019C37.4517 26.9856 37.1942 26.8282 37.3516 26.5993C37.7808 25.9984 40.9855 22.7651 41.0713 22.8509C41.1142 22.8938 41.8725 23.8381 42.7595 24.9254C43.8182 26.2559 44.319 26.9999 44.2617 27.1429ZM16.1775 28.5164C14.7354 29.0744 13.9342 29.3834 13.774 29.4463C12.4578 29.9614 11.3275 30.3906 11.2703 30.4192C11.1415 30.4764 10.6837 29.4606 10.741 29.2746C10.7696 29.2174 11.9141 27.7581 13.2876 26.0413C13.4549 25.8324 14.289 24.7938 15.7912 22.9224C15.8427 23.2658 15.8714 23.4561 15.8771 23.4947C15.9343 23.8238 16.0202 25.0828 16.0774 26.2988C16.0917 26.5936 16.1246 27.3332 16.1775 28.5164ZM32.9737 25.2115L33.503 27.2574L34.0467 29.3176C33.5316 29.8927 33.2455 30.2117 33.1883 30.2761C32.7162 30.8055 32.0008 31.5637 31.5716 31.9786C31.5215 32.0273 31.2683 32.2705 30.8134 32.7083L28.9535 32.6224L27.1079 32.5223L25.3768 30.2475L23.6457 27.9584L23.9318 26.8854L24.2322 25.8267C25.9061 25.1572 26.8361 24.7852 27.0221 24.7108C28.5529 24.0956 29.8405 23.5949 29.8691 23.5949C29.8977 23.5806 30.5988 23.9525 31.4429 24.396C31.6474 24.5048 32.1582 24.7766 32.9737 25.2115ZM34.4187 28.8597C34.3901 28.8311 34.1611 28.0443 33.9179 27.1286C33.8893 27.017 33.7462 26.4591 33.4887 25.4547L34.9051 26.1701L36.3358 26.8854L36.0496 27.2717C35.011 28.3876 34.4673 28.917 34.4187 28.8597ZM22.9446 27.0857C22.7586 26.8425 22.6013 26.6136 22.587 26.5707C22.587 26.4991 23.3309 26.1272 23.6886 26.027C23.7029 26.0127 23.6457 26.2559 23.5741 26.5421C23.3166 27.5435 23.3166 27.5292 22.9446 27.0857ZM23.1163 28.2159C23.0877 28.3018 22.8016 29.3176 22.5011 30.4764C22.4639 30.6166 22.2779 31.3234 21.9432 32.5938H19.4252H16.9072C16.8471 31.8041 16.8142 31.3649 16.807 31.2776C16.7641 30.5623 16.7212 29.7038 16.7212 29.3605C16.7212 29.3204 16.7212 29.1201 16.7212 28.7596C18.2491 28.1587 19.099 27.8239 19.2678 27.7581C20.6555 27.2002 21.8716 26.7423 21.9718 26.7423C22.0719 26.728 22.3724 27.0285 22.6585 27.4005C22.9446 27.7724 23.1449 28.1444 23.1163 28.2159ZM10.8554 33.1804C10.5979 34.2963 10.1115 35.1404 9.32458 35.913C6.50615 38.6599 1.87075 37.501 0.697598 33.7527C0.182554 32.1503 0.411463 30.6052 1.37002 29.2031C1.91367 28.4019 2.42872 27.9441 3.37296 27.4577C4.80364 26.728 6.49184 26.728 7.93683 27.4434C10.0828 28.5021 11.3705 31.0201 10.8554 33.1804ZM42.6594 32.6654L39.0254 32.7083L35.3915 32.7369C35.1512 31.8184 35.0181 31.3076 34.9909 31.2061C34.7763 30.3477 34.6047 29.6037 34.6047 29.5322C34.6047 29.4749 35.0911 28.9027 35.7063 28.2875C35.7792 28.2117 36.1412 27.8354 36.7936 27.1572L40.0412 28.8168L43.2889 30.4764L42.9741 31.578L42.6594 32.6654ZM47.6238 31.2347C47.6238 31.3634 47.5523 31.5923 47.4808 31.7497C47.3377 32.0072 47.2375 31.9643 45.6066 31.1488C45.4921 31.0916 44.9141 30.8055 43.8754 30.2904C43.927 30.0243 43.9556 29.8755 43.9613 29.8469C44.09 29.1745 44.6194 27.4434 44.6909 27.4434C44.7195 27.4434 45.392 28.2446 46.1931 29.2317C46.98 30.2046 47.6238 31.1059 47.6238 31.2347ZM57.1664 30.7912C58.64 32.9372 58.2538 35.9702 56.308 37.6727C55.2493 38.5884 54.2908 38.946 52.7743 38.9603C51.6726 38.9603 51.458 38.9174 50.5996 38.4882C49.3979 37.9016 48.3392 36.7714 47.8956 35.6269C47.4664 34.5109 47.4664 32.9658 47.8956 31.8499C48.239 30.9628 49.2119 29.7897 49.9987 29.289C51.3579 28.4592 53.1176 28.2732 54.6341 28.8025C55.5069 29.103 56.5799 29.9471 57.1664 30.7912ZM26.6072 32.5938H24.5184H22.4153C22.4668 32.3535 22.4954 32.219 22.5011 32.1932C22.5584 31.9786 22.8016 31.0773 23.0448 30.1903C23.4024 28.9027 23.5169 28.6022 23.66 28.7596C23.7601 28.8598 24.4611 29.7611 25.2194 30.7626C25.4054 31.0058 25.8675 31.6167 26.6072 32.5938ZM16.3778 31.7211C16.385 31.7783 16.4179 32.0702 16.478 32.5938H13.9457H11.4277C11.4277 32.3449 11.4277 32.2061 11.4277 32.1789C11.4277 31.95 11.3848 31.578 11.3418 31.3348C11.3361 31.3062 11.3075 31.1631 11.256 30.9056C12.6552 30.3477 13.4335 30.0372 13.588 29.9757C14.8756 29.4606 16.0202 29.0314 16.1203 29.0314C16.2348 29.0171 16.292 29.289 16.292 29.9328C16.292 30.4192 16.3349 31.2347 16.3778 31.7211ZM34.8479 32.6797C34.8193 32.7226 34.0467 32.7226 33.1597 32.7083C33.0509 32.7054 32.5073 32.6911 31.5287 32.6654C32.2927 31.867 32.7176 31.4235 32.802 31.3348C33.503 30.6052 34.1325 30.0615 34.1898 30.1187C34.247 30.176 34.433 30.7769 34.6047 31.435C34.762 32.0931 34.8765 32.651 34.8479 32.6797ZM47.1946 32.6081C47.1946 32.6797 46.3219 32.7369 45.1917 32.7369C43.9327 32.7369 43.1887 32.6797 43.1887 32.5938C43.1887 32.3649 43.6608 30.7339 43.7181 30.7339C43.761 30.7339 44.5479 31.1202 45.4921 31.6067C46.4221 32.0788 47.1946 32.5366 47.1946 32.6081ZM16.5781 36.8859C16.435 36.8859 11.2417 34.468 11.1129 34.3392C11.0557 34.282 11.0843 33.9673 11.1845 33.6239C11.1959 33.5838 11.2474 33.3836 11.3418 33.023H13.8741H16.4064L16.4923 33.91C16.6167 35.893 16.6454 36.8859 16.5781 36.8859ZM20.255 38.5454C20.2263 38.5884 19.511 38.2879 18.6812 37.9016C18.5811 37.8544 18.0803 37.6212 17.179 37.2006C17.1275 36.3508 17.0989 35.8787 17.0932 35.7842C17.0359 35.0117 16.9787 34.0817 16.9501 33.6954C16.9472 33.6497 16.9329 33.4265 16.9072 33.023C18.3493 33.023 19.1505 33.023 19.3107 33.023C21.1563 33.023 21.7286 33.0659 21.7286 33.1947C21.7286 33.4236 20.3408 38.4596 20.255 38.5454ZM27.0364 33.209C27.457 33.7498 27.6916 34.0502 27.7374 34.1103C28.138 34.6111 28.4527 35.0689 28.4527 35.1404C28.4527 35.2692 23.9318 40.0763 23.7458 40.1478C23.5884 40.205 20.7271 38.8745 20.7271 38.76C20.7271 38.6599 22.1291 33.4951 22.2293 33.1947C22.3008 32.9944 23.4168 32.9658 25.6343 33.1232C25.8217 33.1346 26.2896 33.1632 27.0364 33.209ZM28.8676 34.7398C28.8104 34.7398 28.51 34.3822 28.1809 33.953C28.1409 33.9 27.9406 33.6382 27.58 33.1661C28.4041 33.1661 28.8619 33.1661 28.9535 33.1661C29.6974 33.1661 30.3126 33.209 30.3126 33.2662C30.3126 33.395 28.9964 34.7398 28.8676 34.7398ZM36.579 39.2322C36.3072 39.4038 33.4887 40.6056 33.3886 40.6056C33.3027 40.6056 32.3156 39.3752 31.171 37.8873C31.0337 37.7042 30.347 36.7943 29.1109 35.1547L30.098 34.1676L31.0852 33.1661H33.0452H35.0052L35.1626 33.6239C36.1355 37.3437 36.6076 39.2121 36.579 39.2322ZM41.9297 35.2263C41.8954 35.3493 41.718 35.9645 41.4004 37.0718C40.1128 37.647 39.3974 37.966 39.2544 38.0304C37.8523 38.6599 37.0797 38.9317 37.0225 38.8316C36.9653 38.7457 36.6648 37.6441 36.3358 36.3851C36.021 35.1261 35.692 33.8814 35.6204 33.6239C35.6119 33.5924 35.5632 33.4408 35.4774 33.1661C37.5805 33.1661 38.7493 33.1661 38.9825 33.1661C40.8996 33.1661 42.4734 33.209 42.4734 33.2662C42.4734 33.3378 42.2302 34.2105 41.9297 35.2263ZM47.0802 33.9243C47.083 33.9601 47.0973 34.1418 47.1231 34.468C45.6295 35.1461 44.7997 35.5224 44.6337 35.5982C43.2603 36.2277 42.1014 36.7142 42.0728 36.6712C42.0013 36.614 42.6594 34.1819 42.9312 33.4665C42.9398 33.4436 42.9827 33.3292 43.06 33.1232C44.236 33.1918 44.8898 33.229 45.02 33.2376C46.093 33.2949 46.9943 33.3521 47.0086 33.3521C47.0086 33.3664 47.0516 33.6239 47.0802 33.9243ZM16.664 37.501C16.6926 37.5153 16.7784 38.7887 16.8499 40.3195C16.9358 41.8503 17.0359 43.3668 17.0789 43.6959C17.0831 43.7331 17.1017 43.9248 17.1361 44.2681C16.6468 44.3712 16.375 44.4284 16.3206 44.4398C15.8628 44.54 15.2476 44.7403 14.9328 44.8976C14.6038 45.0693 14.3176 45.1265 14.2461 45.055C14.1746 44.9835 12.9013 43.1665 11.4277 41.0205C11.2488 40.7601 10.3518 39.4639 8.738 37.1291C9.2788 36.5969 9.57924 36.3007 9.63933 36.242C10.1258 35.7556 10.5836 35.212 10.6408 35.0403C10.6837 34.8829 10.741 34.7398 10.7696 34.7398C10.7839 34.7398 12.1144 35.355 13.7168 36.099C15.3191 36.8572 16.6497 37.4867 16.664 37.501ZM48.3392 37.2435C48.3835 37.3007 48.6024 37.5926 48.9973 38.1162L46.465 41.2065L43.9184 44.2825C43.4462 44.0421 43.1844 43.9076 43.1315 43.8819C42.688 43.6673 41.8439 43.4097 41.2573 43.3096C40.6707 43.2238 40.1843 43.0807 40.1843 43.0091C40.1843 42.723 41.7724 37.3866 41.8725 37.3437C41.9297 37.3294 43.1029 36.8 44.4763 36.1705C45.8498 35.541 47.0515 35.026 47.1231 35.026C47.2089 35.026 47.3663 35.3264 47.4664 35.6984C47.5809 36.0561 47.9672 36.7571 48.3392 37.2435ZM32.9021 40.8917C32.4043 41.1149 32.1282 41.238 32.0724 41.2637C29.3827 42.4655 28.9964 42.6229 28.7532 42.537C28.324 42.4083 24.2895 40.4912 24.2609 40.4196C24.2465 40.3767 25.2623 39.2751 26.507 37.9589C28.6816 35.6841 28.7961 35.5839 29.025 35.8415C29.1538 35.9845 30.0837 37.172 31.0852 38.4882C31.3284 38.8087 31.9336 39.6099 32.9021 40.8917ZM20.1119 39.0891C20.1262 39.1034 19.8258 40.3052 19.4395 41.7502C19.0389 43.2094 18.7241 44.3969 18.7241 44.3969C18.7241 44.3969 18.4666 44.3826 18.1662 44.354C18.129 44.3497 17.943 44.3311 17.6082 44.2968C17.5567 43.7731 17.5281 43.4813 17.5224 43.424C17.4794 42.9376 17.4079 41.7358 17.365 40.7487C17.3221 39.7615 17.2505 38.6885 17.2076 38.3451C17.1647 38.0161 17.1647 37.7443 17.1933 37.7443C17.2362 37.7443 17.8943 38.0447 18.6669 38.4024C19.4538 38.76 20.0976 39.0748 20.1119 39.0891ZM40.6135 39.8187C39.5405 43.61 39.6979 43.2667 38.9682 43.467C38.6106 43.5671 38.2958 43.6243 38.2672 43.5957C38.1384 43.4527 37.1799 39.5612 37.2514 39.4754C37.3945 39.3323 40.8138 37.7729 41.0141 37.7586C41.1285 37.7443 41.1715 37.8444 41.1285 37.9875C41.0856 38.1305 40.8567 38.946 40.6135 39.8187ZM23.2737 40.6342C23.1735 40.9061 19.5396 44.6115 19.3536 44.6115C19.2392 44.6115 19.1533 44.5829 19.1533 44.54C19.1533 44.4684 20.4123 39.7901 20.5268 39.4897C20.5554 39.3752 20.6412 39.318 20.6985 39.3466C20.77 39.3752 21.3852 39.6471 22.0576 39.9618C22.7443 40.2622 23.288 40.577 23.2737 40.6342ZM37.838 43.8676L37.1656 44.3683L36.4788 44.869L35.0482 42.9948L33.6032 41.1063C34.4444 40.7029 34.9123 40.4783 35.0052 40.4339C35.7635 40.062 36.4788 39.7758 36.5933 39.7901C36.7221 39.8044 36.9796 40.5198 37.3229 41.836C37.3916 42.1064 37.5633 42.7831 37.838 43.8676ZM28.2954 42.9519C28.2668 42.9662 26.7645 43.653 24.9619 44.4684C21.9432 45.8276 21.657 45.9277 21.3709 45.7417C21.1992 45.6273 20.8272 45.3841 20.5411 45.2124C20.5068 45.1895 20.3294 45.075 20.0117 44.869C20.1748 44.663 20.2664 44.5486 20.2836 44.5257C20.4409 44.3254 21.2994 43.4097 22.1864 42.4798C22.2951 42.3682 22.833 41.8102 23.803 40.8059C24.2322 40.9948 24.4712 41.0992 24.5184 41.1207C24.919 41.2923 25.9347 41.7645 26.7932 42.1651C27.6516 42.5656 28.324 42.9233 28.2954 42.9519ZM35.9924 45.4842C35.8923 45.6416 35.7492 45.7417 35.6491 45.7274C35.1483 45.613 29.6259 42.9519 29.7117 42.8661C29.8548 42.723 32.9308 41.3353 33.1024 41.3353C33.1883 41.3353 33.9036 42.208 34.7048 43.2667C35.9924 44.9835 36.1498 45.241 35.9924 45.4842ZM35.3486 46.1709C35.4058 46.2282 35.3343 46.6145 35.1626 47.0294C35.0052 47.4586 34.8622 48.2025 34.8479 48.7032C34.8464 48.7633 34.8364 49.0695 34.8193 49.6189H29.025H23.2165C23.1135 49.121 23.0562 48.8435 23.0448 48.7891C22.9446 48.3313 22.6585 47.5873 22.3867 47.1438C22.3538 47.0894 22.1864 46.8176 21.8859 46.3283C22.2894 46.1566 22.514 46.0608 22.5583 46.0422C22.9303 45.8705 24.4898 45.1695 26.0206 44.4684C27.5514 43.7674 28.8533 43.1951 28.8963 43.1951C28.9392 43.1808 30.3842 43.8246 32.1153 44.6258C33.8321 45.4127 35.2914 46.1137 35.3486 46.1709ZM45.3204 46.8863C45.6352 47.573 45.6924 47.8878 45.6924 48.9751C45.6924 50.1482 45.6495 50.3628 45.2346 51.2069C44.6766 52.3372 43.7753 53.2099 42.6451 53.7392C41.944 54.0683 41.6436 54.1255 40.542 54.1255C39.426 54.1255 39.1399 54.0683 38.396 53.7249C36.9796 53.0668 36.0353 51.9938 35.5346 50.4916C35.2055 49.5044 35.2914 47.8305 35.7206 46.872C36.0353 46.1709 36.9367 45.0836 37.6377 44.5972C38.7536 43.796 40.7566 43.5242 42.13 43.9963C43.5607 44.4827 44.648 45.4556 45.3204 46.8863ZM22.2007 47.7447C22.6156 48.6031 22.6585 48.8034 22.6585 50.0481C22.6585 51.2355 22.6156 51.5074 22.2722 52.2084C21.2135 54.3401 18.8243 55.6277 16.6783 55.1985C15.4336 54.9553 14.6038 54.5261 13.7883 53.6963C11.0271 50.9351 12.0572 46.3999 15.7483 45.0264C16.8356 44.6258 18.4952 44.7117 19.6112 45.2124C20.7414 45.7274 21.6427 46.6145 22.2007 47.7447Z" fill="black"/>
<path d="M27.8804 7.27083C28.095 7.27083 28.2151 7.27083 28.238 7.27083C28.5814 7.27083 28.5957 7.24221 28.5957 6.25505C28.5957 6.1878 28.5957 5.85446 28.5957 5.25357C29.1279 5.85446 29.4241 6.1878 29.4827 6.25505C30.2696 7.14207 30.4413 7.27083 30.8705 7.27083C30.9048 7.27083 31.0708 7.27083 31.3712 7.27083C31.1223 6.98755 30.9849 6.83018 30.9563 6.79871C30.7131 6.55549 30.2696 6.06906 29.9692 5.7257C29.932 5.68564 29.7403 5.48534 29.3969 5.12481L30.3125 4.19487L31.2282 3.26493C30.9277 3.26493 30.7618 3.26493 30.7274 3.26493C30.2839 3.26493 30.0979 3.39369 29.4112 4.10903C29.3568 4.16626 29.085 4.45239 28.5957 4.96744C28.5957 4.45239 28.5957 4.16626 28.5957 4.10903C28.5957 3.30785 28.5814 3.26493 28.238 3.26493C28.2151 3.26493 28.095 3.26493 27.8804 3.26493V5.26788V7.27083Z" fill="black"/>
<path d="M11.4277 16.8564H11.7854H12.1431V15.3112V13.7804C12.744 14.6989 13.0787 15.2082 13.1445 15.3112C14.0459 16.7133 14.1746 16.8564 14.5752 16.8564C14.6038 16.8564 14.7469 16.8564 15.0044 16.8564V14.8534V12.8505H14.6468H14.2891V14.3097V15.7833C13.7054 14.9078 13.382 14.4213 13.3162 14.3241C12.4292 12.9649 12.3291 12.8505 11.8999 12.8505C11.8684 12.8505 11.711 12.8505 11.4277 12.8505V14.8534V16.8564Z" fill="black"/>
<path d="M45.3777 18.2298C45.3204 18.3729 45.4206 18.4301 45.721 18.4301C46.0644 18.4301 46.1931 18.33 46.3791 17.9294C46.608 17.443 46.651 17.4287 47.4092 17.4287C48.1961 17.4287 48.2104 17.443 48.425 17.9294C48.5967 18.3443 48.6968 18.4301 49.0688 18.4301C49.3693 18.4301 49.4837 18.3729 49.4408 18.2442C49.3979 18.1583 48.9973 17.2141 48.5395 16.1697C47.4378 13.6374 47.3806 13.6231 46.279 16.1554C45.8212 17.1854 45.4206 18.1154 45.3777 18.2298ZM47.352 16.8564C47.3148 16.8564 47.1288 16.8564 46.794 16.8564L47.0945 16.0552L47.3806 15.2683C47.5437 15.6804 47.6353 15.9093 47.6524 15.9551C47.7955 16.327 47.91 16.6847 47.91 16.7419C47.91 16.8135 47.6667 16.8564 47.352 16.8564Z" fill="black"/>
<path d="M3.75923 32.4794C3.72776 32.5538 3.57038 32.9257 3.28711 33.5953C3.52746 33.5953 3.66195 33.5953 3.6877 33.5953C4.01675 33.5953 4.13121 33.5095 4.25997 33.1661C4.40304 32.7512 4.43165 32.7369 5.26144 32.7369C6.07693 32.7369 6.13416 32.7655 6.34876 33.1661C6.50613 33.4665 6.67781 33.5953 6.92103 33.5953C7.12132 33.5953 7.2787 33.5524 7.26439 33.4809C7.26439 33.4236 6.89241 32.5366 6.4489 31.5208C5.44743 29.2317 5.23283 29.103 4.63195 30.4764C4.41734 30.9772 4.03106 31.8785 3.75923 32.4794ZM5.26144 32.1646C4.61764 32.1646 4.61764 32.1503 5.08976 31.0201C5.10407 30.9857 5.1756 30.8198 5.30436 30.5193C5.46746 30.9485 5.55902 31.186 5.57619 31.2347C5.71926 31.621 5.84802 31.9929 5.84802 32.0502C5.84802 32.1217 5.5905 32.1646 5.26144 32.1646Z" fill="black"/>
<path d="M52.0586 35.5982C52.7453 35.5982 53.1273 35.5982 53.2031 35.5982C54.2475 35.5982 54.3477 35.5696 54.3477 35.3121C54.3477 35.0832 54.2332 35.0403 53.5322 34.9974C53.4778 34.9945 53.2003 34.9802 52.7024 34.9544C52.6766 33.9415 52.6623 33.3778 52.6595 33.2662C52.6309 31.7068 52.6023 31.5923 52.3447 31.5923C52.0729 31.5923 52.0586 31.6925 52.0586 33.5953C52.0586 33.8614 52.0586 34.5295 52.0586 35.5982Z" fill="black"/>
<path d="M39.8984 50.9065H40.2561H40.6138V48.9035V46.9006H40.2561H39.8984V48.9035V50.9065Z" fill="black"/>
<path d="M15.8628 51.6218C16.0774 51.6218 16.1976 51.6218 16.2205 51.6218C16.5638 51.6218 16.5781 51.5789 16.5781 50.7634C16.5781 50.7062 16.5781 50.4201 16.5781 49.905H17.5081H18.438C18.438 50.4201 18.438 50.7062 18.438 50.7634C18.438 51.5789 18.4523 51.6218 18.7957 51.6218C18.82 51.6218 18.9387 51.6218 19.1534 51.6218V49.6189V47.6159C18.9387 47.6159 18.82 47.6159 18.7957 47.6159C18.4523 47.6159 18.438 47.6589 18.438 48.4028C18.438 48.4543 18.438 48.7176 18.438 49.1897H17.5081H16.5781C16.5781 48.7176 16.5781 48.4543 16.5781 48.4028C16.5781 47.6589 16.5638 47.6159 16.2205 47.6159C16.1976 47.6159 16.0774 47.6159 15.8628 47.6159V49.6189V51.6218Z" fill="black"/>
<path d="M109 20.4574C109 26.8954 109 30.4721 109 31.1875C83.334 31.1875 69.0759 31.1875 66.2231 31.1875C66.2231 24.7494 66.2231 21.1727 66.2231 20.4574C91.8895 20.4574 106.149 20.4574 109 20.4574Z" fill="#4BC5F1"/>
<path d="M90.5842 33.6368C90.5842 39.8173 90.5842 43.2509 90.5842 43.9377C75.9055 43.9377 67.7506 43.9377 66.1196 43.9377C66.1196 37.7571 66.1196 34.3235 66.1196 33.6368C80.7984 33.6368 88.9532 33.6368 90.5842 33.6368Z" fill="#4BC5F1"/>
<path d="M65.9551 43.8475H78.1874H90.4197V38.4825V33.1174H78.1874H65.9551V38.4825V43.8475ZM88.1735 36.1362C87.9303 36.3794 87.8301 36.408 87.5869 36.2792C87.1148 36.0217 86.3422 36.0933 86.0704 36.3937C85.5983 36.9087 86.0275 37.3952 87.2722 37.7671C88.6027 38.1677 88.9604 39.5555 87.9875 40.4854C87.4295 41.0148 86.2421 41.1435 85.398 40.7716C84.7685 40.4854 84.7113 40.2851 85.1119 39.9275C85.3694 39.6843 85.4266 39.6843 85.727 39.8989C86.4996 40.4425 87.7014 39.9847 87.5011 39.2121C87.4296 38.9403 87.2006 38.7829 86.4138 38.4825C85.2549 38.039 84.9116 37.6527 84.9259 36.8086C84.9545 36.2077 85.1262 35.9216 85.77 35.521C86.3279 35.1633 87.8588 35.2205 88.2307 35.5925C88.4596 35.8214 88.4596 35.85 88.1735 36.1362ZM68.8164 39.9847H69.961H71.1055V40.4139V40.8431H69.4602H67.815V38.1248V35.4065H68.3157H68.8164V37.6956V39.9847ZM77.5006 40.371C77.5135 40.4025 77.575 40.5598 77.6866 40.8431C77.3604 40.8431 77.1787 40.8431 77.143 40.8431C76.6422 40.8431 76.585 40.8002 76.3847 40.2279C76.369 40.1879 76.2932 39.9876 76.1558 39.627H74.8968H73.6378C73.5005 39.9876 73.4247 40.1879 73.4089 40.2279C73.2086 40.8002 73.1514 40.8431 72.665 40.8431C72.6292 40.8431 72.4532 40.8431 72.1356 40.8431C72.8052 39.298 73.1771 38.4396 73.2515 38.2679C73.8667 36.8515 74.4247 35.6211 74.4676 35.5496C74.5105 35.4638 74.7394 35.4065 74.954 35.4065C75.3403 35.4065 75.4119 35.5067 76.3275 37.6527C76.8711 38.8974 77.3862 40.1278 77.5006 40.371ZM82.9801 36.7084C82.9801 37.2664 82.6082 37.8387 82.2362 37.8387C82.136 37.8387 82.2505 37.9674 82.508 38.1248C83.3807 38.6542 83.5238 39.5412 82.8514 40.2994C82.8242 40.3309 82.6854 40.4883 82.4365 40.7716L80.7769 40.8145L79.1173 40.8717V38.1391V35.4065C80.0101 35.4065 80.5065 35.4065 80.6052 35.4065C82.0073 35.4065 82.1217 35.4351 82.5366 35.7785C82.8943 36.0789 82.9801 36.2506 82.9801 36.7084Z" fill="black"/>
<path d="M74.1099 38.6685C74.1099 38.7829 74.3674 38.8401 74.8967 38.8401C75.4261 38.8401 75.6836 38.7829 75.6836 38.6685C75.6836 38.4682 74.9683 36.5511 74.8967 36.5511C74.8681 36.5511 74.6821 36.9803 74.4818 37.5239C74.2815 38.0533 74.1099 38.5683 74.1099 38.6685Z" fill="black"/>
<path d="M79.9546 37.388C80.4095 37.388 80.6628 37.388 80.7128 37.388C81.2994 37.388 81.5426 37.3165 81.7286 37.1162C82.258 36.5296 81.6714 35.9574 80.5125 35.9574C80.4754 35.9574 80.2894 35.9574 79.9546 35.9574V36.6727V37.388Z" fill="black"/>
<path d="M79.9546 39.9919C80.461 39.9575 80.7429 39.9389 80.7987 39.9346C81.8145 39.8631 82.1006 39.6628 82.1006 39.019C82.1006 38.4324 81.7572 38.2464 80.6556 38.2464C80.6098 38.2464 80.3752 38.2464 79.9546 38.2464V39.1192V39.9919Z" fill="black"/>
<path d="M68.3687 29.1602H68.8694H69.3558L69.3987 27.9012L69.4417 26.6565L70.6863 26.6136L71.931 26.5707L71.974 27.8297L72.0169 29.0887H72.5176H73.0184V26.2989V23.509H72.5176H72.0169L71.974 24.6107L71.931 25.7266H70.6577H69.3701V24.582V23.4375H68.8694H68.3687V26.2989V29.1602Z" fill="black"/>
<path d="M74.5205 29.0458C74.5205 29.1173 74.7494 29.1602 75.0212 29.1602C75.4934 29.1602 75.5506 29.103 75.8081 28.5164C75.8267 28.4735 75.9168 28.2589 76.0799 27.8726H77.296H78.4978C78.6523 28.2589 78.7381 28.4735 78.7553 28.5164C78.9842 29.1316 79.0271 29.1602 79.5422 29.1602C79.8569 29.1602 80.1001 29.1173 80.1001 29.0601C80.1001 28.9885 79.5708 27.7009 78.927 26.1987C77.7681 23.4804 77.7395 23.4375 77.3103 23.4375C76.8811 23.4375 76.8525 23.4804 75.6937 26.1844C75.0499 27.7009 74.5205 28.9885 74.5205 29.0458ZM76.5807 26.8282C76.5378 26.7996 76.6379 26.4562 76.781 26.0699C76.924 25.6837 77.0957 25.2402 77.1529 25.0828C77.2388 24.8539 77.3389 24.9826 77.668 25.7981C77.6952 25.8639 77.8282 26.1987 78.0686 26.7996L77.3532 26.8425C76.8582 26.8511 76.6007 26.8468 76.5807 26.8282Z" fill="black"/>
<path d="M81.5308 29.1602H82.0315H82.5322V26.9856V24.8253L83.9343 26.9856L85.3221 29.1602H85.9372H86.5381V26.2989V23.4375H86.0374H85.551L85.508 25.4548L85.4651 27.472L84.1489 25.4548L82.8327 23.4375H82.1746H81.5308V26.2989V29.1602Z" fill="black"/>
<path d="M88.5698 26.4419C88.5727 26.6179 88.587 27.5006 88.6127 29.0887H89.1135H89.6142L89.6858 27.7868L89.7573 26.4848C90.4698 27.2832 90.8661 27.7267 90.9447 27.8154C92.1179 29.1316 92.1465 29.1602 92.776 29.1602C93.1194 29.1602 93.4055 29.1173 93.4055 29.0744C93.4055 29.0171 92.8332 28.3447 92.1179 27.5722C91.4169 26.8139 90.8303 26.1129 90.8303 26.0413C90.8303 25.9555 91.374 25.3832 92.0464 24.7823C92.7188 24.1671 93.2624 23.6092 93.2624 23.552C93.2624 23.4947 92.9906 23.4375 92.6472 23.4375C92.075 23.4375 91.9748 23.509 90.9018 24.582C90.826 24.6593 90.444 25.0456 89.7573 25.7409L89.6858 24.625L89.6142 23.509C89.3309 23.4833 89.1736 23.469 89.1421 23.4661C88.856 23.4375 88.6557 23.4947 88.6127 23.6092C88.5698 23.7236 88.5555 24.9969 88.5698 26.4419Z" fill="black"/>
<path d="M94.2637 29.0458C94.2637 29.1173 94.4926 29.1602 94.7644 29.1602C95.2365 29.1602 95.2938 29.103 95.5513 28.5164C95.5699 28.4735 95.66 28.2589 95.8231 27.8726H97.0392H98.241C98.3955 28.2589 98.4813 28.4735 98.4985 28.5164C98.7274 29.1316 98.7703 29.1602 99.2853 29.1602C99.6001 29.1602 99.8433 29.1173 99.8433 29.0601C99.8433 28.9885 99.314 27.7009 98.6702 26.1987C97.5113 23.4804 97.4827 23.4375 97.0535 23.4375C96.6243 23.4375 96.5957 23.4804 95.4368 26.1844C94.793 27.7009 94.2637 28.9885 94.2637 29.0458ZM96.3238 26.8282C96.2809 26.7996 96.3811 26.4562 96.5241 26.0699C96.6672 25.6837 96.8389 25.2402 96.8961 25.0828C96.982 24.8539 97.0821 24.9826 97.4112 25.7981C97.4383 25.8639 97.5714 26.1987 97.8117 26.7996L97.0964 26.8425C96.6014 26.8511 96.3439 26.8468 96.3238 26.8282Z" fill="black"/>
<path d="M101.274 29.1745L102.963 29.1316L104.637 29.0887L104.679 28.6166L104.722 28.1587H103.506H102.276V25.7981V23.4375H101.775H101.274V26.2989V29.1745Z" fill="black"/>
<path d="M106.139 29.1602H106.639H107.14V26.2989V23.4375H106.639H106.139V26.2989V29.1602Z" fill="black"/>
</svg>
